<?xml version="1.0" encoding="UTF-8"?>
<svg id="Ebene_1" data-name="Ebene 1" xmlns="http://www.w3.org/2000/svg" xmlns:xlink="http://www.w3.org/1999/xlink" viewBox="0 0 99.21 99.21">
  <defs>
    <style>
      .cls-1 {
        fill: none;
      }

      .cls-2 {
        fill: #26b3e8;
      }

      .cls-3 {
        fill: #fff;
      }

      .cls-4 {
        clip-path: url(#clippath);
      }
    </style>
    <clipPath id="clippath">
      <rect class="cls-1" x="7.09" y="10.34" width="85.04" height="85.04"/>
    </clipPath>
  </defs>
  <g class="cls-4">
    <g>
      <path class="cls-3" d="M49.61,61.26c-9.92,0-17.99-8.07-17.99-17.99s8.07-17.99,17.99-17.99,17.99,8.07,17.99,17.99-8.07,17.99-17.99,17.99ZM49.61,27.28c-8.82,0-15.99,7.17-15.99,15.99s7.17,15.99,15.99,15.99,15.99-7.17,15.99-15.99-7.17-15.99-15.99-15.99Z"/>
      <path class="cls-2" d="M42.22,54.43l1.42-8.23-5.98-5.83,8.25-1.2,3.69-7.48,3.69,7.48,8.25,1.2-5.97,5.83,1.41,8.23-7.39-3.88-7.39,3.88ZM49.61,48.29l4.73,2.48-.91-5.27,3.83-3.73-5.29-.76-2.37-4.79-2.37,4.79-5.28.76,3.83,3.73-.91,5.27,4.73-2.48Z"/>
      <path class="cls-3" d="M44.09,86.69l-5.2-6.01-7.49,2.15,4.19-17.35h8.05l4.93,2.84-4.49,18.38ZM39.57,78.4l3.5,4.05,3.21-13.16-3.17-1.82h-5.95l-3.01,12.49,5.41-1.55Z"/>
      <path class="cls-3" d="M49.61,71.06c-.17,0-.34-.04-.5-.13l-5.98-3.45h-6.91c-.36,0-.69-.19-.87-.5l-3.46-5.99-5.99-3.46c-.31-.18-.5-.51-.5-.87v-6.91l-3.46-5.98c-.18-.31-.18-.69,0-1l3.46-5.99v-6.91c0-.36.19-.69.5-.87l5.99-3.46,3.46-5.98c.18-.31.51-.5.87-.5h6.91l5.98-3.46c.31-.18.69-.18,1,0l5.99,3.46h6.91c.36,0,.69.19.87.5l3.46,5.98,5.98,3.46c.31.18.5.51.5.87v6.91l3.4,5.89c.12.17.19.37.19.58h0c0,.23-.07.43-.19.6l-3.4,5.88v6.91c0,.36-.19.69-.5.87l-5.98,3.46-3.46,5.99c-.18.31-.51.5-.87.5h-6.91l-5.99,3.46c-.15.09-.33.13-.5.13ZM36.79,65.48h6.6c.18,0,.35.05.5.13l5.71,3.29,5.72-3.3c.15-.09.32-.13.5-.13h6.6l3.3-5.72c.09-.15.21-.28.37-.37l5.71-3.3v-6.6c0-.18.05-.35.13-.5l3.3-5.71-3.3-5.71c-.09-.15-.13-.32-.13-.5v-6.6l-5.71-3.3c-.15-.09-.28-.21-.37-.37l-3.3-5.71h-6.6c-.18,0-.35-.05-.5-.13l-5.72-3.3-5.71,3.3c-.15.09-.32.13-.5.13h-6.6l-3.3,5.71c-.09.15-.21.28-.37.37l-5.72,3.3v6.6c0,.18-.05.35-.13.5l-3.3,5.72,3.3,5.71c.09.15.13.32.13.5v6.6l5.72,3.3c.15.09.28.21.37.37l3.3,5.72Z"/>
      <path class="cls-3" d="M55.1,86.69l-4.49-18.37,4.93-2.85h8.06l4.19,17.35-7.49-2.15-5.2,6.01ZM52.92,69.3l3.21,13.15,3.5-4.05,5.41,1.55-3.01-12.49h-5.94l-3.17,1.83Z"/>
    </g>
  </g>
</svg>