<?xml version="1.0" encoding="utf-8"?>
<!-- Generator: Adobe Illustrator 19.0.0, SVG Export Plug-In . SVG Version: 6.00 Build 0)  -->
<svg version="1.1" id="Ebene_1" xmlns="http://www.w3.org/2000/svg" xmlns:xlink="http://www.w3.org/1999/xlink" x="0px" y="0px"
	 viewBox="-448 249.4 62 62.6" style="enable-background:new -448 249.4 62 62.6;" xml:space="preserve">
<style type="text/css">
	.st0{fill:white}
	.st1{fill:none;stroke:white;stroke-width:2.5;stroke-miterlimit:10;}
</style>
<g>
	<g id="XMLID_2194_">
		<path class="st0" d="M-409,298.9h-14.6v-1.2c0-2.5-1.4-5.2-2.9-8.2c-1.8-3.5-3.6-7.2-3.6-11.1c0-7.6,6.2-13.7,13.7-13.7
			s13.7,6.2,13.7,13.7c0,3.9-1.8,7.6-3.6,11.1c-1.5,3-2.9,5.8-2.9,8.2v1.2H-409z M-421.3,296.6h10c0.3-2.6,1.6-5.3,3-8.1
			c1.6-3.3,3.3-6.7,3.3-10c0-6.3-5.1-11.4-11.4-11.4s-11.4,5.1-11.4,11.4c0,3.4,1.7,6.8,3.3,10
			C-422.9,291.3-421.6,293.9-421.3,296.6z"/>
	</g>
	<g id="XMLID_2193_">
		<polygon class="st0" points="-410.2,301.2 -422.4,301.2 -422.4,306.1 -420.2,306.1 -418.5,309.2 -414.1,309.2 -412.4,306.1
			-410.2,306.1 		"/>
		<path class="st0" d="M-413.4,310.4h-5.7l-1.7-3.1h-2.7V300h14.6v7.3h-2.7L-413.4,310.4z M-417.8,308.1h3l1.7-3.1h1.7v-2.6h-9.9
			v2.6h1.7L-417.8,308.1z"/>
	</g>
	<g id="XMLID_2192_">
		<path class="st0" d="M-414,291.8c-1.9,0-3.5-2.1-3.5-4.7h2.3c0,1.4,0.7,2.4,1.1,2.4s1.1-0.9,1.1-2.4h2.3
			C-410.5,289.8-412,291.8-414,291.8z"/>
	</g>
	<g id="XMLID_2191_">
		<path class="st0" d="M-415.1,287.3h-2.3c0-1.4-0.7-2.4-1.1-2.4s-1.1,0.9-1.1,2.4h-2.3c0-2.6,1.5-4.7,3.5-4.7
			S-415.1,284.7-415.1,287.3z"/>
	</g>
</g>
<line class="st1" x1="-416.2" y1="260.8" x2="-416.2" y2="250.5"/>
<line class="st1" x1="-399" y1="278.4" x2="-388.8" y2="278.4"/>
<line class="st1" x1="-444.3" y1="278.4" x2="-434" y2="278.4"/>
<line class="st1" x1="-400.1" y1="269.9" x2="-391.2" y2="264.7"/>
<line class="st1" x1="-405.9" y1="263.4" x2="-400.8" y2="254.5"/>
<line class="st1" x1="-432.2" y1="269.9" x2="-441.1" y2="264.7"/>
<line class="st1" x1="-426.5" y1="263.4" x2="-431.6" y2="254.5"/>
</svg>
