<?xml version="1.0" encoding="utf-8"?>
<!-- Generator: Adobe Illustrator 19.0.0, SVG Export Plug-In . SVG Version: 6.00 Build 0)  -->
<svg version="1.1" id="Ebene_1" xmlns="http://www.w3.org/2000/svg" xmlns:xlink="http://www.w3.org/1999/xlink" x="0px" y="0px"
	 viewBox="-465 258.3 27.5 45.7" style="enable-background:new -465 258.3 27.5 45.7;" xml:space="preserve">
<style type="text/css">
	.st0{fill:white;}
</style>
<g>
	<g id="XMLID_2194_">
		<path class="st0" d="M-444,292.5h-14.6v-1.2c0-2.5-1.4-5.2-2.9-8.2c-1.8-3.5-3.6-7.2-3.6-11.1c0-7.6,6.2-13.7,13.7-13.7
			s13.7,6.2,13.7,13.7c0,3.9-1.8,7.6-3.6,11.1c-1.5,3-2.9,5.8-2.9,8.2V292.5z M-456.3,290.2h10c0.3-2.6,1.6-5.3,3-8.1
			c1.6-3.3,3.3-6.7,3.3-10c0-6.3-5.1-11.4-11.4-11.4c-6.3,0-11.4,5.1-11.4,11.4c0,3.4,1.7,6.8,3.3,10
			C-457.9,284.9-456.6,287.5-456.3,290.2z"/>
	</g>
	<g id="XMLID_2193_">
		<polygon class="st0" points="-445.2,294.8 -457.4,294.8 -457.4,299.7 -455.2,299.7 -453.5,302.8 -449.1,302.8 -447.4,299.7
			-445.2,299.7 		"/>
		<path class="st0" d="M-448.4,304h-5.7l-1.7-3.1h-2.7v-7.3h14.6v7.3h-2.7L-448.4,304z M-452.8,301.7h3l1.7-3.1h1.7v-2.6h-9.9v2.6
			h1.7L-452.8,301.7z"/>
	</g>
	<g id="XMLID_2192_">
		<path class="st0" d="M-449,285.4c-1.9,0-3.5-2.1-3.5-4.7h2.3c0,1.4,0.7,2.4,1.1,2.4s1.1-0.9,1.1-2.4h2.3
			C-445.5,283.4-447,285.4-449,285.4z"/>
	</g>
	<g id="XMLID_2191_">
		<path class="st0" d="M-450.1,280.9h-2.3c0-1.4-0.7-2.4-1.1-2.4s-1.1,0.9-1.1,2.4h-2.3c0-2.6,1.5-4.7,3.5-4.7
			S-450.1,278.3-450.1,280.9z"/>
	</g>
</g>
</svg>
