<svg xmlns="http://www.w3.org/2000/svg" viewBox="-448 249.4 62 62.6" enable-background="new -448 249.4 62 62.6"><style type="text/css">.st0{fill:white} .st1{fill:none;stroke:white;stroke-width:2.5;stroke-miterlimit:10;}</style><path id="XMLID_2194_" d="M-409 298.9h-14.6v-1.2c0-2.5-1.4-5.2-2.9-8.2-1.8-3.5-3.6-7.2-3.6-11.1 0-7.6 6.2-13.7 13.7-13.7s13.7 6.2 13.7 13.7c0 3.9-1.8 7.6-3.6 11.1-1.5 3-2.9 5.8-2.9 8.2v1.2h.2zm-12.3-2.3h10c.3-2.6 1.6-5.3 3-8.1 1.6-3.3 3.3-6.7 3.3-10 0-6.3-5.1-11.4-11.4-11.4s-11.4 5.1-11.4 11.4c0 3.4 1.7 6.8 3.3 10 1.6 2.8 2.9 5.4 3.2 8.1z" class="st0"/><g id="XMLID_2193_"><path d="M-410.2 301.2h-12.2v4.9h2.2l1.7 3.1h4.4l1.7-3.1h2.2zM-413.4 310.4h-5.7l-1.7-3.1h-2.7V300h14.6v7.3h-2.7l-1.8 3.1zm-4.4-2.3h3l1.7-3.1h1.7v-2.6h-9.9v2.6h1.7l1.8 3.1z" class="st0"/></g><path id="XMLID_2192_" d="M-414 291.8c-1.9 0-3.5-2.1-3.5-4.7h2.3c0 1.4.7 2.4 1.1 2.4s1.1-.9 1.1-2.4h2.3c.2 2.7-1.3 4.7-3.3 4.7z" class="st0"/><path id="XMLID_2191_" d="M-415.1 287.3h-2.3c0-1.4-.7-2.4-1.1-2.4s-1.1.9-1.1 2.4h-2.3c0-2.6 1.5-4.7 3.5-4.7s3.3 2.1 3.3 4.7z" class="st0"/><path d="M-416.2 260.8v-10.3M-399 278.4h10.2M-444.3 278.4h10.3M-400.1 269.9l8.9-5.2M-405.9 263.4l5.1-8.9M-432.2 269.9l-8.9-5.2M-426.5 263.4l-5.1-8.9" class="st1"/></svg>