<?xml version="1.0" encoding="utf-8"?>
<!-- Generator: Adobe Illustrator 19.0.0, SVG Export Plug-In . SVG Version: 6.00 Build 0)  -->
<svg version="1.1" id="Ebene_1" xmlns="http://www.w3.org/2000/svg" xmlns:xlink="http://www.w3.org/1999/xlink" x="0px" y="0px"
	 viewBox="-454 259.3 50 42.7" style="enable-background:new -454 259.3 50 42.7;" xml:space="preserve">
<g id="XMLID_1155_" style="fill:white;">
	<g id="XMLID_1162_">
		<path d="M-405,292.3H-453c-0.5,0-1-0.4-1-1v-31c0-0.5,0.4-1,1-1h48.1c0.5,0,1,0.4,1,1v31C-404,291.9-404.4,292.3-405,292.3z
			 M-452.1,290.3h46.1v-29.1h-46.1V290.3z"/>
	</g>
	<g id="XMLID_1160_">
		<g id="XMLID_1161_">
			<polygon points="-426,300.1 -426,293.7 -432.4,293.7 -432.4,300.1 -439.2,300.1 -439.2,302 -419.2,302 -419.2,300.1 			"/>
		</g>
	</g>
	<g id="XMLID_2_">
		<g id="XMLID_4_">
			<path d="M-437.2,275.5c1.5,0,1.8-0.9,1.8-1.6c0-0.6-0.1-1.2-0.2-1.8c-0.1-0.6-0.2-1.2-0.2-1.8c0-2,1.3-2.9,3.2-2.9h0.5v1.2h-0.4
				c-1.2,0-1.7,0.7-1.7,1.9c0,0.5,0.1,1.1,0.2,1.5c0.1,0.6,0.2,1.1,0.2,1.6c0,1.4-0.6,2.1-1.5,2.4l0,0c1,0.3,1.6,1,1.5,2.4
				c0,0.6-0.1,1.2-0.2,1.6c-0.1,0.6-0.2,1.1-0.2,1.5c0,1.2,0.5,1.9,1.7,1.9h0.4v1.2h-0.5c-1.8,0-3.2-0.8-3.2-3
				c0-0.6,0.1-1.2,0.2-1.8c0.1-0.6,0.2-1.2,0.2-1.8c0-0.7-0.2-1.6-1.8-1.6V275.5z"/>
		</g>
		<g id="XMLID_6_">
			<path d="M-421.2,276.6c-1.5,0-1.8,1-1.8,1.6c0,0.6,0.1,1.2,0.2,1.8c0.1,0.6,0.2,1.2,0.2,1.8c0,2.2-1.3,3-3.2,3h-0.5v-1.2h0.4
				c1.2,0,1.7-0.7,1.7-1.9c0-0.5-0.1-1.1-0.2-1.5c-0.1-0.5-0.2-1.1-0.2-1.6c0-1.4,0.6-2.1,1.5-2.4l0,0c-1-0.3-1.5-1-1.5-2.4
				c0-0.6,0.1-1.2,0.2-1.6c0.1-0.5,0.2-1.1,0.2-1.5c0-1.2-0.5-1.8-1.7-1.9h-0.4v-1.2h0.5c1.8,0,3.2,0.9,3.2,2.9
				c0,0.6-0.1,1.2-0.2,1.8c-0.1,0.6-0.2,1.2-0.2,1.8c0,0.8,0.2,1.6,1.8,1.6V276.6z"/>
		</g>
	</g>
</g>
</svg>
