<svg xmlns="http://www.w3.org/2000/svg" viewBox="-440 239.8 78.8 82.2" enable-background="new -440 239.8 78.8 82.2"><style type="text/css">.st0{fill:white;}</style><path id="XMLID_271_" d="M-415.1 255.5h5.4v.4h-5.4z" class="st0"/><path id="XMLID_270_" d="M-412.5 256.8h5.4v.4h-5.4z" class="st0"/><path id="XMLID_268_" d="M-409.6 258.1h9.7v.4h-9.7z" class="st0"/><path id="XMLID_267_" d="M-407 259.4h2.1v.4h-2.1z" class="st0"/><path id="XMLID_266_" d="M-403.9 260.7h9.7v.4h-9.7z" class="st0"/><path id="XMLID_265_" d="M-407 262h2.1v.4h-2.1z" class="st0"/><path id="XMLID_264_" d="M-407 269.9h2.1v.4h-2.1z" class="st0"/><path id="XMLID_263_" d="M-407 263.4h9.7v.4h-9.7z" class="st0"/><path id="XMLID_262_" d="M-404.5 264.7h13.7v.4h-13.7z" class="st0"/><path id="XMLID_261_" d="M-404.5 266h16.6v.4h-16.6z" class="st0"/><path id="XMLID_257_" d="M-404.5 267.3h13.7v.4h-13.7z" class="st0"/><path id="XMLID_256_" d="M-404.5 268.6h15v.4h-15z" class="st0"/><path id="XMLID_255_" d="M-409.5 271.2h2.1v.4h-2.1z" class="st0"/><path id="XMLID_253_" d="M-412.6 272.5h3v.4h-3z" class="st0"/><path id="XMLID_252_" d="M-411.4 273.8h5.7v.4h-5.7z" class="st0"/><path id="XMLID_251_" d="M-409.6 275.1h10.1v.4h-10.1z" class="st0"/><path id="XMLID_247_" d="M-406.7 276.4h10.1v.4h-10.1z" class="st0"/><path id="XMLID_246_" d="M-404.1 277.7h13.3v.4h-13.3z" class="st0"/><path id="XMLID_241_" d="M-404.1 279h12.2v.4h-12.2z" class="st0"/><path id="XMLID_240_" d="M-407 280.4h2.8v.4h-2.8z" class="st0"/><path id="XMLID_96_" d="M-409.6 281.7h2.5v.4h-2.5z" class="st0"/><circle id="XMLID_95_" cx="-416.2" cy="251.8" r=".5" class="st0"/><circle id="XMLID_94_" cx="-414.8" cy="251.8" r=".5" class="st0"/><path id="XMLID_24_" d="M-413.5 283h5.4v.4h-5.4z" class="st0"/><path id="XMLID_23_" d="M-411 284.3h5.4v.4h-5.4z" class="st0"/><path id="XMLID_22_" d="M-408.1 285.6h9.7v.4h-9.7z" class="st0"/><path id="XMLID_21_" d="M-405.5 286.9h2.1v.4h-2.1z" class="st0"/><path id="XMLID_20_" d="M-402.4 288.2h9.7v.4h-9.7z" class="st0"/><path id="XMLID_19_" d="M-405.5 289.5h2.1v.4h-2.1z" class="st0"/><path id="XMLID_18_" d="M-405.5 297.3h2.1v.4h-2.1z" class="st0"/><path id="XMLID_17_" d="M-405.5 290.8h9.7v.4h-9.7z" class="st0"/><path id="XMLID_16_" d="M-403 292.1h13.7v.4H-403z" class="st0"/><path id="XMLID_15_" d="M-403 293.4h16.6v.4H-403z" class="st0"/><path id="XMLID_14_" d="M-403 294.7h13.7v.4H-403z" class="st0"/><path id="XMLID_13_" d="M-403 296h15v.4h-15z" class="st0"/><path id="XMLID_12_" d="M-407.9 298.7h2.1v.4h-2.1z" class="st0"/><path id="XMLID_11_" d="M-411 300h3v.4h-3z" class="st0"/><path id="XMLID_10_" d="M-409.8 301.3h5.7v.4h-5.7z" class="st0"/><path id="XMLID_9_" d="M-408 302.6h10.1v.4H-408z" class="st0"/><path id="XMLID_8_" d="M-405.2 303.9h10.1v.4h-10.1z" class="st0"/><path id="XMLID_7_" d="M-402.5 305.2h13.3v.4h-13.3z" class="st0"/><path id="XMLID_5_" d="M-402.5 306.5h12.2v.4h-12.2z" class="st0"/><path id="XMLID_3_" d="M-405.5 307.8h2.8v.4h-2.8z" class="st0"/><path id="XMLID_1_" d="M-408 309.1h2.5v.4h-2.5z" class="st0"/></svg>