<?xml version="1.0" encoding="utf-8"?>
<!-- Generator: Adobe Illustrator 19.0.0, SVG Export Plug-In . SVG Version: 6.00 Build 0)  -->
<svg version="1.1" id="Ebene_1" xmlns="http://www.w3.org/2000/svg" xmlns:xlink="http://www.w3.org/1999/xlink" x="0px" y="0px"
	 viewBox="-440 239.8 78.8 82.2" style="enable-background:new -440 239.8 78.8 82.2;" xml:space="preserve">
<style type="text/css">
	.st0{fill:white;}
</style>
<g>
	<rect id="XMLID_271_" x="-415.1" y="255.5" class="st0" width="5.4" height="0.4"/>
	<rect id="XMLID_270_" x="-412.5" y="256.8" class="st0" width="5.4" height="0.4"/>
	<rect id="XMLID_268_" x="-409.6" y="258.1" class="st0" width="9.7" height="0.4"/>
	<rect id="XMLID_267_" x="-407" y="259.4" class="st0" width="2.1" height="0.4"/>
	<rect id="XMLID_266_" x="-403.9" y="260.7" class="st0" width="9.7" height="0.4"/>
	<rect id="XMLID_265_" x="-407" y="262" class="st0" width="2.1" height="0.4"/>
	<rect id="XMLID_264_" x="-407" y="269.9" class="st0" width="2.1" height="0.4"/>
	<rect id="XMLID_263_" x="-407" y="263.4" class="st0" width="9.7" height="0.4"/>
	<rect id="XMLID_262_" x="-404.5" y="264.7" class="st0" width="13.7" height="0.4"/>
	<rect id="XMLID_261_" x="-404.5" y="266" class="st0" width="16.6" height="0.4"/>
	<rect id="XMLID_257_" x="-404.5" y="267.3" class="st0" width="13.7" height="0.4"/>
	<rect id="XMLID_256_" x="-404.5" y="268.6" class="st0" width="15" height="0.4"/>
	<rect id="XMLID_255_" x="-409.5" y="271.2" class="st0" width="2.1" height="0.4"/>
	<rect id="XMLID_253_" x="-412.6" y="272.5" class="st0" width="3" height="0.4"/>
	<rect id="XMLID_252_" x="-411.4" y="273.8" class="st0" width="5.7" height="0.4"/>
	<rect id="XMLID_251_" x="-409.6" y="275.1" class="st0" width="10.1" height="0.4"/>
	<rect id="XMLID_247_" x="-406.7" y="276.4" class="st0" width="10.1" height="0.4"/>
	<rect id="XMLID_246_" x="-404.1" y="277.7" class="st0" width="13.3" height="0.4"/>
	<rect id="XMLID_241_" x="-404.1" y="279" class="st0" width="12.2" height="0.4"/>
	<rect id="XMLID_240_" x="-407" y="280.4" class="st0" width="2.8" height="0.4"/>
	<rect id="XMLID_96_" x="-409.6" y="281.7" class="st0" width="2.5" height="0.4"/>
	<circle id="XMLID_95_" class="st0" cx="-416.2" cy="251.8" r="0.5"/>
	<circle id="XMLID_94_" class="st0" cx="-414.8" cy="251.8" r="0.5"/>
	<rect id="XMLID_24_" x="-413.5" y="283" class="st0" width="5.4" height="0.4"/>
	<rect id="XMLID_23_" x="-411" y="284.3" class="st0" width="5.4" height="0.4"/>
	<rect id="XMLID_22_" x="-408.1" y="285.6" class="st0" width="9.7" height="0.4"/>
	<rect id="XMLID_21_" x="-405.5" y="286.9" class="st0" width="2.1" height="0.4"/>
	<rect id="XMLID_20_" x="-402.4" y="288.2" class="st0" width="9.7" height="0.4"/>
	<rect id="XMLID_19_" x="-405.5" y="289.5" class="st0" width="2.1" height="0.4"/>
	<rect id="XMLID_18_" x="-405.5" y="297.3" class="st0" width="2.1" height="0.4"/>
	<rect id="XMLID_17_" x="-405.5" y="290.8" class="st0" width="9.7" height="0.4"/>
	<rect id="XMLID_16_" x="-403" y="292.1" class="st0" width="13.7" height="0.4"/>
	<rect id="XMLID_15_" x="-403" y="293.4" class="st0" width="16.6" height="0.4"/>
	<rect id="XMLID_14_" x="-403" y="294.7" class="st0" width="13.7" height="0.4"/>
	<rect id="XMLID_13_" x="-403" y="296" class="st0" width="15" height="0.4"/>
	<rect id="XMLID_12_" x="-407.9" y="298.7" class="st0" width="2.1" height="0.4"/>
	<rect id="XMLID_11_" x="-411" y="300" class="st0" width="3" height="0.4"/>
	<rect id="XMLID_10_" x="-409.8" y="301.3" class="st0" width="5.7" height="0.4"/>
	<rect id="XMLID_9_" x="-408" y="302.6" class="st0" width="10.1" height="0.4"/>
	<rect id="XMLID_8_" x="-405.2" y="303.9" class="st0" width="10.1" height="0.4"/>
	<rect id="XMLID_7_" x="-402.5" y="305.2" class="st0" width="13.3" height="0.4"/>
	<rect id="XMLID_5_" x="-402.5" y="306.5" class="st0" width="12.2" height="0.4"/>
	<rect id="XMLID_3_" x="-405.5" y="307.8" class="st0" width="2.8" height="0.4"/>
	<rect id="XMLID_1_" x="-408" y="309.1" class="st0" width="2.5" height="0.4"/>
</g>
</svg>
