<svg xmlns="http://www.w3.org/2000/svg" viewBox="-453 254.5 52.5 52.5" enable-background="new -453 254.5 52.5 52.5"><style type="text/css">.st0{fill:#00afb0;}</style><path id="XMLID_1467_" d="M-402.6 289.9c.5-1.4.9-3 1.2-4.5l-4.5-1.5c.1-.9.2-1.8.2-2.7 0-.9-.1-1.9-.2-2.8l4.5-1.5c-.3-1.6-.7-3.1-1.2-4.5l-4.6.9c-.7-1.7-1.6-3.3-2.8-4.8l3.1-3.6c-1-1.2-2.1-2.3-3.3-3.3l-3.6 3.1c-1.5-1.1-3.1-2.1-4.8-2.8l.9-4.6c-1.4-.5-3-.9-4.5-1.2l-1.5 4.5c-.9-.1-1.8-.2-2.7-.2-.9 0-1.9.1-2.8.2l-1.5-4.5c-1.6.3-3.1.7-4.5 1.2l.9 4.6c-1.7.7-3.3 1.6-4.8 2.8l-3.6-3.1c-1.2 1-2.3 2.1-3.3 3.3l3.1 3.6c-1.1 1.5-2.1 3.1-2.8 4.8l-4.6-.9c-.5 1.4-.9 3-1.2 4.5l4.5 1.5c-.1.9-.2 1.8-.2 2.7 0 .9.1 1.9.2 2.8l-4.5 1.5c.3 1.6.7 3.1 1.2 4.5l4.6-.9c.7 1.7 1.6 3.3 2.8 4.8l-3.1 3.6c1 1.2 2.1 2.3 3.3 3.3l3.6-3.1c1.5 1.1 3.1 2.1 4.8 2.8l-.9 4.6c1.4.5 3 .9 4.5 1.2l1.5-4.5c.9.1 1.8.2 2.7.2.9 0 1.9-.1 2.8-.2l1.5 4.5c1.6-.3 3.1-.7 4.5-1.2l-.9-4.6c1.7-.7 3.3-1.6 4.8-2.8l3.6 3.1c1.2-1 2.3-2.1 3.3-3.3l-3.1-3.6c1.1-1.5 2.1-3.1 2.8-4.8l4.6.9zm-23.8 3.2c-6.6 0-12-5.4-12-12s5.4-12 12-12 12 5.4 12 12-5.4 12-12 12z" class="st0"/></svg>