<?xml version="1.0" encoding="utf-8"?>
<!-- Generator: Adobe Illustrator 19.0.0, SVG Export Plug-In . SVG Version: 6.00 Build 0)  -->
<svg version="1.1" id="Ebene_1" xmlns="http://www.w3.org/2000/svg" xmlns:xlink="http://www.w3.org/1999/xlink" x="0px" y="0px"
	 viewBox="-453 254.5 52.5 52.5" style="enable-background:new -453 254.5 52.5 52.5;" xml:space="preserve">
<style type="text/css">
	.st0{fill:#1e8693;}
</style>
<path class="st0" id="XMLID_1467_" d="M-402.6,289.9c0.5-1.4,0.9-3,1.2-4.5l-4.5-1.5c0.1-0.9,0.2-1.8,0.2-2.7c0-0.9-0.1-1.9-0.2-2.8l4.5-1.5
	c-0.3-1.6-0.7-3.1-1.2-4.5l-4.6,0.9c-0.7-1.7-1.6-3.3-2.8-4.8l3.1-3.6c-1-1.2-2.1-2.3-3.3-3.3l-3.6,3.1c-1.5-1.1-3.1-2.1-4.8-2.8
	l0.9-4.6c-1.4-0.5-3-0.9-4.5-1.2l-1.5,4.5c-0.9-0.1-1.8-0.2-2.7-0.2c-0.9,0-1.9,0.1-2.8,0.2l-1.5-4.5c-1.6,0.3-3.1,0.7-4.5,1.2
	l0.9,4.6c-1.7,0.7-3.3,1.6-4.8,2.8l-3.6-3.1c-1.2,1-2.3,2.1-3.3,3.3l3.1,3.6c-1.1,1.5-2.1,3.1-2.8,4.8l-4.6-0.9
	c-0.5,1.4-0.9,3-1.2,4.5l4.5,1.5c-0.1,0.9-0.2,1.8-0.2,2.7c0,0.9,0.1,1.9,0.2,2.8l-4.5,1.5c0.3,1.6,0.7,3.1,1.2,4.5l4.6-0.9
	c0.7,1.7,1.6,3.3,2.8,4.8l-3.1,3.6c1,1.2,2.1,2.3,3.3,3.3l3.6-3.1c1.5,1.1,3.1,2.1,4.8,2.8l-0.9,4.6c1.4,0.5,3,0.9,4.5,1.2l1.5-4.5
	c0.9,0.1,1.8,0.2,2.7,0.2c0.9,0,1.9-0.1,2.8-0.2l1.5,4.5c1.6-0.3,3.1-0.7,4.5-1.2l-0.9-4.6c1.7-0.7,3.3-1.6,4.8-2.8l3.6,3.1
	c1.2-1,2.3-2.1,3.3-3.3l-3.1-3.6c1.1-1.5,2.1-3.1,2.8-4.8L-402.6,289.9z M-426.4,293.1c-6.6,0-12-5.4-12-12s5.4-12,12-12
	s12,5.4,12,12S-419.8,293.1-426.4,293.1z"/>
</svg>
