<?xml version="1.0" encoding="utf-8"?>
<!-- Generator: Adobe Illustrator 19.0.0, SVG Export Plug-In . SVG Version: 6.00 Build 0)  -->
<svg version="1.1" id="Ebene_1" xmlns="http://www.w3.org/2000/svg" xmlns:xlink="http://www.w3.org/1999/xlink" x="0px" y="0px"
	 viewBox="-907.7 512 25.1 50" style="enable-background:new -466 256 25.1 50;" xml:space="preserve">
<g>
	<path fill="#004883" d="M-882.5,512.1c0,0.2,0,0.4,0,0.6c0,2.5,0,5,0,7.4c0,0.2,0,0.4,0,0.6c-0.4,0-0.8,0-1.2,0c-1.9,0-3.8,0-5.7,0.1
		c-0.3,0-0.6,0.1-0.9,0.1c-0.9,0.2-1.4,0.8-1.5,1.7c-0.1,1.4-0.1,2.7-0.1,4.1c0,0.6,0,1.1,0,1.7c3.2,0,6.3,0,9.4,0
		c-0.3,2.9-0.6,5.7-0.9,8.6c-2.8,0-5.6,0-8.5,0c0,8.3,0,16.7,0,25c-3.2,0-6.3,0-9.4,0c0-8.3,0-16.6,0-25c-2.1,0-4.2,0-6.3,0
		c0-2.9,0-5.7,0-8.6c2.1,0,4.1,0,6.3,0c0-0.2,0-0.4,0-0.6c0-2.4,0-4.7,0.1-7.1c0.1-1.5,0.4-2.9,1-4.2c1.1-2.3,2.9-3.5,5.3-4.1
		c0.8-0.2,1.5-0.3,2.3-0.4C-889.2,512.1-885.9,512.1-882.5,512.1z"/>
</g>
</svg>
