<svg xmlns="http://www.w3.org/2000/svg" xmlns:xlink="http://www.w3.org/1999/xlink" viewBox="0 0 681 509"><defs><style>.a009ce4b-7557-4139-9deb-88bc3934670b,.b4cb64f9-4179-4acc-8607-a105dca21f61{fill:none;}.f0a57c5e-f503-4ec2-8ce4-b46a8c8b892a{fill:#102d45;}.b9a33f66-7141-45f5-a05d-d80adc3ecc37{clip-path:url(#a51a8f04-a795-4cf5-bf4f-44a9aa20abb7);}.a7d7e521-1753-4f81-9baf-745bade78d02{fill:url(#b8e554b2-6197-4765-8248-193e6411a460);}.bc67734a-6172-4e2c-b51b-be71ef1f2589{clip-path:url(#baaf0c78-91f9-4bae-a9b0-0a57bc9b7422);}.fbd22eb0-9581-410c-86fe-f2492844f63d{fill:url(#f1dac1dc-3128-42b8-a6a4-5aeac61dd85c);}.bb245d69-2eca-470b-8dec-aa1dd6d1e30b{clip-path:url(#b1c9615b-92dd-4598-9392-90782d4218f4);}.ab0dc9a6-8688-424a-b0db-97807f1ee650,.b0b4b458-0974-4129-8b34-8a812a21fb61,.f166f250-0f81-406f-a7f4-71ed182218f6{opacity:0.28;}.ab0dc9a6-8688-424a-b0db-97807f1ee650,.b0b4b458-0974-4129-8b34-8a812a21fb61,.b44482bc-a7ce-409f-a0a5-6fa7c516a203,.b4cb64f9-4179-4acc-8607-a105dca21f61{isolation:isolate;}.b0b4b458-0974-4129-8b34-8a812a21fb61{fill:url(#e022969d-6a55-459a-b931-f10f0a3a2b45);}.b44482bc-a7ce-409f-a0a5-6fa7c516a203{opacity:0.3;fill:url(#f45aa016-992f-4efd-a4da-08226a06410a);}.b4cb64f9-4179-4acc-8607-a105dca21f61{stroke:#00b0b0;stroke-linecap:round;stroke-linejoin:round;opacity:0.2;}.ab0dc9a6-8688-424a-b0db-97807f1ee650{fill:url(#a187c6ba-840a-42de-bd30-f2d676d6f694);}.a16216cb-837a-49cf-afe6-aafc7fd6a5b6{fill:url(#bce5ca89-7e7f-4551-8479-7788d819282e);}.a8e3f81e-3918-494b-a828-5008bfd72903{fill:url(#bd453e0e-3853-4f46-8250-3c0937ed3e1e);}.f62296b9-49c9-4873-b264-0d6162d4fa38{fill:url(#b54310f2-c300-4b97-818f-103b94a35dd3);}.b401c3ed-b679-4a83-99e9-2263d13ec508{fill:url(#f24eb814-74fb-4af1-b2ec-bace289ad9f0);}.f2066077-57c8-4833-862a-f151742ddfce{fill:url(#b298a2e9-992f-4689-9b19-21375715f211);}.b36840c4-4137-48c4-9322-0aff97334f7d{fill:url(#e2870f32-c339-4efa-8ff1-9772c8562c22);}.fe23f3d8-7163-4853-a16f-ca5229b4e8aa{fill:url(#b71b4141-04c2-4b1b-bfb4-61f45ce41cbf);}.fab17235-70cd-49e1-bf89-a5ac0411314c{fill:url(#f16ad8d2-a476-477f-a52b-3348f932b52a);}.bdd42606-b4cc-42c7-b8d1-a8215dbf8733{fill:url(#b16e6c32-0ad6-4849-861a-9803b49f940f);}.aa42e3f1-ff63-455a-8784-09064e4d2f81{fill:url(#e81c6fa2-b51e-48aa-b943-9c7d1b60c9dc);}.b7a301e2-25e8-486a-b1cb-5f74208829f9{fill:url(#b1688855-4951-4fe2-8ec5-b8461636e436);}.b18b64e2-09b3-4a64-82ea-274fc221d6f0{fill:url(#b0885073-7467-4a15-903d-1312b3be09a2);}.bbba9a42-4040-4d27-bea1-df6f134bb074{fill:url(#e1440d08-b306-4753-9d64-1d3b86113c5c);}.bce0e390-5b5c-48fd-99b5-bf6743b498b6{fill:url(#a5f6832b-f06b-43da-9c2e-1db4932d25d6);}.b7b800ab-ca8b-4c8b-9b36-ba605c8e2fb0{fill:url(#bf9db48a-e82a-4a76-b0f0-949600ac3986);}</style><clipPath id="a51a8f04-a795-4cf5-bf4f-44a9aa20abb7"><rect class="a009ce4b-7557-4139-9deb-88bc3934670b" x="58.002" y="385" width="22.77" height="22.77"/></clipPath><radialGradient id="b8e554b2-6197-4765-8248-193e6411a460" cx="57.0436" cy="668.3686" r="1.0001" gradientTransform="matrix(3.1406, 10.9381, 10.9381, -3.1406, -7420.5388, 1871.5246)" gradientUnits="userSpaceOnUse"><stop offset="0" stop-color="#69c6e1"/><stop offset="0.26" stop-color="#69c6e1"/><stop offset="0.35" stop-color="#61bbdb" stop-opacity="0.87"/><stop offset="0.54" stop-color="#4f9fcd" stop-opacity="0.53"/><stop offset="0.82" stop-color="#3074b6" stop-opacity="0"/></radialGradient><clipPath id="baaf0c78-91f9-4bae-a9b0-0a57bc9b7422"><rect class="a009ce4b-7557-4139-9deb-88bc3934670b" x="465" y="53" width="22.77" height="22.77"/></clipPath><radialGradient id="f1dac1dc-3128-42b8-a6a4-5aeac61dd85c" cx="57.0437" cy="668.3686" r="1.0001" gradientTransform="matrix(3.1406, 10.9381, 10.9381, -3.1406, -7013.541, 1539.5243)" xlink:href="#b8e554b2-6197-4765-8248-193e6411a460"/><clipPath id="b1c9615b-92dd-4598-9392-90782d4218f4"><rect class="a009ce4b-7557-4139-9deb-88bc3934670b" x="572.264" y="305" width="73" height="75"/></clipPath><radialGradient id="e022969d-6a55-459a-b931-f10f0a3a2b45" cx="48.0281" cy="673.7569" r="1.0003" gradientTransform="matrix(10.069, 36.4786, 35.3938, -9.7696, -23722.2025, 5173.2495)" gradientUnits="userSpaceOnUse"><stop offset="0" stop-color="#66b330"/><stop offset="0.26" stop-color="#66b330"/><stop offset="0.38" stop-color="#65b232" stop-opacity="0.98"/><stop offset="0.47" stop-color="#62b036" stop-opacity="0.93"/><stop offset="0.54" stop-color="#5eaa43" stop-opacity="0.85"/><stop offset="0.61" stop-color="#55a152" stop-opacity="0.72"/><stop offset="0.67" stop-color="#4e9769" stop-opacity="0.57"/><stop offset="0.73" stop-color="#458b83" stop-opacity="0.37"/><stop offset="0.79" stop-color="#397ca2" stop-opacity="0.15"/><stop offset="0.82" stop-color="#3074b6" stop-opacity="0"/></radialGradient><radialGradient id="f45aa016-992f-4efd-a4da-08226a06410a" cx="41.6163" cy="676.069" r="1" gradientTransform="matrix(18.9235, -65.9071, -65.9071, -18.9235, 44171.3228, 15787.1993)" gradientUnits="userSpaceOnUse"><stop offset="0" stop-color="#69c6e1"/><stop offset="0.13" stop-color="#68c5e0" stop-opacity="0.98"/><stop offset="0.24" stop-color="#66c1de" stop-opacity="0.94"/><stop offset="0.35" stop-color="#61bbdc" stop-opacity="0.86"/><stop offset="0.45" stop-color="#59b1d6" stop-opacity="0.75"/><stop offset="0.55" stop-color="#52a5d0" stop-opacity="0.6"/><stop offset="0.65" stop-color="#4895c8" stop-opacity="0.42"/><stop offset="0.74" stop-color="#3b85c0" stop-opacity="0.22"/><stop offset="0.82" stop-color="#3074b6" stop-opacity="0"/></radialGradient><radialGradient id="a187c6ba-840a-42de-bd30-f2d676d6f694" cx="48.0281" cy="673.7569" r="1.0003" gradientTransform="matrix(10.069, 36.4786, 35.3939, -9.7696, -23912.138, 5250.4869)" xlink:href="#e022969d-6a55-459a-b931-f10f0a3a2b45"/><radialGradient id="bce5ca89-7e7f-4551-8479-7788d819282e" cx="30.67" cy="682.923" r="1.0001" gradientTransform="matrix(-2.3519, -11.1343, -11.1343, 2.3519, 8126.5593, -944.5043)" xlink:href="#b8e554b2-6197-4765-8248-193e6411a460"/><radialGradient id="bd453e0e-3853-4f46-8250-3c0937ed3e1e" cx="61.4236" cy="665.7433" r="1" gradientTransform="matrix(2.3458, 8.1699, 8.1699, -2.3458, -5279.4652, 1427.3794)" xlink:href="#b8e554b2-6197-4765-8248-193e6411a460"/><radialGradient id="b54310f2-c300-4b97-818f-103b94a35dd3" cx="73.5381" cy="658.4817" r="1.0001" gradientTransform="matrix(1.3799, 4.8058, 4.8058, -1.3799, -3012.913, 679.2179)" xlink:href="#b8e554b2-6197-4765-8248-193e6411a460"/><radialGradient id="f24eb814-74fb-4af1-b2ec-bace289ad9f0" cx="73.5382" cy="658.4817" r="1.0001" gradientTransform="matrix(1.3799, 4.8058, 4.8058, -1.3799, -2672.808, 730.2179)" xlink:href="#b8e554b2-6197-4765-8248-193e6411a460"/><radialGradient id="b298a2e9-992f-4689-9b19-21375715f211" cx="80.8935" cy="654.0729" r="1.0001" gradientTransform="matrix(1.1039, 3.8447, 3.8447, -1.1039, -2101.7626, 638.0287)" xlink:href="#b8e554b2-6197-4765-8248-193e6411a460"/><radialGradient id="e2870f32-c339-4efa-8ff1-9772c8562c22" cx="80.8935" cy="654.0729" r="1.0001" gradientTransform="matrix(1.1039, 3.8447, 3.8447, -1.1039, -2081.7626, 882.0287)" xlink:href="#b8e554b2-6197-4765-8248-193e6411a460"/><radialGradient id="b71b4141-04c2-4b1b-bfb4-61f45ce41cbf" cx="80.8935" cy="654.0729" r="1.0001" gradientTransform="matrix(1.1039, 3.8447, 3.8447, -1.1039, -2247.7626, 774.0287)" xlink:href="#b8e554b2-6197-4765-8248-193e6411a460"/><radialGradient id="f16ad8d2-a476-477f-a52b-3348f932b52a" cx="80.8935" cy="654.0729" r="1.0001" gradientTransform="matrix(1.1039, 3.8447, 3.8447, -1.1039, -2129.7626, 778.0287)" xlink:href="#b8e554b2-6197-4765-8248-193e6411a460"/><radialGradient id="b16e6c32-0ad6-4849-861a-9803b49f940f" cx="80.8935" cy="654.0729" r="1.0001" gradientTransform="matrix(1.1039, 3.8447, 3.8447, -1.1039, -2057.7626, 778.0287)" xlink:href="#b8e554b2-6197-4765-8248-193e6411a460"/><radialGradient id="e81c6fa2-b51e-48aa-b943-9c7d1b60c9dc" cx="80.8935" cy="654.0729" r="1.0001" gradientTransform="matrix(1.1039, 3.8447, 3.8447, -1.1039, -2153.7626, 866.0287)" xlink:href="#b8e554b2-6197-4765-8248-193e6411a460"/><radialGradient id="b1688855-4951-4fe2-8ec5-b8461636e436" cx="80.8935" cy="654.0729" r="1.0001" gradientTransform="matrix(1.1039, 3.8447, 3.8447, -1.1039, -2225.7626, 843.0287)" xlink:href="#b8e554b2-6197-4765-8248-193e6411a460"/><radialGradient id="b0885073-7467-4a15-903d-1312b3be09a2" cx="80.8935" cy="654.0729" r="1.0001" gradientTransform="matrix(1.1039, 3.8447, 3.8447, -1.1039, -2325.7626, 897.0287)" xlink:href="#b8e554b2-6197-4765-8248-193e6411a460"/><radialGradient id="e1440d08-b306-4753-9d64-1d3b86113c5c" cx="80.8935" cy="654.0729" r="1.0001" gradientTransform="matrix(1.1039, 3.8447, 3.8447, -1.1039, -2452.0266, 743.0287)" xlink:href="#b8e554b2-6197-4765-8248-193e6411a460"/><radialGradient id="a5f6832b-f06b-43da-9c2e-1db4932d25d6" cx="80.8935" cy="654.0729" r="1.0001" gradientTransform="matrix(1.1039, 3.8447, 3.8447, -1.1039, -2444.0266, 834.0287)" xlink:href="#b8e554b2-6197-4765-8248-193e6411a460"/><radialGradient id="bf9db48a-e82a-4a76-b0f0-949600ac3986" cx="80.8935" cy="654.0729" r="1.0001" gradientTransform="matrix(1.1039, 3.8447, 3.8447, -1.1039, -2574.0262, 569.0287)" xlink:href="#b8e554b2-6197-4765-8248-193e6411a460"/></defs><g id="f1c4a09e-3e0a-4d1f-ace6-86763184be01" data-name="Ebene 2"><g id="fc509640-92fc-42ff-bbf3-7a941c77ccbc" data-name="Ebene 1"><rect class="f0a57c5e-f503-4ec2-8ce4-b46a8c8b892a" width="681" height="509"/><g class="b9a33f66-7141-45f5-a05d-d80adc3ecc37"><path class="a7d7e521-1753-4f81-9baf-745bade78d02" d="M69.382,407.76a11.38,11.38,0,1,0-11.38-11.38A11.38,11.38,0,0,0,69.382,407.76Z"/></g><g class="bc67734a-6172-4e2c-b51b-be71ef1f2589"><path class="fbd22eb0-9581-410c-86fe-f2492844f63d" d="M476.38,75.76A11.38,11.38,0,1,0,465,64.38,11.38,11.38,0,0,0,476.38,75.76Z"/></g><g class="bb245d69-2eca-470b-8dec-aa1dd6d1e30b"><g class="f166f250-0f81-406f-a7f4-71ed182218f6"><path class="b0b4b458-0974-4129-8b34-8a812a21fb61" d="M643.709,353.471c6.03-19.812-4.673-40.757-23.908-46.782s-39.716,5.152-45.747,24.963,4.673,40.757,23.908,46.782S637.678,373.282,643.709,353.471Z"/></g></g><path class="b44482bc-a7ce-409f-a0a5-6fa7c516a203" d="M467.001,269.754a68.57,68.57,0,1,0-84.83,46.984A68.5689,68.5689,0,0,0,467.001,269.754Z"/><path class="b4cb64f9-4179-4acc-8607-a105dca21f61" d="M547.264,368.001l-96.58-51.648m96.58,51.648L522.525,472.188m24.739-104.187L355.765,363m94.919-46.647-145.28-2.104L355.765,363m94.919-46.647,71.841,155.835M450.684,316.353,355.765,363m166.76,109.188L355.765,363m166.76,109.188L223.764,373.5l131.678-10.813"/><path class="ab0dc9a6-8688-424a-b0db-97807f1ee650" d="M453.837,430.691c6.031-19.812-4.672-40.757-23.907-46.782s-39.716,5.152-45.747,24.964,4.673,40.756,23.908,46.781S447.807,450.503,453.837,430.691Z"/><path class="a16216cb-837a-49cf-afe6-aafc7fd6a5b6" d="M451.238,308.812a11.38,11.38,0,1,0,10.539,12.163A11.38,11.38,0,0,0,451.238,308.812Z"/><path class="a8e3f81e-3918-494b-a828-5008bfd72903" d="M303.766,376a8.5,8.5,0,1,0-8.5-8.5A8.5005,8.5005,0,0,0,303.766,376Z"/><path class="f62296b9-49c9-4873-b264-0d6162d4fa38" d="M253.158,129a5,5,0,1,0-5-5A5,5,0,0,0,253.158,129Z"/><path class="b401c3ed-b679-4a83-99e9-2263d13ec508" d="M593.264,180a5,5,0,1,0-5-5A5.0005,5.0005,0,0,0,593.264,180Z"/><path class="f2066077-57c8-4833-862a-f151742ddfce" d="M502.264,231a4,4,0,1,0-4-4A4,4,0,0,0,502.264,231Z"/><path class="b36840c4-4137-48c4-9322-0aff97334f7d" d="M522.264,475a4,4,0,1,0-4-4A4,4,0,0,0,522.264,475Z"/><path class="fe23f3d8-7163-4853-a16f-ca5229b4e8aa" d="M356.264,367a4,4,0,1,0-4-4A4,4,0,0,0,356.264,367Z"/><path class="fab17235-70cd-49e1-bf89-a5ac0411314c" d="M474.264,371a4,4,0,1,0-4-4A4,4,0,0,0,474.264,371Z"/><path class="bdd42606-b4cc-42c7-b8d1-a8215dbf8733" d="M546.264,371a4,4,0,1,0-4-4A4,4,0,0,0,546.264,371Z"/><path class="aa42e3f1-ff63-455a-8784-09064e4d2f81" d="M450.264,459a4,4,0,1,0-4-4A4,4,0,0,0,450.264,459Z"/><path class="b7a301e2-25e8-486a-b1cb-5f74208829f9" d="M378.264,436a4,4,0,1,0-4-4A4,4,0,0,0,378.264,436Z"/><path class="b18b64e2-09b3-4a64-82ea-274fc221d6f0" d="M278.264,490a4,4,0,1,0-4-4A4,4,0,0,0,278.264,490Z"/><path class="bbba9a42-4040-4d27-bea1-df6f134bb074" d="M152,336a4,4,0,1,0-4-4A4,4,0,0,0,152,336Z"/><path class="bce0e390-5b5c-48fd-99b5-bf6743b498b6" d="M160,427a4,4,0,1,0-4-4A4,4,0,0,0,160,427Z"/><path class="b7b800ab-ca8b-4c8b-9b36-ba605c8e2fb0" d="M30,162a4,4,0,1,0-4-4A4,4,0,0,0,30,162Z"/></g></g></svg>