<svg xmlns="http://www.w3.org/2000/svg" xmlns:xlink="http://www.w3.org/1999/xlink" viewBox="0 0 1920 509"><defs><style>.be8d200d-fa46-4bf9-94b5-1cf8fc61f6f2{fill:#102d45;}.bc3ffae1-c5c7-4cb2-b94d-1648c11a6e7c{fill:url(#a3983f49-20fa-4c37-aa29-1e2a7e3aa564);}.e16144fb-592e-4ec0-a37c-4f0d87ea7abc,.f35cbd9a-836b-46b5-ae60-709030c25e78{isolation:isolate;}.f35cbd9a-836b-46b5-ae60-709030c25e78{opacity:0.3;fill:url(#b3d19d8c-3769-4571-9c2b-39dcb7dec5f8);}.a883e4d1-9a87-4927-bf1c-4664ed7af202{fill:url(#b7b2086c-21b6-4ce5-a0ef-1f039c98aab1);}.e16144fb-592e-4ec0-a37c-4f0d87ea7abc{opacity:0.6;fill:url(#bd2f8367-504d-4b42-bd44-b02afe9dbcff);}.ff4d6046-68ee-4d0e-8747-b34218ebb2de{fill:url(#bef21e73-bb81-4930-a9bd-98ba2b6b3c0a);}.a6e67583-f79e-4451-975e-d5338cb2631f{fill:url(#a1510151-92bd-4c08-8fbe-97ccbc09006a);}.ffc498fc-8c97-44e5-a618-fda2f4f9976e{fill:url(#b38aaf7b-2b26-418b-8b50-09a5be2a1b67);}.f0f1f18a-dd80-472d-862b-38c920cf62d1{fill:url(#f74fed37-895e-4595-a171-b763f49302af);}.b45a3913-c415-4c89-845c-831a6eecc565{fill:url(#b4a67a75-4ff0-4a59-819c-d3543303240c);}.bbeba279-ecc3-4daa-9d7d-d5f958b8496c{fill:url(#a573ba41-99f3-4323-bdf8-df743487a75f);}.fbd966c8-b459-409c-bb08-dd99c4e64d17{fill:url(#b57fee5e-2f17-437f-a172-36238e65cd8a);}.be944562-1f63-4e01-be9d-fc6e437f16c0{fill:url(#aa2d9d4a-f72e-422d-9995-cb2799aafd3b);}.a4f9c199-ee3b-4b87-9cca-fc49dc4b472d{fill:url(#bc992b00-ceb0-4054-987d-13cede29b682);}.bc7addcb-3b17-4ec2-85a1-19319484899a{fill:url(#b732cdaf-2da7-4138-b065-6c438b865f37);}.ba4b2807-65e6-4246-8aa0-698780334146{fill:url(#e7c8bbaf-21dd-47ca-8ad5-bc0887070a90);}.a8143b28-8d32-47a7-8029-3e21d410d8b5{fill:url(#e21fd64b-6816-4714-bcdb-4a2b7f84e20c);}.b504940b-9e4b-4529-b43a-237053242778{fill:url(#f47ca5dc-5405-452e-9d63-0d81040b8986);}.bdd86b4b-261a-4ac5-9903-5d2fc4c56422{fill:url(#a95c852d-2892-4844-8073-27d0f7aef197);}.e29f7eb7-78da-449f-ae96-3be27628c16f{fill:url(#adb3f04e-4e0f-4577-a161-f7699aeb1992);}</style><radialGradient id="a3983f49-20fa-4c37-aa29-1e2a7e3aa564" cx="0.8856" cy="841.7688" r="1" gradientTransform="matrix(1.3799, 4.8058, 4.8058, -1.3799, -2479.6675, 1246.285)" gradientUnits="userSpaceOnUse"><stop offset="0" stop-color="#69c6e1"/><stop offset="0.26" stop-color="#69c6e1"/><stop offset="0.35" stop-color="#61bbdb" stop-opacity="0.87"/><stop offset="0.54" stop-color="#4f9fcd" stop-opacity="0.53"/><stop offset="0.82" stop-color="#3074b6" stop-opacity="0"/></radialGradient><radialGradient id="b3d19d8c-3769-4571-9c2b-39dcb7dec5f8" cx="0.9572" cy="841.9828" r="1" gradientTransform="matrix(9.831, -34.2398, -34.2398, -9.831, 28908.973, 8370.4082)" gradientUnits="userSpaceOnUse"><stop offset="0" stop-color="#69c6e1"/><stop offset="0.13" stop-color="#68c5e0" stop-opacity="0.98"/><stop offset="0.24" stop-color="#66c1de" stop-opacity="0.94"/><stop offset="0.35" stop-color="#61bbdc" stop-opacity="0.86"/><stop offset="0.45" stop-color="#59b1d6" stop-opacity="0.75"/><stop offset="0.55" stop-color="#52a5d0" stop-opacity="0.6"/><stop offset="0.65" stop-color="#4895c8" stop-opacity="0.42"/><stop offset="0.74" stop-color="#3b85c0" stop-opacity="0.22"/><stop offset="0.82" stop-color="#3074b6" stop-opacity="0"/></radialGradient><radialGradient id="b7b2086c-21b6-4ce5-a0ef-1f039c98aab1" cx="0.9283" cy="841.8732" r="1.0001" gradientTransform="matrix(3.1406, 10.9381, 10.9381, -3.1406, -7963.1075, 2805.2206)" xlink:href="#a3983f49-20fa-4c37-aa29-1e2a7e3aa564"/><radialGradient id="bd2f8367-504d-4b42-bd44-b02afe9dbcff" cx="0.9429" cy="842.0017" r="1" gradientTransform="matrix(9.5, -17.5, -17.5, -9.5, 16494.0629, 8177.5045)" xlink:href="#a3983f49-20fa-4c37-aa29-1e2a7e3aa564"/><radialGradient id="bef21e73-bb81-4930-a9bd-98ba2b6b3c0a" cx="0.9283" cy="841.8732" r="1.0001" gradientTransform="matrix(3.1406, 10.9381, 10.9381, -3.1406, -8938.1105, 2954.2206)" xlink:href="#a3983f49-20fa-4c37-aa29-1e2a7e3aa564"/><radialGradient id="a1510151-92bd-4c08-8fbe-97ccbc09006a" cx="0.9283" cy="841.8732" r="1.0001" gradientTransform="matrix(3.1406, 10.9381, 10.9381, -3.1406, -8176.1075, 3114.2206)" xlink:href="#a3983f49-20fa-4c37-aa29-1e2a7e3aa564"/><radialGradient id="b38aaf7b-2b26-418b-8b50-09a5be2a1b67" cx="0.8855" cy="841.7688" r="1.0001" gradientTransform="matrix(1.3799, 4.8058, 4.8058, -1.3799, -3200.6675, 1429.2852)" xlink:href="#a3983f49-20fa-4c37-aa29-1e2a7e3aa564"/><radialGradient id="f74fed37-895e-4595-a171-b763f49302af" cx="0.8855" cy="841.7688" r="1.0001" gradientTransform="matrix(1.3799, 4.8058, 4.8058, -1.3799, -2837.6675, 1340.2852)" xlink:href="#a3983f49-20fa-4c37-aa29-1e2a7e3aa564"/><radialGradient id="b4a67a75-4ff0-4a59-819c-d3543303240c" cx="0.8855" cy="841.7688" r="1.0001" gradientTransform="matrix(1.3799, 4.8058, 4.8058, -1.3799, -3497.6675, 1506.2852)" xlink:href="#a3983f49-20fa-4c37-aa29-1e2a7e3aa564"/><radialGradient id="a573ba41-99f3-4323-bdf8-df743487a75f" cx="0.8856" cy="841.7688" r="1" gradientTransform="matrix(1.3799, 4.8058, 4.8058, -1.3799, -3666.6675, 1197.285)" xlink:href="#a3983f49-20fa-4c37-aa29-1e2a7e3aa564"/><radialGradient id="b57fee5e-2f17-437f-a172-36238e65cd8a" cx="0.8856" cy="841.7688" r="1" gradientTransform="matrix(1.3799, 4.8058, 4.8058, -1.3799, -3264.6675, 1227.285)" xlink:href="#a3983f49-20fa-4c37-aa29-1e2a7e3aa564"/><radialGradient id="aa2d9d4a-f72e-422d-9995-cb2799aafd3b" cx="0.8856" cy="841.7688" r="1" gradientTransform="matrix(1.3799, 4.8058, 4.8058, -1.3799, -3217.6675, 1207.285)" xlink:href="#a3983f49-20fa-4c37-aa29-1e2a7e3aa564"/><radialGradient id="bc992b00-ceb0-4054-987d-13cede29b682" cx="0.8855" cy="841.7688" r="1.0001" gradientTransform="matrix(1.3799, 4.8058, 4.8058, -1.3799, -2669.6675, 1604.2852)" xlink:href="#a3983f49-20fa-4c37-aa29-1e2a7e3aa564"/><radialGradient id="b732cdaf-2da7-4138-b065-6c438b865f37" cx="0.8855" cy="841.7688" r="1.0001" gradientTransform="matrix(1.3799, 4.8058, 4.8058, -1.3799, -2301.6675, 1550.2852)" xlink:href="#a3983f49-20fa-4c37-aa29-1e2a7e3aa564"/><radialGradient id="e7c8bbaf-21dd-47ca-8ad5-bc0887070a90" cx="0.8855" cy="841.7688" r="1.0001" gradientTransform="matrix(1.3799, 4.8058, 4.8058, -1.3799, -2273.6675, 1500.2852)" xlink:href="#a3983f49-20fa-4c37-aa29-1e2a7e3aa564"/><radialGradient id="e21fd64b-6816-4714-bcdb-4a2b7f84e20c" cx="0.8855" cy="841.7688" r="1.0001" gradientTransform="matrix(1.3799, 4.8058, 4.8058, -1.3799, -2171.6675, 1635.2852)" xlink:href="#a3983f49-20fa-4c37-aa29-1e2a7e3aa564"/><radialGradient id="f47ca5dc-5405-452e-9d63-0d81040b8986" cx="0.8856" cy="841.7688" r="1" gradientTransform="matrix(1.3799, 4.8058, 4.8058, -1.3799, -2176.6675, 1223.285)" xlink:href="#a3983f49-20fa-4c37-aa29-1e2a7e3aa564"/><radialGradient id="a95c852d-2892-4844-8073-27d0f7aef197" cx="0.8855" cy="841.7688" r="1.0001" gradientTransform="matrix(1.3799, 4.8058, 4.8058, -1.3799, -3733.6675, 1596.2852)" xlink:href="#a3983f49-20fa-4c37-aa29-1e2a7e3aa564"/><radialGradient id="adb3f04e-4e0f-4577-a161-f7699aeb1992" cx="0.8855" cy="841.7688" r="1.0001" gradientTransform="matrix(1.3799, 4.8058, 4.8058, -1.3799, -4010.667, 1639.2852)" xlink:href="#a3983f49-20fa-4c37-aa29-1e2a7e3aa564"/></defs><g id="b74f83ea-ad6a-4f1d-8b37-f036b25a4280" data-name="Ebene 2"><g id="b55b5208-6d0d-4b59-b7ac-e45249ade1a2" data-name="Ebene 1"><rect class="be8d200d-fa46-4bf9-94b5-1cf8fc61f6f2" width="1920" height="509"/><path class="bc3ffae1-c5c7-4cb2-b94d-1648c11a6e7c" d="M1567,94a5,5,0,1,0-5-5A5.0009,5.0009,0,0,0,1567,94Z"/><path class="f35cbd9a-836b-46b5-ae60-709030c25e78" d="M123.311,69.9018A35.6234,35.6234,0,1,0,79.24,94.3105,35.6238,35.6238,0,0,0,123.311,69.9018Z"/><path class="a883e4d1-9a87-4927-bf1c-4664ed7af202" d="M1248.38,182.76A11.38,11.38,0,1,0,1237,171.38,11.3768,11.3768,0,0,0,1248.38,182.76Z"/><path class="e16144fb-592e-4ec0-a37c-4f0d87ea7abc" d="M1788.48,163.149a20.2965,20.2965,0,1,0-21.21,19.343A20.295,20.295,0,0,0,1788.48,163.149Z"/><path class="ff4d6046-68ee-4d0e-8747-b34218ebb2de" d="M273.38,331.76A11.38,11.38,0,1,0,262,320.38,11.38,11.38,0,0,0,273.38,331.76Z"/><path class="a6e67583-f79e-4451-975e-d5338cb2631f" d="M1035.38,491.76A11.38,11.38,0,1,0,1024,480.38,11.3768,11.3768,0,0,0,1035.38,491.76Z"/><path class="ffc498fc-8c97-44e5-a618-fda2f4f9976e" d="M846,277a5,5,0,1,0-5-5A5.0005,5.0005,0,0,0,846,277Z"/><path class="f0f1f18a-dd80-472d-862b-38c920cf62d1" d="M1209,188a5,5,0,1,0-5-5A5.0012,5.0012,0,0,0,1209,188Z"/><path class="b45a3913-c415-4c89-845c-831a6eecc565" d="M549,354a5,5,0,1,0-5-5A5.0005,5.0005,0,0,0,549,354Z"/><path class="bbeba279-ecc3-4daa-9d7d-d5f958b8496c" d="M380,45a5,5,0,1,0-5-5A5,5,0,0,0,380,45Z"/><path class="fbd966c8-b459-409c-bb08-dd99c4e64d17" d="M782,75a5,5,0,1,0-5-5A5,5,0,0,0,782,75Z"/><path class="be944562-1f63-4e01-be9d-fc6e437f16c0" d="M829,55a5,5,0,1,0-5-5A5,5,0,0,0,829,55Z"/><path class="a4f9c199-ee3b-4b87-9cca-fc49dc4b472d" d="M1377,452a5,5,0,1,0-5-5A5.0012,5.0012,0,0,0,1377,452Z"/><path class="bc7addcb-3b17-4ec2-85a1-19319484899a" d="M1745,398a5,5,0,1,0-5-5A5.0012,5.0012,0,0,0,1745,398Z"/><path class="ba4b2807-65e6-4246-8aa0-698780334146" d="M1773,348a5,5,0,1,0-5-5A5.0012,5.0012,0,0,0,1773,348Z"/><path class="a8143b28-8d32-47a7-8029-3e21d410d8b5" d="M1875,483a5,5,0,1,0-5-5A5.0012,5.0012,0,0,0,1875,483Z"/><path class="b504940b-9e4b-4529-b43a-237053242778" d="M1870,71a5,5,0,1,0-5-5A5.0009,5.0009,0,0,0,1870,71Z"/><path class="bdd86b4b-261a-4ac5-9903-5d2fc4c56422" d="M313,444a5,5,0,1,0-5-5A5.0005,5.0005,0,0,0,313,444Z"/><path class="e29f7eb7-78da-449f-ae96-3be27628c16f" d="M36,487a5,5,0,1,0-5-5A5,5,0,0,0,36,487Z"/></g></g></svg>