<svg xmlns="http://www.w3.org/2000/svg" xmlns:xlink="http://www.w3.org/1999/xlink" viewBox="0 0 681 509"><defs><style>.a678be8e-b51d-49f0-a7d1-2e16936011e3,.f3170bd9-0d41-4f79-80fc-4425c97a15f5{fill:none;}.e79bea36-8b13-4d6f-a238-c58a8eaecc7b{fill:#102d45;}.a4a7ba82-2252-4bfc-b72c-4eef5eceadc9,.a678be8e-b51d-49f0-a7d1-2e16936011e3,.b591f0eb-46e5-495c-88c8-16a7b8218a26,.f781d175-1ac3-4782-b47c-2a26b2c33708{isolation:isolate;}.a4a7ba82-2252-4bfc-b72c-4eef5eceadc9{opacity:0.3;fill:url(#aa54ee67-6e49-47c2-b93e-58515c44db69);}.b5086450-178e-4b4e-a01c-ae1f4ffd4d45{clip-path:url(#a0335a27-5228-440d-a96f-aaf9c4913dde);}.b591f0eb-46e5-495c-88c8-16a7b8218a26,.b6ca5bb7-4a32-4e73-a690-789d1c77b9e4,.f781d175-1ac3-4782-b47c-2a26b2c33708{opacity:0.28;}.f781d175-1ac3-4782-b47c-2a26b2c33708{fill:url(#a4e90424-7bac-41b5-babb-88b8d2a06eb1);}.af9d9623-c690-4d7e-b19d-a5d6c2bef034{fill:url(#f9016814-5140-46aa-bc09-a9c5ac384548);}.ae2378d4-a83e-40c6-8fae-3dbb757d9365{fill:url(#b203c344-859b-4688-8b6b-d0c8c0b3f19d);}.b0518c00-a834-49ca-86cf-1420d016f0e4{fill:url(#b7275ea2-cdf1-4d10-9f1f-71817fdad5a6);}.b591f0eb-46e5-495c-88c8-16a7b8218a26{fill:url(#a13270d5-8097-4fa9-ad6c-02ac688b1f4e);}.b5ca0901-e48b-4b24-b9f5-59208a711a85{fill:url(#e2b275bb-77f9-469c-aa6f-b2814be8e930);}.e840b207-49f4-4186-ac7a-f764f9afabac{fill:url(#ffa33dac-3cea-4491-92f3-71e03eb2324d);}.a5b98b1a-cd6b-460b-acfb-b13d5fa6b229{fill:url(#b0efc96b-4370-47ce-a179-e121ddf2278e);}.aee715fe-e255-496f-b45d-f6938825cbe8,.b1bd9c98-d8e1-4d4c-a6a3-7015c2be4bce{fill-opacity:0.4;}.b1bd9c98-d8e1-4d4c-a6a3-7015c2be4bce{fill:url(#a329fa16-8192-481a-89d7-8a5ebff7b39f);}.aee715fe-e255-496f-b45d-f6938825cbe8{fill:url(#baf60204-3319-4e0a-87a3-a348a476a8c4);}.e2030ce9-b86f-4261-b185-9897356c564e{fill:url(#f4564b0f-ce83-4953-a618-09d8d2fc6f7a);}.a678be8e-b51d-49f0-a7d1-2e16936011e3{stroke:#00b0b0;stroke-linecap:round;stroke-linejoin:round;opacity:0.4;}.a806b63f-083e-47ce-b635-4fe10dc401f3{fill:url(#a5725c29-c9cf-446e-a0de-cc2245d1086d);}.ba33ed67-1fe7-4fe2-96f2-900d8b13c7d7{fill:url(#b2e66de2-080e-4ed2-8168-d7f0c924797c);}.a5e7ea01-a8b8-48d5-851f-94517727b877{fill:url(#b9db08f1-fe77-472c-a492-a7034c1bc705);}.e35d4669-2d68-4382-8627-288c5fea30d6{fill:url(#aa5e47b4-ffb6-4078-a4c0-10d7a0650abe);}</style><radialGradient id="aa54ee67-6e49-47c2-b93e-58515c44db69" cx="41.3304" cy="676.8483" r="1" gradientTransform="matrix(0.2239, -59.5309, -59.5309, -0.2239, 40433.0305, 3039.6337)" gradientUnits="userSpaceOnUse"><stop offset="0" stop-color="#69c6e1"/><stop offset="0.13" stop-color="#68c5e0" stop-opacity="0.98"/><stop offset="0.24" stop-color="#66c1de" stop-opacity="0.94"/><stop offset="0.35" stop-color="#61bbdc" stop-opacity="0.86"/><stop offset="0.45" stop-color="#59b1d6" stop-opacity="0.75"/><stop offset="0.55" stop-color="#52a5d0" stop-opacity="0.6"/><stop offset="0.65" stop-color="#4895c8" stop-opacity="0.42"/><stop offset="0.74" stop-color="#3b85c0" stop-opacity="0.22"/><stop offset="0.82" stop-color="#3074b6" stop-opacity="0"/></radialGradient><clipPath id="a0335a27-5228-440d-a96f-aaf9c4913dde"><rect class="f3170bd9-0d41-4f79-80fc-4425c97a15f5" x="428.266" y="365" width="73" height="75"/></clipPath><radialGradient id="a4e90424-7bac-41b5-babb-88b8d2a06eb1" cx="48.0281" cy="673.7569" r="1.0003" gradientTransform="matrix(10.069, 36.4786, 35.3938, -9.7696, -23866.2005, 5233.2495)" gradientUnits="userSpaceOnUse"><stop offset="0" stop-color="#66b330"/><stop offset="0.26" stop-color="#66b330"/><stop offset="0.38" stop-color="#65b232" stop-opacity="0.98"/><stop offset="0.47" stop-color="#62b036" stop-opacity="0.93"/><stop offset="0.54" stop-color="#5eaa43" stop-opacity="0.85"/><stop offset="0.61" stop-color="#55a152" stop-opacity="0.72"/><stop offset="0.67" stop-color="#4e9769" stop-opacity="0.57"/><stop offset="0.73" stop-color="#458b83" stop-opacity="0.37"/><stop offset="0.79" stop-color="#397ca2" stop-opacity="0.15"/><stop offset="0.82" stop-color="#3074b6" stop-opacity="0"/></radialGradient><radialGradient id="f9016814-5140-46aa-bc09-a9c5ac384548" cx="57.0436" cy="668.3686" r="1.0001" gradientTransform="matrix(3.1406, 10.9381, 10.9381, -3.1406, -7243.275, 1655.5246)" gradientUnits="userSpaceOnUse"><stop offset="0" stop-color="#69c6e1"/><stop offset="0.26" stop-color="#69c6e1"/><stop offset="0.35" stop-color="#61bbdb" stop-opacity="0.87"/><stop offset="0.54" stop-color="#4f9fcd" stop-opacity="0.53"/><stop offset="0.82" stop-color="#3074b6" stop-opacity="0"/></radialGradient><radialGradient id="b203c344-859b-4688-8b6b-d0c8c0b3f19d" cx="73.5382" cy="658.4817" r="1" gradientTransform="matrix(1.3799, 4.8058, 4.8058, -1.3799, -2707.072, 616.2177)" xlink:href="#f9016814-5140-46aa-bc09-a9c5ac384548"/><radialGradient id="b7275ea2-cdf1-4d10-9f1f-71817fdad5a6" cx="73.5381" cy="658.4817" r="1.0001" gradientTransform="matrix(1.3799, 4.8058, 4.8058, -1.3799, -2863.911, 720.2179)" xlink:href="#f9016814-5140-46aa-bc09-a9c5ac384548"/><radialGradient id="a13270d5-8097-4fa9-ad6c-02ac688b1f4e" cx="50.7813" cy="676.4588" r="1.0003" gradientTransform="matrix(-7.8464, 24.4769, 23.806, 7.6314, -15455.2489, -6123.0277)" xlink:href="#a4e90424-7bac-41b5-babb-88b8d2a06eb1"/><radialGradient id="e2b275bb-77f9-469c-aa6f-b2814be8e930" cx="58.9726" cy="677.1332" r="1.0002" gradientTransform="matrix(-3.7006, 10.9086, 10.649, 3.6126, -6903.5865, -2846.1313)" xlink:href="#f9016814-5140-46aa-bc09-a9c5ac384548"/><radialGradient id="ffa33dac-3cea-4491-92f3-71e03eb2324d" cx="74.488" cy="678.1945" r="1.0001" gradientTransform="matrix(-1.8101, 5.3359, 5.2089, 1.7671, -3279.7086, -1324.6417)" xlink:href="#f9016814-5140-46aa-bc09-a9c5ac384548"/><radialGradient id="b0efc96b-4370-47ce-a179-e121ddf2278e" cx="58.9703" cy="677.1352" r="1.0002" gradientTransform="matrix(-3.7025, 10.9097, 10.6471, 3.6134, -6822.7126, -2769.7239)" xlink:href="#f9016814-5140-46aa-bc09-a9c5ac384548"/><radialGradient id="a329fa16-8192-481a-89d7-8a5ebff7b39f" cx="58.9702" cy="677.1355" r="1.0002" gradientTransform="matrix(-3.7027, 10.9097, 10.6469, 3.6135, -6876.9452, -2771.7007)" xlink:href="#f9016814-5140-46aa-bc09-a9c5ac384548"/><radialGradient id="baf60204-3319-4e0a-87a3-a348a476a8c4" cx="59.1635" cy="676.9762" r="1.0001" gradientTransform="matrix(-3.5519, 10.8115, 10.8115, 3.5519, -6870.7291, -2652.2147)" xlink:href="#f9016814-5140-46aa-bc09-a9c5ac384548"/><radialGradient id="f4564b0f-ce83-4953-a618-09d8d2fc6f7a" cx="58.9704" cy="677.1352" r="1.0002" gradientTransform="matrix(-3.7025, 10.9097, 10.6472, 3.6134, -6861.4399, -2942.3315)" xlink:href="#f9016814-5140-46aa-bc09-a9c5ac384548"/><radialGradient id="a5725c29-c9cf-446e-a0de-cc2245d1086d" cx="23.9415" cy="676.4076" r="1" gradientTransform="matrix(2.0698, -8.2441, -8.2441, -2.0698, 5703.7322, 1758.9639)" xlink:href="#f9016814-5140-46aa-bc09-a9c5ac384548"/><radialGradient id="b2e66de2-080e-4ed2-8168-d7f0c924797c" cx="62.5052" cy="665.0949" r="1.0001" gradientTransform="matrix(2.2078, 7.6893, 7.6893, -2.2078, -4606.0472, 1391.7853)" xlink:href="#f9016814-5140-46aa-bc09-a9c5ac384548"/><radialGradient id="b9db08f1-fe77-472c-a492-a7034c1bc705" cx="62.5052" cy="665.0949" r="1.0001" gradientTransform="matrix(2.2078, 7.6893, 7.6893, -2.2078, -5062.2072, 1035.785)" xlink:href="#f9016814-5140-46aa-bc09-a9c5ac384548"/><radialGradient id="aa5e47b4-ffb6-4078-a4c0-10d7a0650abe" cx="1.2441" cy="676.7345" r="1.0001" gradientTransform="matrix(0.974, -3.8796, -3.8796, -0.974, 2834.4855, 868.5918)" xlink:href="#f9016814-5140-46aa-bc09-a9c5ac384548"/></defs><g id="a140bdd4-9a98-462d-955d-319f8d9e6174" data-name="Ebene 2"><g id="eae515c0-19bf-4f1f-a6e3-c8be89e8363a" data-name="Ebene 1"><rect class="e79bea36-8b13-4d6f-a238-c58a8eaecc7b" width="681" height="509"/><path class="a4a7ba82-2252-4bfc-b72c-4eef5eceadc9" d="M208.446,427.873a59.5314,59.5314,0,1,0-59.755,59.307A59.5321,59.5321,0,0,0,208.446,427.873Z"/><g class="b5086450-178e-4b4e-a01c-ae1f4ffd4d45"><g class="b6ca5bb7-4a32-4e73-a690-789d1c77b9e4"><path class="f781d175-1ac3-4782-b47c-2a26b2c33708" d="M499.711,413.47c6.03-19.812-4.673-40.757-23.908-46.781s-39.716,5.151-45.747,24.963,4.673,40.757,23.908,46.781S493.68,433.282,499.711,413.47Z"/></g></g><path class="af9d9623-c690-4d7e-b19d-a5d6c2bef034" d="M246.646,191.76a11.38,11.38,0,1,0-11.38-11.38A11.38,11.38,0,0,0,246.646,191.76Z"/><path class="ae2378d4-a83e-40c6-8fae-3dbb757d9365" d="M559,66a5,5,0,1,0-5-5A5,5,0,0,0,559,66Z"/><path class="b0518c00-a834-49ca-86cf-1420d016f0e4" d="M402.16,170a5,5,0,1,0-5-5A5,5,0,0,0,402.16,170Z"/><path class="b591f0eb-46e5-495c-88c8-16a7b8218a26" d="M266.442,301.303c10.83-9.061,12.523-24.927,3.782-35.437s-24.607-11.685-35.437-2.624-12.523,24.927-3.782,35.437S255.612,310.364,266.442,301.303Z"/><path class="b5ca0901-e48b-4b24-b9f5-59208a711a85" d="M82.5736,252.961a11.472,11.472,0,0,0,15.8091-3.297A11.3034,11.3034,0,0,0,95.61,233.855,11.472,11.472,0,0,0,79.8,237.152,11.3032,11.3032,0,0,0,82.5736,252.961Z"/><path class="e840b207-49f4-4186-ac7a-f764f9afabac" d="M114.977,275.926a5.6114,5.6114,0,0,0,7.733-1.613,5.5289,5.5289,0,0,0-1.357-7.733,5.6114,5.6114,0,0,0-7.733,1.613A5.53,5.53,0,0,0,114.977,275.926Z"/><path class="a5b98b1a-cd6b-460b-acfb-b13d5fa6b229" d="M162.04,329.953a11.4732,11.4732,0,0,0,15.809-3.3,11.3032,11.3032,0,0,0-2.77-15.809,11.4728,11.4728,0,0,0-15.809,3.3A11.3014,11.3014,0,0,0,162.04,329.953Z"/><path class="b1bd9c98-d8e1-4d4c-a6a3-7015c2be4bce" d="M107.692,328.077a11.4732,11.4732,0,0,0,15.809-3.3,11.3023,11.3023,0,0,0-2.77-15.809,11.473,11.473,0,0,0-15.809,3.3A11.3023,11.3023,0,0,0,107.692,328.077Z"/><path class="aee715fe-e255-496f-b45d-f6938825cbe8" d="M231.962,401.443a11.38,11.38,0,1,0-3.014-15.809A11.38,11.38,0,0,0,231.962,401.443Z"/><path class="e2030ce9-b86f-4261-b185-9897356c564e" d="M123.378,157.364a11.4737,11.4737,0,0,0,15.809-3.3,11.3036,11.3036,0,0,0-2.77-15.81,11.4731,11.4731,0,0,0-15.809,3.301A11.3017,11.3017,0,0,0,123.378,157.364Z"/><path class="a678be8e-b51d-49f0-a7d1-2e16936011e3" d="M89.7665,243.89l23.8525,73.541,124.617,74.711Zm0,0L129.66,146.585,113.619,317.431l54.361,4.559L129.66,146.585l57.797,194.691"/><path class="a806b63f-083e-47ce-b635-4fe10dc401f3" d="M181.061,154.169a8.5,8.5,0,1,0,3.088,11.617A8.4986,8.4986,0,0,0,181.061,154.169Z"/><path class="ba33ed67-1fe7-4fe2-96f2-900d8b13c7d7" d="M646.16,412a8,8,0,1,0-8-8A8,8,0,0,0,646.16,412Z"/><path class="a5e7ea01-a8b8-48d5-851f-94517727b877" d="M190,56a8,8,0,1,0-8-8A8,8,0,0,0,190,56Z"/><path class="e35d4669-2d68-4382-8627-288c5fea30d6" d="M212.202,201.131a4,4,0,1,0,1.453,5.467A4,4,0,0,0,212.202,201.131Z"/></g></g></svg>