<svg xmlns="http://www.w3.org/2000/svg" width="512" height="392.542"><path fill="#19b4eb" d="M373.82 0c6.65 15.12 10.96 40.22 4.53 58.6 26.32 22.47 35.35 77.1 22.65 121.7 37.5 2.88 82.18-1.36 111 10.15-26.95-3.46-63.75-10.27-98.52-7.9-6.6.45-16.34-.25-15.87 9.02 40.25 3.16 80.24 6.6 113.3 16.9-32.78-5.34-72.57-13.5-113.3-14.63-16.8 33.2-50.67 49.5-97.4 52.94 5.02 10.93 14.64 15.1 17 32.68 3.5 26.27-5.48 64.75 3.37 82.26 4.27 8.38 11.2 8.62 15.88 15.78-11.45 13.56-39.83-1.5-43.06-15.78-5.55-24.43 8.42-62.3-6.8-78.87 1.07 26.65-6.3 64.07 1.13 87.88 2.93 9.37 11.4 12.98 9.07 21.43-53.2 5.4-30.98-68.87-39.67-112.7-8.02.58-4.5 12.03-4.52 16.9-.22 42.82 8.77 101.52-37.37 95.8-1.36-9 6.2-12.06 9.05-20.28 8.43-24.1-1.57-59.97 2.3-89.03-17.62 13.26 1.84 59.62-9.07 83.4-6.3 13.65-26.54 19.6-41.9 13.5 2-10.2 12.52-8.54 16.97-18.03 6.24-13.22.05-32.27 2.28-51.83-32.6 6.5-57.88-.95-70.24-21.43-5.53-9.2-6.9-20-13.6-28.15-6.65-8.16-17.28-9.26-20.37-20.28 40.36-9.72 41.9 41.54 78.17 42.8 11.1.4 16.9-3.2 27.18-5.6 2.87-12.94 9.04-22.6 18.12-29.34-45.1-6.17-82.36-20.22-99.68-54.06-41 2.02-78.54 7.5-113.3 15.77 31.55-11.45 70.46-15.56 112.17-16.9-2.47-14.78-24-10.72-37.4-10.14-24.85 1.1-56.14 4.18-75.9 7.9 28.65-10.23 68.83-8.95 107.62-9.03-11.86-37.2-7.75-96.3 18.13-118.32-7.33-18.47-5.06-48.7 4.53-63.1 28.9 1.3 46.42 13.9 64.57 25.93 22.52-6.4 46.18-9.6 77.03-7.9 12.97.73 26.46 6.55 36.23 5.63 9.6-.9 20.16-11.66 29.45-15.76C349.7 2.54 359.95.5 373.82 0z"/></svg>