<?xml version="1.0" encoding="utf-8"?>
<!-- Generator: Adobe Illustrator 25.4.2, SVG Export Plug-In . SVG Version: 6.00 Build 0)  -->
<svg version="1.1" id="Ebene_1" xmlns="http://www.w3.org/2000/svg" xmlns:xlink="http://www.w3.org/1999/xlink" x="0px" y="0px"
	 viewBox="0 0 163.2 138.9" style="enable-background:new 0 0 163.2 138.9;" xml:space="preserve">
<style type="text/css">
	.st0{fill:none;}
	.st1{fill:#FFFFFF;}
	.st2{fill:none;stroke:#FFFFFF;stroke-width:2;stroke-linecap:square;stroke-miterlimit:14.0378;}
	.st3{fill:none;stroke:#FFFFFF;stroke-width:2;stroke-linecap:square;}
</style>
<g id="fcac0ce0-cee0-46d1-bf37-33a6501b45ee">
	<g id="bfed1c6e-d029-4872-8f50-d1703f21fed9">
		<rect x="-1" y="0.7" class="st0" width="163" height="138.2"/>
		<path class="st1" d="M3.4,115.4c0,0.1,0.2,0.2,0.3,0.3H4c0.1,0,0.2-0.1,0.3-0.2l3.3-7.4h0.1l3.3,7.4c0.1,0.1,0.2,0.2,0.3,0.2h0.3
			c0.2,0,0.3-0.1,0.3-0.3l3.4-12.1c0.1-0.2,0-0.3-0.2-0.4c0,0-0.1,0-0.2,0h-2.1c-0.1,0-0.3,0.1-0.3,0.3l-1.5,6.1h-0.1l-2.8-6.3
			c0-0.1-0.2-0.2-0.3-0.2H7.5c-0.1,0-0.3,0.1-0.3,0.2l-2.8,6.3H4.3l-1.5-6.1c0-0.1-0.2-0.2-0.3-0.3H0.3c-0.2,0-0.3,0.1-0.3,0.3
			c0,0.1,0,0.1,0,0.2L3.4,115.4z M19.1,115.1c0,0.2,0.2,0.3,0.3,0.3c0,0,0,0,0,0h7.5c0.2,0,0.3-0.2,0.3-0.3c0,0,0,0,0,0v-2
			c0-0.2-0.2-0.3-0.3-0.3c0,0,0,0,0,0h-5v-2.4H26c0.2,0,0.3-0.2,0.3-0.3c0,0,0,0,0,0v-2c0-0.2-0.2-0.3-0.3-0.3h-4.1v-2.2h5
			c0.2,0,0.3-0.2,0.3-0.3c0,0,0,0,0,0v-2c0-0.2-0.2-0.3-0.3-0.3c0,0,0,0,0,0h-7.5c-0.2,0-0.3,0.2-0.3,0.3c0,0,0,0,0,0V115.1z
			 M37.4,115.1c0,0.2,0.2,0.3,0.3,0.3h2.2c0.2,0,0.3-0.2,0.3-0.3v-11.9c0-0.2-0.2-0.3-0.3-0.3h-2.2c-0.2,0-0.3,0.2-0.3,0.3
			L37.4,115.1z M44.4,115.1c0,0.2,0.1,0.4,0.3,0.4c0,0,0.1,0,0.1,0h2.1c0.2,0,0.3-0.1,0.3-0.3l0.8-5.6h0l3,5.8
			c0.1,0.1,0.2,0.2,0.3,0.2h0.3c0.1,0,0.2-0.1,0.3-0.2l3-5.8h0l0.8,5.6c0,0.2,0.2,0.3,0.3,0.3h2.1c0.2,0,0.3-0.1,0.3-0.3
			c0,0,0-0.1,0-0.1l-2-12.1c0-0.2-0.2-0.3-0.3-0.3h-0.3c-0.1,0-0.2,0.1-0.3,0.2l-4.2,7.8h0l-4.2-7.8c-0.1-0.1-0.2-0.2-0.3-0.2h-0.3
			c-0.2,0-0.3,0.1-0.3,0.3L44.4,115.1z M62.9,115.1c0,0.2,0.2,0.3,0.3,0.3c0,0,0,0,0,0h2.1c0.2,0,0.3-0.2,0.3-0.3v-4.2h1.9
			c2.2,0,4-1.8,4-4c0-2.2-1.8-4-4-4h-4.3c-0.2,0-0.3,0.2-0.3,0.3c0,0,0,0,0,0L62.9,115.1z M65.7,108.3v-2.8h1.7
			c0.8,0,1.4,0.6,1.4,1.3c0,0,0,0,0,0c0,0.8-0.6,1.4-1.4,1.4c0,0,0,0,0,0H65.7z M75.4,115.1c0,0.2,0.2,0.3,0.3,0.3c0,0,0,0,0,0h2.1
			c0.2,0,0.3-0.2,0.3-0.3v-4.6h1.2l2.4,4.8c0.1,0.1,0.2,0.2,0.3,0.2h2.4c0.2,0,0.3-0.1,0.4-0.3c0-0.1,0-0.1-0.1-0.2l-2.5-4.6
			c2-0.7,3.1-2.8,2.5-4.8c-0.5-1.6-2-2.7-3.7-2.7h-5.4c-0.2,0-0.3,0.2-0.3,0.3c0,0,0,0,0,0L75.4,115.1z M78.2,108.2v-2.8h2.7
			c0.8,0,1.4,0.6,1.4,1.4c0,0.8-0.6,1.4-1.4,1.4L78.2,108.2z M88.4,109.2c0,3.6,2.9,6.5,6.5,6.4c3.6,0,6.5-2.9,6.4-6.5
			c0-3.6-2.9-6.4-6.5-6.4c-3.5,0-6.4,2.8-6.5,6.4C88.4,109.1,88.4,109.1,88.4,109.2z M91.3,109.2c0-2,1.6-3.6,3.6-3.6
			c2,0,3.6,1.6,3.6,3.6c0,2-1.6,3.6-3.6,3.6c0,0,0,0,0,0C92.9,112.7,91.3,111.1,91.3,109.2z M109.3,115.4c0.1,0.1,0.2,0.2,0.3,0.2
			h0.2c0.1,0,0.3-0.1,0.3-0.2l5.7-12.1c0.1-0.2,0-0.3-0.1-0.4c-0.1,0-0.1,0-0.2,0H113c-0.1,0-0.2,0.1-0.3,0.2l-3,6.6h-0.1l-3-6.6
			c-0.1-0.1-0.2-0.2-0.3-0.2H104c-0.2,0-0.3,0.1-0.3,0.3c0,0.1,0,0.1,0,0.2L109.3,115.4z M119.1,115.1c0,0.2,0.2,0.3,0.3,0.3
			c0,0,0,0,0,0h7.5c0.2,0,0.3-0.2,0.3-0.3c0,0,0,0,0,0v-2c0-0.2-0.2-0.3-0.3-0.3c0,0,0,0,0,0h-5v-2.4h4.1c0.2,0,0.3-0.2,0.3-0.3
			c0,0,0,0,0,0v-2c0-0.2-0.2-0.3-0.3-0.3h-4.1v-2.2h5c0.2,0,0.3-0.2,0.3-0.3c0,0,0,0,0,0v-2c0-0.2-0.2-0.3-0.3-0.3c0,0,0,0,0,0h-7.5
			c-0.2,0-0.3,0.2-0.3,0.3c0,0,0,0,0,0L119.1,115.1z M136.5,109.2c0,3.6,2.9,6.5,6.5,6.4c3.6,0,6.5-2.9,6.4-6.5
			c0-3.6-2.9-6.4-6.5-6.4c-3.5,0-6.4,2.8-6.5,6.4C136.5,109.1,136.5,109.1,136.5,109.2L136.5,109.2z M139.4,109.2
			c0-2,1.6-3.6,3.6-3.6c2,0,3.6,1.6,3.6,3.6c0,2-1.6,3.6-3.6,3.6c0,0,0,0,0,0C141,112.7,139.4,111.1,139.4,109.2L139.4,109.2z
			 M153.5,115.1c0,0.2,0.2,0.3,0.3,0.3c0,0,0,0,0,0h2.1c0.2,0,0.3-0.2,0.3-0.3v-4.6h1.2l2.4,4.8c0.1,0.1,0.2,0.2,0.3,0.2h2.4
			c0.2,0,0.3-0.1,0.4-0.3c0-0.1,0-0.1-0.1-0.2l-2.5-4.6c2-0.7,3.1-2.8,2.5-4.8c-0.5-1.6-2-2.7-3.7-2.7h-5.4c-0.2,0-0.3,0.2-0.3,0.3
			c0,0,0,0,0,0L153.5,115.1z M156.3,108.2v-2.8h2.7c0.8,0,1.4,0.6,1.4,1.4c0,0.8-0.6,1.4-1.4,1.4L156.3,108.2z M38.7,138.1
			c0,0.2,0.2,0.3,0.3,0.3c0,0,0,0,0,0h2.1c0.2,0,0.3-0.2,0.3-0.3v-4.4h4.1c0.2,0,0.3-0.2,0.3-0.3v-2c0-0.2-0.2-0.3-0.3-0.3h-4.1
			v-2.6h5c0.2,0,0.3-0.2,0.3-0.3c0,0,0,0,0,0v-2c0-0.2-0.2-0.3-0.3-0.3c0,0,0,0,0,0h-7.5c-0.2,0-0.3,0.2-0.3,0.3c0,0,0,0,0,0
			L38.7,138.1z M50.8,138.1c0,0.2,0.2,0.3,0.3,0.3h2.2c0.2,0,0.3-0.2,0.3-0.3v-11.9c0-0.2-0.2-0.3-0.3-0.3h-2.2
			c-0.2,0-0.3,0.2-0.3,0.3V138.1z M57.5,137.9c-0.2,0.2,0,0.5,0.3,0.5h2.5c0.1,0,0.2-0.1,0.3-0.2l2.3-3.6h0l2.4,3.6
			c0.1,0.1,0.2,0.2,0.3,0.2h2.5c0.2,0,0.3-0.1,0.4-0.3c0-0.1,0-0.2-0.1-0.2l-3.8-6l3.7-5.6c0.2-0.2,0-0.5-0.3-0.5h-2.6
			c-0.1,0-0.2,0.1-0.3,0.2l-2.1,3.3h0l-2.1-3.3c-0.1-0.1-0.2-0.2-0.3-0.2h-2.6c-0.2,0-0.3,0.1-0.4,0.3c0,0.1,0,0.2,0.1,0.2l3.6,5.6
			L57.5,137.9z M77.2,132.2c0,3.6,2.9,6.5,6.4,6.5c0,0,0,0,0.1,0c1.6,0,3.2-0.6,4.4-1.7c0.1-0.1,0.1-0.3,0-0.5l-1.4-1.5
			c-0.1-0.1-0.3-0.1-0.5,0c-0.7,0.6-1.5,0.9-2.4,0.9c-2-0.1-3.6-1.8-3.5-3.8c0.1-1.9,1.6-3.5,3.5-3.5c0.9,0,1.8,0.3,2.4,0.9
			c0.1,0.1,0.3,0.1,0.4,0c0,0,0,0,0,0l1.4-1.5c0.1-0.1,0.1-0.3,0-0.5c0,0,0,0,0,0c-1.2-1.1-2.7-1.7-4.4-1.7
			C80.1,125.7,77.2,128.6,77.2,132.2C77.2,132.2,77.2,132.2,77.2,132.2z M91.2,132.2c0,3.6,2.9,6.5,6.5,6.4c3.6,0,6.5-2.9,6.4-6.5
			c0-3.6-2.9-6.4-6.5-6.4c-3.5,0-6.4,2.8-6.5,6.4C91.2,132.1,91.2,132.1,91.2,132.2L91.2,132.2z M94,132.2c0-2,1.6-3.6,3.6-3.6
			s3.6,1.6,3.6,3.6s-1.6,3.6-3.6,3.6c0,0,0,0,0,0C95.7,135.7,94.1,134.1,94,132.2L94,132.2z M108.2,138.1c0,0.2,0.1,0.3,0.3,0.3h4.4
			c3.5,0,6.3-2.8,6.3-6.3c0-3.5-2.8-6.3-6.3-6.3c0,0,0,0,0,0h-4.4c-0.2,0-0.3,0.2-0.3,0.3V138.1z M111,135.8v-7.3h1.7
			c2,0.1,3.6,1.8,3.5,3.8c-0.1,1.9-1.6,3.4-3.5,3.5H111z M123.3,138.1c0,0.2,0.2,0.3,0.3,0.3c0,0,0,0,0,0h7.5c0.2,0,0.3-0.2,0.3-0.3
			c0,0,0,0,0,0v-2c0-0.2-0.2-0.3-0.3-0.3c0,0,0,0,0,0h-5v-2.4h4.1c0.2,0,0.3-0.2,0.3-0.3c0,0,0,0,0,0v-2c0-0.2-0.2-0.3-0.3-0.3h-4.1
			v-2.2h5c0.2,0,0.3-0.2,0.3-0.3c0,0,0,0,0,0v-2c0-0.2-0.2-0.3-0.3-0.3c0,0,0,0,0,0h-7.5c-0.2,0-0.3,0.2-0.3,0.3c0,0,0,0,0,0
			L123.3,138.1z"/>
		<path class="st2" d="M79.4,35.1c-1.4,0-2.7,0.1-3.9,0c-2.2-0.1-3.2-2-1.9-3.7c2.8-3.9,5.8-7.7,8.8-11.4c0.8-1.1,2.3-1.3,3.4-0.5
			c0.2,0.2,0.4,0.4,0.6,0.6c2.9,3.6,5.7,7.2,8.5,10.9c0.6,0.8,0.7,1.8,0.4,2.8c-0.4,0.7-1.6,1.1-2.5,1.3c-1.1,0.1-2.3,0.1-3.4,0.1
			v32.3c-1.6,0-8.3,0-9.9,0v-30L79.4,35.1z"/>
		<path class="st3" d="M67,50v17.5H57c0.1-4.3,0-10.9,0-15.2v-2.3c-1.2,0.1-2.4,0.1-3.5-0.1c-1-0.2-1.8-0.7-2.4-1.5
			c-0.2-0.9-0.1-1.8,0.5-2.6c2.6-3.6,5.3-7.1,8.1-10.6c1.5-2,3-2,4.6,0c2.9,3.5,5.7,7.1,8.5,10.7c0.8,1,0.8,2.4-0.2,3.3
			c-0.4,0.4-1,0.6-1.6,0.6C69.6,50.1,68.3,50.1,67,50z"/>
		<path class="st3" d="M111.6,37.6V17.1c1.1,0.1,2.3,0.1,3.4-0.1c0.9-0.2,2.2-0.6,2.5-1.3c0.3-0.9,0.1-2-0.4-2.8
			c-2.7-3.7-5.6-7.3-8.5-10.9c-0.7-1.1-2.2-1.4-3.3-0.7c-0.2,0.2-0.4,0.3-0.6,0.6c-3,3.7-5.9,7.5-8.8,11.4c-1.3,1.8-0.3,3.6,1.9,3.7
			c1.2,0.1,2.4,0,3.8,0v20.5"/>
		<path class="st3" d="M99.4,60.8l7.2,6.6l7.2-6.6"/>
		<path class="st3" d="M99.4,49.7l7.2-6.6l7.2,6.6"/>
		<path class="st3" d="M96.9,53.5l18.3,3.8"/>
	</g>
</g>
</svg>
