<svg xmlns="http://www.w3.org/2000/svg" viewBox="0 0 35 35"><defs><style>.f72943c7-0188-41b9-9afa-dc9efb7e7460,.fc2134a0-df02-488d-b01e-fcbc5531ff87{fill:none;}.f72943c7-0188-41b9-9afa-dc9efb7e7460{stroke:#fff;stroke-linecap:square;stroke-linejoin:round;}</style></defs><g id="a129cfa8-9ff7-4ca9-9838-6c320d57a73d" data-name="Ebene 2"><g id="f9a0fb5b-860b-4c8e-96d1-a55ef93119fd" data-name="Ebene 2"><g id="be375c05-0d09-43f7-a589-db8b3905b9c3" data-name="team_spirit"><rect class="fc2134a0-df02-488d-b01e-fcbc5531ff87" width="35" height="35"/><path class="f72943c7-0188-41b9-9afa-dc9efb7e7460" d="M26.5705,9.55a1.8994,1.8994,0,1,0-3.7967,0v1.978a1.8994,1.8994,0,1,0,3.7967,0Z"/><path class="f72943c7-0188-41b9-9afa-dc9efb7e7460" d="M31.6325,8.852v.1526a7.2807,7.2807,0,0,1-1.252,4.1011,6.982,6.982,0,0,1-3.3159,2.6212l-.0132,4.052,2.1737,6.3691v1.2656M28.9639,8.852v.1526a4.4786,4.4786,0,0,1-1.2594,3.1233,4.22,4.22,0,0,1-6.0811,0A4.4786,4.4786,0,0,1,20.364,9.0046V8.852m-2.6527,0v.1526a7.2889,7.2889,0,0,0,1.168,3.9633A7.005,7.005,0,0,0,21.99,15.6016v4.1773L19.776,26.2733v1.14m2.5359,0v-1.14l2.2141-6.4944,2.2552,6.6149v1.02"/><path class="f72943c7-0188-41b9-9afa-dc9efb7e7460" d="M12.2267,9.55a1.8994,1.8994,0,1,0-3.7967,0v1.978a1.8994,1.8994,0,1,0,3.7967,0Z"/><path class="f72943c7-0188-41b9-9afa-dc9efb7e7460" d="M17.2888,8.852v.1526a7.2807,7.2807,0,0,1-1.252,4.1011,6.982,6.982,0,0,1-3.3159,2.6212l-.0133,4.052,2.1737,6.3691v1.2656M14.62,8.852v.1526a4.4787,4.4787,0,0,1-1.26,3.1233,4.22,4.22,0,0,1-6.0811,0A4.4786,4.4786,0,0,1,6.02,9.0046V8.852m-2.6527,0v.1526a7.2889,7.2889,0,0,0,1.168,3.9633,7.0055,7.0055,0,0,0,3.1108,2.6337v4.1773L5.4322,26.2733v1.14m2.536,0v-1.14l2.214-6.4944,2.2552,6.6149v1.02"/></g></g></g></svg>