<?xml version="1.0" encoding="utf-8"?>
<!-- Generator: Adobe Illustrator 25.4.2, SVG Export Plug-In . SVG Version: 6.00 Build 0)  -->
<svg version="1.1" id="Ebene_1" xmlns="http://www.w3.org/2000/svg" xmlns:xlink="http://www.w3.org/1999/xlink" x="0px" y="0px"
	 viewBox="0 0 151.6 139.2" style="enable-background:new 0 0 151.6 139.2;" xml:space="preserve">
<style type="text/css">
	.st0{fill:none;}
	.st1{fill:#FFFFFF;}
	.st2{fill:none;stroke:#FFFFFF;stroke-width:2;stroke-linecap:square;}
	.st3{fill:none;stroke:#FFFFFF;stroke-width:2;stroke-linecap:round;stroke-linejoin:round;}
</style>
<g id="fbab88e1-0992-4326-a64b-9627c960f619">
	<g id="be85875d-3d43-469b-9715-cd183e3009c2">
		<rect y="1" class="st0" width="151.6" height="138.2"/>
		<path class="st1" d="M3.4,115.9c0,0.1,0.2,0.2,0.3,0.3H4c0.1,0,0.2-0.1,0.3-0.2l3.3-7.4h0.1L11,116c0.1,0.1,0.2,0.2,0.3,0.2h0.3
			c0.2,0,0.3-0.1,0.3-0.3l3.4-12.1c0.1-0.2,0-0.3-0.2-0.4c0,0-0.1,0-0.2,0h-2.1c-0.1,0-0.3,0.1-0.3,0.3l-1.5,6.1h-0.1l-2.8-6.3
			c0-0.1-0.2-0.2-0.3-0.2H7.5c-0.1,0-0.3,0.1-0.3,0.2l-2.8,6.3H4.3l-1.5-6.1c0-0.1-0.2-0.2-0.3-0.3H0.3c-0.2,0-0.3,0.1-0.3,0.3
			c0,0.1,0,0.1,0,0.2L3.4,115.9z M19.1,115.7c0,0.2,0.2,0.3,0.3,0.3c0,0,0,0,0,0h7.5c0.2,0,0.3-0.2,0.3-0.3c0,0,0,0,0,0v-2
			c0-0.2-0.2-0.3-0.3-0.3c0,0,0,0,0,0h-5v-2.4H26c0.2,0,0.3-0.2,0.3-0.3c0,0,0,0,0,0v-2c0-0.2-0.2-0.3-0.3-0.3h-4.1V106h5
			c0.2,0,0.3-0.2,0.3-0.3c0,0,0,0,0,0v-2c0-0.2-0.2-0.3-0.3-0.3c0,0,0,0,0,0h-7.5c-0.2,0-0.3,0.2-0.3,0.3c0,0,0,0,0,0V115.7z
			 M36.8,114.8c1.1,1,2.6,1.5,4,1.4c2.2,0.2,4.1-1.5,4.2-3.6c0,0,0-0.1,0-0.1c0-2.4-2.2-3.5-3.6-4.1c-1.4-0.6-2-1.1-2-1.7
			c0.1-0.6,0.6-1,1.1-0.9c0.9,0.1,1.8,0.5,2.6,1.1c0.2,0.1,0.5,0,0.6-0.2l0.9-1.4c0.1-0.2,0.1-0.4-0.1-0.6c-1.1-0.8-2.5-1.3-3.9-1.3
			c-2.8,0-4.2,1.8-4.2,3.6c0,2.2,1.9,3.4,3.5,4c1.2,0.5,1.9,1.1,1.9,1.8c0,0.6-0.5,1.1-1.2,1.1c0,0,0,0-0.1,0
			c-0.9-0.1-1.8-0.4-2.6-1c-0.2-0.1-0.5-0.1-0.6,0.1l-0.8,1.5C36.5,114.5,36.6,114.6,36.8,114.8L36.8,114.8z M49.2,115.7
			c0,0.2,0.2,0.3,0.3,0.3h2.1c0.2,0,0.3-0.2,0.3-0.3c0,0,0,0,0,0v-4.7h5.1v4.7c0,0.2,0.2,0.3,0.3,0.3c0,0,0,0,0,0h2.1
			c0.2,0,0.3-0.2,0.3-0.3v-11.9c0-0.2-0.2-0.3-0.3-0.3h-2.1c-0.2,0-0.3,0.2-0.3,0.3c0,0,0,0,0,0v4.5H52v-4.5c0-0.2-0.2-0.3-0.3-0.3
			c0,0,0,0,0,0h-2.1c-0.2,0-0.3,0.2-0.3,0.3V115.7z M63.6,116h2c0.3,0,0.5-0.2,0.6-0.4l0.6-1.4h4.9l0.6,1.4c0.2,0.3,0.3,0.4,0.6,0.4
			h2c0.2,0,0.3-0.1,0.3-0.3c0-0.1,0-0.1,0-0.2l-5.6-12.1c-0.1-0.1-0.2-0.2-0.3-0.2h-0.2c-0.1,0-0.2,0.1-0.3,0.2l-5.6,12.1
			c-0.1,0.2,0,0.3,0.1,0.4C63.5,116,63.6,116,63.6,116z M68,111.7l1.3-3h0l1.4,3H68z M78.8,115.7c0,0.2,0.2,0.3,0.3,0.3c0,0,0,0,0,0
			h2.1c0.2,0,0.3-0.2,0.3-0.3v-4.6h1.2l2.4,4.8c0.1,0.1,0.2,0.2,0.3,0.2h2.4c0.2,0,0.3-0.1,0.4-0.3c0-0.1,0-0.1-0.1-0.2l-2.5-4.6
			c2-0.7,3.1-2.8,2.5-4.8c-0.5-1.6-2-2.7-3.7-2.7h-5.4c-0.2,0-0.3,0.2-0.3,0.3c0,0,0,0,0,0L78.8,115.7z M81.6,108.8V106h2.7
			c0.8,0,1.4,0.6,1.4,1.4c0,0.8-0.6,1.4-1.4,1.4H81.6z M92.7,115.7c0,0.2,0.2,0.3,0.3,0.3c0,0,0,0,0,0h7.5c0.2,0,0.3-0.2,0.3-0.3
			c0,0,0,0,0,0v-2c0-0.2-0.2-0.3-0.3-0.3c0,0,0,0,0,0h-5v-2.4h4.1c0.2,0,0.3-0.2,0.3-0.3c0,0,0,0,0,0v-2c0-0.2-0.2-0.3-0.3-0.3h-4.1
			V106h5c0.2,0,0.3-0.2,0.3-0.3c0,0,0,0,0,0v-2c0-0.2-0.2-0.3-0.3-0.3c0,0,0,0,0,0h-7.5c-0.2,0-0.3,0.2-0.3,0.3c0,0,0,0,0,0
			L92.7,115.7z M110.1,109.7c0,3.6,2.9,6.5,6.5,6.4c3.6,0,6.5-2.9,6.4-6.5c0-3.6-2.9-6.4-6.5-6.4c-3.5,0-6.4,2.8-6.5,6.4
			C110.1,109.6,110.1,109.7,110.1,109.7L110.1,109.7z M113,109.7c0-2,1.6-3.6,3.6-3.6c2,0,3.6,1.6,3.6,3.6c0,2-1.6,3.6-3.6,3.6
			c0,0,0,0,0,0C114.6,113.3,113,111.7,113,109.7L113,109.7z M126.9,111.2c0.1,2.8,2.4,5.1,5.3,5c2.7-0.1,4.9-2.3,5-5v-7.4
			c0-0.2-0.2-0.3-0.3-0.3h-2.2c-0.2,0-0.3,0.2-0.3,0.3c0,0,0,0,0,0v7.3c0,1.2-1,2.2-2.2,2.3s-2.2-1-2.3-2.2c0,0,0,0,0-0.1v-7.3
			c0-0.2-0.2-0.3-0.3-0.3c0,0,0,0,0,0h-2.2c-0.2,0-0.3,0.2-0.3,0.3V111.2z M142,115.7c0,0.2,0.2,0.3,0.3,0.3c0,0,0,0,0,0h2.1
			c0.2,0,0.3-0.2,0.3-0.3v-4.6h1.2l2.4,4.8c0.1,0.1,0.2,0.2,0.3,0.2h2.4c0.2,0,0.3-0.1,0.4-0.3c0-0.1,0-0.1-0.1-0.2l-2.5-4.6
			c2-0.7,3.1-2.8,2.5-4.8c-0.5-1.6-2-2.7-3.7-2.7h-5.4c-0.2,0-0.3,0.2-0.3,0.3c0,0,0,0,0,0L142,115.7z M144.8,108.8V106h2.7
			c0.8,0,1.4,0.6,1.4,1.4c0,0.8-0.6,1.4-1.4,1.4H144.8z M17.7,138.7c0,0.2,0.2,0.3,0.3,0.3c0,0,0,0,0,0h7.5c0.2,0,0.3-0.2,0.3-0.3
			c0,0,0,0,0,0v-2c0-0.2-0.2-0.3-0.3-0.3c0,0,0,0,0,0h-5v-2.4h4.1c0.2,0,0.3-0.2,0.3-0.3c0,0,0,0,0,0v-2c0-0.2-0.2-0.3-0.3-0.3h-4.1
			V129h5c0.2,0,0.3-0.2,0.3-0.3c0,0,0,0,0,0v-2c0-0.2-0.2-0.3-0.3-0.3c0,0,0,0,0,0h-7.5c-0.2,0-0.3,0.2-0.3,0.3c0,0,0,0,0,0V138.7z
			 M29,138.5c-0.2,0.2,0,0.5,0.3,0.5h2.5c0.1,0,0.2-0.1,0.3-0.2l2.3-3.6h0l2.4,3.6c0.1,0.1,0.2,0.2,0.3,0.2h2.5
			c0.2,0,0.3-0.1,0.4-0.3c0-0.1,0-0.2-0.1-0.2l-3.8-6l3.7-5.6c0.2-0.2,0-0.5-0.3-0.5h-2.6c-0.1,0-0.2,0.1-0.3,0.2l-2.1,3.3h0
			l-2.1-3.3c-0.1-0.1-0.2-0.2-0.3-0.2h-2.6c-0.2,0-0.3,0.1-0.4,0.3c0,0.1,0,0.2,0.1,0.2l3.6,5.6L29,138.5z M43.8,138.7
			c0,0.2,0.2,0.3,0.3,0.3c0,0,0,0,0,0h2.1c0.2,0,0.3-0.2,0.3-0.3v-4.2h1.9c2.2,0,4-1.8,4-4c0-2.2-1.8-4-4-4h-4.3
			c-0.2,0-0.3,0.2-0.3,0.3c0,0,0,0,0,0L43.8,138.7z M46.7,131.8V129h1.7c0.8,0,1.4,0.6,1.4,1.3c0,0,0,0,0,0c0,0.8-0.6,1.4-1.4,1.4
			c0,0,0,0,0,0H46.7z M56.3,138.7c0,0.2,0.2,0.3,0.3,0.3c0,0,0,0,0,0h7.5c0.2,0,0.3-0.2,0.3-0.3c0,0,0,0,0,0v-2
			c0-0.2-0.2-0.3-0.3-0.3c0,0,0,0,0,0h-5v-2.4h4.1c0.2,0,0.3-0.2,0.3-0.3c0,0,0,0,0,0v-2c0-0.2-0.2-0.3-0.3-0.3h-4.1V129h5
			c0.2,0,0.3-0.2,0.3-0.3c0,0,0,0,0,0v-2c0-0.2-0.2-0.3-0.3-0.3c0,0,0,0,0,0h-7.5c-0.2,0-0.3,0.2-0.3,0.3c0,0,0,0,0,0V138.7z
			 M68.7,138.7c0,0.2,0.2,0.3,0.3,0.3c0,0,0,0,0,0h2.1c0.2,0,0.3-0.2,0.3-0.3v-4.6h1.2l2.4,4.8c0.1,0.1,0.2,0.2,0.3,0.2h2.4
			c0.2,0,0.3-0.1,0.4-0.3c0-0.1,0-0.1-0.1-0.2l-2.5-4.6c2-0.7,3.1-2.8,2.5-4.8c-0.5-1.6-2-2.7-3.7-2.7h-5.4c-0.2,0-0.3,0.2-0.3,0.3
			c0,0,0,0,0,0V138.7z M71.5,131.8V129h2.7c0.8,0,1.4,0.6,1.4,1.4c0,0.8-0.6,1.4-1.4,1.4H71.5z M82.7,138.7c0,0.2,0.2,0.3,0.3,0.3
			h2.2c0.2,0,0.3-0.2,0.3-0.3v-11.9c0-0.2-0.2-0.3-0.3-0.3H83c-0.2,0-0.3,0.2-0.3,0.3V138.7z M90.5,138.7c0,0.2,0.2,0.3,0.3,0.3
			c0,0,0,0,0,0h7.5c0.2,0,0.3-0.2,0.3-0.3c0,0,0,0,0,0v-2c0-0.2-0.2-0.3-0.3-0.3c0,0,0,0,0,0h-5v-2.4h4.1c0.2,0,0.3-0.2,0.3-0.3
			c0,0,0,0,0,0v-2c0-0.2-0.2-0.3-0.3-0.3h-4.1V129h5c0.2,0,0.3-0.2,0.3-0.3c0,0,0,0,0,0v-2c0-0.2-0.2-0.3-0.3-0.3c0,0,0,0,0,0h-7.5
			c-0.2,0-0.3,0.2-0.3,0.3c0,0,0,0,0,0L90.5,138.7z M102.9,138.7c0,0.2,0.2,0.3,0.3,0.3h2.1c0.2,0,0.3-0.2,0.3-0.3c0,0,0,0,0,0v-6.7
			h0l7.1,7.1c0.1,0,0.1,0.1,0.2,0.1h0.3c0.2,0,0.3-0.1,0.3-0.3v-12.1c0-0.2-0.2-0.3-0.3-0.3h-2.2c-0.2,0-0.3,0.2-0.3,0.3
			c0,0,0,0,0,0v6.4h0l-7.2-6.9h-0.4c-0.2,0-0.3,0.1-0.3,0.3L102.9,138.7z M117.8,132.7c0,3.6,2.9,6.5,6.4,6.5c0,0,0,0,0.1,0
			c1.6,0,3.2-0.6,4.4-1.7c0.1-0.1,0.1-0.3,0-0.5l-1.4-1.5c-0.1-0.1-0.3-0.1-0.5,0c-0.7,0.6-1.5,0.9-2.4,0.9c-2-0.1-3.6-1.8-3.5-3.8
			c0.1-1.9,1.6-3.5,3.5-3.5c0.9,0,1.8,0.3,2.4,0.9c0.1,0.1,0.3,0.1,0.4,0c0,0,0,0,0,0l1.4-1.5c0.1-0.1,0.1-0.3,0-0.5c0,0,0,0,0,0
			c-1.2-1.1-2.7-1.7-4.4-1.7C120.7,126.2,117.8,129.1,117.8,132.7C117.8,132.7,117.8,132.7,117.8,132.7L117.8,132.7z M132.7,138.7
			c0,0.2,0.2,0.3,0.3,0.3c0,0,0,0,0,0h7.5c0.2,0,0.3-0.2,0.3-0.3c0,0,0,0,0,0v-2c0-0.2-0.2-0.3-0.3-0.3c0,0,0,0,0,0h-5v-2.4h4.1
			c0.2,0,0.3-0.2,0.3-0.3c0,0,0,0,0,0v-2c0-0.2-0.2-0.3-0.3-0.3h-4.1V129h5c0.2,0,0.3-0.2,0.3-0.3c0,0,0,0,0,0v-2
			c0-0.2-0.2-0.3-0.3-0.3c0,0,0,0,0,0h-7.5c-0.2,0-0.3,0.2-0.3,0.3c0,0,0,0,0,0V138.7z"/>
		<path class="st2" d="M96.2,23.2l2.3,0.5l-8.9,9.7L91,46.5L79,41l-12,5.5l1.5-13.1l-8.9-9.7L72.5,21L79,9.5l1,1.8"/>
		<path class="st2" d="M52.3,41.9l2.7,4.8l5.4,1.1l-3.7,4l0.6,5.5l-5-2.3l-5,2.3l0.6-5.5l-3.7-4l5.4-1.1L52.3,41.9z"/>
		<path class="st2" d="M105.7,41.9l2.7,4.8l5.4,1.1l-3.7,4l0.6,5.5l-5-2.3l-5,2.3l0.6-5.5l-3.7-4l5.4-1.1L105.7,41.9z"/>
		<path class="st2" d="M78.8,53.1l2.7,4.8l5.4,1.1l-3.7,4l0.6,5.5l-5-2.3l-5,2.3l0.6-5.5l-3.7-4l5.4-1.1L78.8,53.1z"/>
		<path class="st3" d="M103.1,21.1v-4.8c-7.5-0.2-14.3,1.4-20.2,6.1c0.4-3,3.8-7.8,7.9-10.8c3.7-2.7,7.9-4.7,12.4-5.8V1l13,10.1
			L103.1,21.1z"/>
	</g>
</g>
</svg>
