<svg xmlns="http://www.w3.org/2000/svg" viewBox="0 0 35 35"><defs><style>.aafbda4a-f8de-466f-b528-d0cb3c74ce40,.ecabe060-9978-4571-961f-505f132d9f1c,.fe7293d2-1e23-4e57-8df8-f1899976d3b3{fill:none;}.ecabe060-9978-4571-961f-505f132d9f1c,.fe7293d2-1e23-4e57-8df8-f1899976d3b3{stroke:#fff;stroke-linecap:square;}.ecabe060-9978-4571-961f-505f132d9f1c{stroke-linejoin:round;}</style></defs><g id="a2d997b1-543c-4a1d-bff7-e83273ad0aec" data-name="Ebene 2"><g id="a6881966-366a-4f27-952b-b488614a5299" data-name="Ebene 2"><g id="ed96642b-5d95-4001-90f7-a2edbafc8980" data-name="continuos_delivery"><rect class="aafbda4a-f8de-466f-b528-d0cb3c74ce40" width="35" height="35"/><path class="fe7293d2-1e23-4e57-8df8-f1899976d3b3" d="M9.0353,12.975l-1.522-2.8023L9.9312,7.7548l2.8024,1.522,1.9113-.7927L15.55,5.4354h3.4192l.8912,3.0487,1.9113.7927,2.8-1.522L26.99,10.1727,25.47,12.975l.79,1.9091,3.0487.9074v3.4193l-3.0487.9053-.79,1.9112,1.5361,2.8-2.4178,2.4179-2.8142-1.52-1.9113.79-.9052,3.0488H15.5384l-.9053-3.0488-1.9113-.79-2.8024,1.52L7.5016,24.8274l1.522-2.8"/><path class="ecabe060-9978-4571-961f-505f132d9f1c" d="M5.691,17.4988H19.5438"/><path class="ecabe060-9978-4571-961f-505f132d9f1c" d="M16.275,13.9576l3.2691,3.5435L16.275,21.0424"/></g></g></g></svg>