<svg xmlns="http://www.w3.org/2000/svg" viewBox="0 0 35 35"><defs><style>.a85109bd-ebb4-4d60-b34d-9c078ab26884,.a9430b83-a584-4e7d-bfa7-bf18a6c86bc0,.b17749fb-3420-442e-a484-0b685d5a2044{fill:none;}.a9430b83-a584-4e7d-bfa7-bf18a6c86bc0,.b17749fb-3420-442e-a484-0b685d5a2044{stroke:#fff;stroke-linecap:square;}.b17749fb-3420-442e-a484-0b685d5a2044{stroke-linejoin:round;}</style></defs><g id="ae4eb29e-bac8-435b-a5dd-94a3f9295a0b" data-name="Ebene 2"><g id="a87e0f11-f4a6-4bae-9cf9-3bcd8617abb7" data-name="Ebene 2"><g id="bd540f38-0bc4-43da-b118-ad842656d00a" data-name="tech_excellence"><rect class="a85109bd-ebb4-4d60-b34d-9c078ab26884" width="35" height="35"/><path class="b17749fb-3420-442e-a484-0b685d5a2044" d="M29.9714,12.4676H18.7259l1.7416-2.7193H28.23Z"/><path class="b17749fb-3420-442e-a484-0b685d5a2044" d="M26.663,12.4676H22.0325l.7159-2.7193h3.1987Z"/><path class="b17749fb-3420-442e-a484-0b685d5a2044" d="M29.9714,12.4676H18.7259l5.6228,8.3567Z"/><path class="b17749fb-3420-442e-a484-0b685d5a2044" d="M26.663,12.4676H22.0325l2.3153,8.3567Z"/><path class="b17749fb-3420-442e-a484-0b685d5a2044" d="M20.2265,18.26a4.484,4.484,0,1,1-4.4212-5.2334,4.6047,4.6047,0,0,1,.9818.1068"/><path class="a9430b83-a584-4e7d-bfa7-bf18a6c86bc0" d="M18.0033,8.9947l-.672-2.2713H14.2792l-.8081,2.73-1.7061.7076L9.2656,8.8021,7.1073,10.96l1.3565,2.5016-.7054,1.704-2.73.808V19.026l2.73.81.7054,1.704L7.1073,24.0417,9.2656,26.2l2.4994-1.3586,1.7061.7076.8081,2.7276h3.0521l.808-2.7276,1.7061-.7076L22.347,26.2l2.1583-2.1583-.6909-1.2727"/></g></g></g></svg>