<svg xmlns="http://www.w3.org/2000/svg" viewBox="0 0 35 35"><defs><style>.ab588c78-fe30-4386-ba3c-fe298870c466,.b1acc8df-37af-4306-a8b4-0657e9a05de1,.e9704e15-2075-47fa-bf99-d34ea6b38ba9{fill:none;}.ab588c78-fe30-4386-ba3c-fe298870c466,.b1acc8df-37af-4306-a8b4-0657e9a05de1{stroke:#fff;stroke-linecap:square;}.ab588c78-fe30-4386-ba3c-fe298870c466{stroke-linejoin:round;}</style></defs><g id="bad58eba-75a8-4e8b-970c-1d628febc6c5" data-name="Ebene 2"><g id="b7d13aa8-0ce9-4269-a7fb-000d1c2ae51a" data-name="Ebene 2"><g id="fff14706-08fd-43ae-865f-4c95a6dc2896" data-name="opensource"><rect class="e9704e15-2075-47fa-bf99-d34ea6b38ba9" width="35" height="35"/><path class="b1acc8df-37af-4306-a8b4-0657e9a05de1" d="M28.4,16.9889c-.79,3.3331-6.7535,4.7941-6.7535,4.7941a3.3815,3.3815,0,0,1,.73,2.2236v5.4373H14.4241V24.0066a3.3671,3.3671,0,0,1,.7305-2.2236S9.182,20.322,8.401,16.9889,8.2838,11.14,9.6575,9.7667c0,0-.9947-3.3331.379-4.2106a8.713,8.713,0,0,1,4.3876,1.7251A11.7725,11.7725,0,0,1,18.4,6.7253a11.7725,11.7725,0,0,1,3.9763.5559,8.6744,8.6744,0,0,1,4.3852-1.7251c1.3783.8775.3814,4.2106.3814,4.2106C28.517,11.14,29.1854,13.6557,28.4,16.9889Z"/><path class="ab588c78-fe30-4386-ba3c-fe298870c466" d="M6.2653,21.96a6.0137,6.0137,0,0,1,2.922,2.7772c.7006,1.8124,2.4,1.93,5.2352,1.93"/></g></g></g></svg>