<?xml version="1.0" encoding="utf-8"?>
<!-- Generator: Adobe Illustrator 25.4.2, SVG Export Plug-In . SVG Version: 6.00 Build 0)  -->
<svg version="1.1" id="Ebene_1" xmlns="http://www.w3.org/2000/svg" xmlns:xlink="http://www.w3.org/1999/xlink" x="0px" y="0px"
	 viewBox="0 0 151.6 138.2" style="enable-background:new 0 0 151.6 138.2;" xml:space="preserve">
<style type="text/css">
	.st0{fill:none;}
	.st1{fill:#FFFFFF;}
	.st2{fill:none;stroke:#FFFFFF;stroke-width:2;stroke-linecap:round;stroke-linejoin:round;}
	.st3{fill:none;stroke:#FFFFFF;stroke-width:2;stroke-linecap:round;}
</style>
<g id="fdb67324-4d00-4b84-b122-a5364d1fa6aa">
	<g id="aaa82628-dd45-4bd1-a282-3151d4347e4b">
		<rect y="0" class="st0" width="151.6" height="138.2"/>
		<path class="st1" d="M19.5,113.5c0,0.2,0.2,0.3,0.3,0.3l0,0h7.5c0.2,0,0.3-0.2,0.3-0.3l0,0v-2c0-0.2-0.2-0.3-0.3-0.3l0,0h-5v-2.4
			h4.1c0.2,0,0.3-0.2,0.3-0.3l0,0v-2c0-0.2-0.2-0.3-0.3-0.3h-4.1V104h5c0.2,0,0.3-0.2,0.3-0.3l0,0v-2c0-0.2-0.2-0.3-0.3-0.3l0,0
			h-7.5c-0.2,0-0.3,0.2-0.3,0.3l0,0V113.5z M31.9,113.5c0,0.2,0.2,0.3,0.3,0.3h2.1c0.2,0,0.3-0.2,0.3-0.3l0,0v-6.7l0,0l7.1,7.1
			c0.1,0,0.1,0.1,0.2,0.1h0.3c0.2,0,0.3-0.1,0.3-0.3v-12.1c0-0.2-0.2-0.3-0.3-0.3H40c-0.2,0-0.3,0.2-0.3,0.3l0,0v6.4l0,0l-7.2-6.9
			H32c-0.2,0-0.3,0.1-0.3,0.3L31.9,113.5z M45.9,112.8c0.7,0.8,1.7,1.3,2.7,1.3c2.1,0.1,3.8-1.5,3.9-3.6c0-0.1,0-0.2,0-0.4v-8.5
			c0-0.2-0.2-0.3-0.3-0.3l0,0H50c-0.2,0-0.3,0.2-0.3,0.3l0,0v8.5c0,0.9-0.6,1.4-1.1,1.4c-0.3,0-0.7-0.1-0.9-0.4
			c-0.1-0.1-0.3-0.1-0.5,0l0,0l-1.2,1.2C45.9,112.4,45.9,112.6,45.9,112.8z M56.3,107.6c0,3.6,2.9,6.5,6.5,6.4
			c3.6,0,6.5-2.9,6.4-6.5c0-3.6-2.9-6.4-6.5-6.4c-3.5,0-6.4,2.8-6.5,6.4C56.3,107.5,56.3,107.6,56.3,107.6z M59.2,107.6
			c0-2,1.6-3.6,3.6-3.6c2,0,3.6,1.6,3.6,3.6s-1.6,3.6-3.6,3.6l0,0C60.8,111.2,59.2,109.6,59.2,107.6z M75.5,113.5
			c0,0.2,0.2,0.3,0.3,0.3l0,0H78c0.2,0,0.3-0.2,0.3-0.3v-5.7l4-6c0.1-0.2,0.1-0.4-0.1-0.5c-0.1,0-0.1-0.1-0.2-0.1h-2.3
			c-0.1,0-0.2,0.1-0.3,0.2l-2.5,3.7l-2.5-3.7c-0.1-0.1-0.2-0.2-0.3-0.2h-2.3c-0.2,0-0.3,0.1-0.3,0.3c0,0.1,0,0.1,0.1,0.2l4,6
			L75.5,113.5L75.5,113.5z M90.6,107.6c0,3.6,2.9,6.5,6.5,6.4c3.6,0,6.5-2.9,6.4-6.5c0-3.6-2.9-6.4-6.5-6.4
			C93.5,101.1,90.6,103.9,90.6,107.6C90.6,107.5,90.6,107.6,90.6,107.6L90.6,107.6z M93.5,107.6c0-2,1.6-3.6,3.6-3.6
			s3.6,1.6,3.6,3.6s-1.6,3.6-3.6,3.6l0,0C95.1,111.2,93.5,109.6,93.5,107.6L93.5,107.6z M107.4,109.1c0.1,2.8,2.4,5.1,5.3,5
			c2.7-0.1,4.9-2.3,5-5v-7.4c0-0.2-0.2-0.3-0.3-0.3h-2.2c-0.2,0-0.3,0.2-0.3,0.3l0,0v7.3c0,1.2-1,2.2-2.2,2.3s-2.2-1-2.3-2.2
			c0,0,0,0,0-0.1v-7.3c0-0.2-0.2-0.3-0.3-0.3l0,0h-2.2c-0.2,0-0.3,0.2-0.3,0.3L107.4,109.1z M122.5,113.5c0,0.2,0.2,0.3,0.3,0.3l0,0
			h2.1c0.2,0,0.3-0.2,0.3-0.3V109h1.2l2.4,4.8c0.1,0.1,0.2,0.2,0.3,0.2h2.4c0.2,0,0.3-0.1,0.4-0.3c0-0.1,0-0.1-0.1-0.2l-2.5-4.6
			c2-0.7,3.1-2.8,2.5-4.8c-0.5-1.6-2-2.7-3.7-2.7h-5.4c-0.2,0-0.3,0.2-0.3,0.3l0,0L122.5,113.5z M125.3,106.7v-2.8h2.7
			c0.8,0,1.4,0.6,1.4,1.4s-0.6,1.4-1.4,1.4H125.3z M33.8,135.7c1.1,1,2.6,1.5,4,1.4c2.2,0.2,4.1-1.5,4.2-3.6v-0.1
			c0-2.4-2.2-3.5-3.6-4.1c-1.4-0.6-2-1.1-2-1.7c0.1-0.6,0.6-1,1.1-0.9c0.9,0.1,1.8,0.5,2.6,1.1c0.2,0.1,0.5,0,0.6-0.2l0.9-1.4
			c0.1-0.2,0.1-0.4-0.1-0.6c-1.1-0.8-2.5-1.3-3.9-1.3c-2.8,0-4.2,1.8-4.2,3.6c0,2.2,1.9,3.4,3.5,4c1.2,0.5,1.9,1.1,1.9,1.8
			c0,0.6-0.5,1.1-1.2,1.1c0,0,0,0-0.1,0c-0.9-0.1-1.8-0.4-2.6-1c-0.2-0.1-0.5-0.1-0.6,0.1l-0.8,1.5
			C33.6,135.4,33.6,135.5,33.8,135.7L33.8,135.7z M46.2,136.5c0,0.2,0.2,0.3,0.3,0.3h2.1c0.2,0,0.3-0.2,0.3-0.3l0,0v-4.7H54v4.7
			c0,0.2,0.2,0.3,0.3,0.3l0,0h2.1c0.2,0,0.3-0.2,0.3-0.3v-11.9c0-0.2-0.2-0.3-0.3-0.3h-2.1c-0.2,0-0.3,0.2-0.3,0.3l0,0v4.5h-5v-4.5
			c0-0.2-0.2-0.3-0.3-0.3l0,0h-2.1c-0.2,0-0.3,0.2-0.3,0.3v11.9H46.2z M60.7,136.9h2c0.3,0,0.5-0.2,0.6-0.4l0.6-1.4h4.9l0.6,1.4
			c0.2,0.3,0.3,0.4,0.6,0.4h2c0.2,0,0.3-0.1,0.3-0.3c0-0.1,0-0.1,0-0.2l-5.6-12.1c-0.1-0.1-0.2-0.2-0.3-0.2h-0.2
			c-0.1,0-0.2,0.1-0.3,0.2l-5.6,12.1c-0.1,0.2,0,0.3,0.1,0.4C60.5,136.9,60.6,136.9,60.7,136.9L60.7,136.9z M65,132.6l1.3-3l0,0
			l1.4,3H65z M75.8,136.5c0,0.2,0.2,0.3,0.3,0.3l0,0h2.1c0.2,0,0.3-0.2,0.3-0.3V132h1.2l2.4,4.8c0.1,0.1,0.2,0.2,0.3,0.2h2.4
			c0.2,0,0.3-0.1,0.4-0.3c0-0.1,0-0.1-0.1-0.2l-2.5-4.6c2-0.7,3.1-2.8,2.5-4.8c-0.5-1.6-2-2.7-3.7-2.7H76c-0.2,0-0.3,0.2-0.3,0.3
			l0,0L75.8,136.5z M78.6,129.7v-2.8h2.7c0.8,0,1.4,0.6,1.4,1.4c0,0.8-0.6,1.4-1.4,1.4H78.6z M89.7,136.5c0,0.2,0.2,0.3,0.3,0.3l0,0
			h7.5c0.2,0,0.3-0.2,0.3-0.3l0,0v-2c0-0.2-0.2-0.3-0.3-0.3l0,0h-5v-2.4h4.1c0.2,0,0.3-0.2,0.3-0.3l0,0v-2c0-0.2-0.2-0.3-0.3-0.3
			h-4.1V127h5c0.2,0,0.3-0.2,0.3-0.3l0,0v-2c0-0.2-0.2-0.3-0.3-0.3l0,0H90c-0.2,0-0.3,0.2-0.3,0.3l0,0V136.5z M101.5,135.7
			c1.1,1,2.6,1.5,4.1,1.4c2.2,0.2,4.1-1.5,4.2-3.6v-0.1c0-2.4-2.2-3.5-3.6-4.1c-1.4-0.6-2-1.1-2-1.7c0.1-0.6,0.6-1,1.1-0.9
			c0.9,0.1,1.8,0.5,2.6,1.1c0.2,0.1,0.5,0,0.6-0.2l0.9-1.4c0.1-0.2,0.1-0.4-0.1-0.6c-1.1-0.8-2.5-1.3-3.9-1.3
			c-2.8,0-4.2,1.8-4.2,3.6c0,2.2,1.9,3.4,3.5,4c1.2,0.5,1.9,1.1,1.9,1.8c0,0.6-0.5,1.1-1.2,1.1c0,0,0,0-0.1,0
			c-0.9-0.1-1.8-0.4-2.6-1c-0.2-0.1-0.5-0.1-0.6,0.1l-0.8,1.5C101.3,135.4,101.4,135.5,101.5,135.7L101.5,135.7z M114.8,132h0.8
			c0.2,0,0.3-0.1,0.3-0.3l0.9-5.1v-2c0-0.2-0.2-0.3-0.3-0.3H114c-0.2,0-0.3,0.2-0.3,0.3v2.1l0.9,5C114.5,131.9,114.7,132,114.8,132
			L114.8,132z M113.5,135.4c0,0.9,0.8,1.7,1.7,1.7c0.9,0,1.7-0.8,1.7-1.7s-0.8-1.7-1.7-1.7C114.2,133.7,113.5,134.4,113.5,135.4
			L113.5,135.4z"/>
		<path class="st2" d="M89.9,48c2.3-2.3-1.4-9.7-8.3-16.4s-14.2-10.4-16.5-8.1s1.4,9.7,8.3,16.4S87.6,50.3,89.9,48z"/>
		<path class="st3" d="M88.5,48.6L53.6,59l10.9-34c-0.7,3,2.9,9.3,8.8,15C79.2,45.7,85.4,49.2,88.5,48.6z"/>
		<path class="st2" d="M83.3,40.6c0,0,6.6-2.6,10.3-1.3s6.2,1.9,8,0.9"/>
		<path class="st2" d="M112.1,25.5c0,0-5-2.1-8.9,1.7s-8,5.4-11.2,4.3"/>
		<path class="st2" d="M83.3,27.6c0,0,4.9,3.5,5.9,0.6s-0.4-4.8,2.2-6.6c1.8-1.1,3.8-1.8,5.9-1.9"/>
		<path class="st2" d="M78.1,12.7c-1.2,1.3-1.8,3-1.8,4.8c-0.2,3.2-0.1,12.3-6.1,18.8"/>
		<path class="st2" d="M70.2,4c0,0-4.2,3.2-1.9,6.1s4.1,9.1,1.8,10.5"/>
		<path class="st2" d="M78.9,4.9c0.5,0,0.9-0.4,0.9-0.9s-0.4-0.9-0.9-0.9S78,3.5,78,4l0,0C78.1,4.5,78.4,4.9,78.9,4.9L78.9,4.9z"/>
		<path class="st2" d="M88.5,13.6c0.5,0,0.9-0.4,0.9-0.9s-0.4-0.9-0.9-0.9s-0.9,0.4-0.9,0.9S88.1,13.6,88.5,13.6L88.5,13.6z"/>
		<path class="st2" d="M100.8,17.1c0.5,0,0.9-0.4,0.9-0.9c0-0.5-0.4-0.9-0.9-0.9s-0.9,0.4-0.9,0.9l0,0
			C99.9,16.7,100.3,17.1,100.8,17.1z"/>
		<path class="st2" d="M107.7,36.3c0.5,0,0.9-0.6,0.9-1.3s-0.4-1.3-0.9-1.3s-0.9,0.6-0.9,1.3S107.3,36.3,107.7,36.3z"/>
	</g>
</g>
</svg>
