<?xml version="1.0" encoding="utf-8"?>
<!-- Generator: Adobe Illustrator 25.4.2, SVG Export Plug-In . SVG Version: 6.00 Build 0)  -->
<svg version="1.1" id="Ebene_1" xmlns="http://www.w3.org/2000/svg" xmlns:xlink="http://www.w3.org/1999/xlink" x="0px" y="0px"
	 viewBox="0 0 151.6 139.3" style="enable-background:new 0 0 151.6 139.3;" xml:space="preserve">
<style type="text/css">
	.st0{fill:none;}
	.st1{fill:#FFFFFF;}
	.st2{fill:none;stroke:#FFFFFF;stroke-width:2;stroke-linecap:square;}
</style>
<g id="a721bcb2-bfdf-4e04-a7d8-8882b2f0f724">
	<g id="e863017a-962d-45c1-bf4f-10a0b867a620">
		<rect y="1.1" class="st0" width="151.6" height="138.2"/>
		<path class="st1" d="M3.4,115.8c0,0.1,0.2,0.2,0.3,0.3H4c0.1,0,0.2-0.1,0.3-0.2l3.3-7.4h0.1l3.3,7.4c0.1,0.1,0.2,0.2,0.3,0.2h0.3
			c0.2,0,0.3-0.1,0.3-0.3l3.4-12.1c0.1-0.2,0-0.3-0.2-0.4c0,0-0.1,0-0.2,0h-2.1c-0.1,0-0.3,0.1-0.3,0.3l-1.5,6.1h-0.1l-2.8-6.3
			c0-0.1-0.2-0.2-0.3-0.2H7.5c-0.1,0-0.3,0.1-0.3,0.2l-2.8,6.3H4.3l-1.5-6.1c0-0.1-0.2-0.2-0.3-0.3H0.3c-0.2,0-0.3,0.1-0.3,0.3
			c0,0.1,0,0.1,0,0.2L3.4,115.8z M19.1,115.6c0,0.2,0.2,0.3,0.3,0.3c0,0,0,0,0,0h7.5c0.2,0,0.3-0.2,0.3-0.3c0,0,0,0,0,0v-2
			c0-0.2-0.2-0.3-0.3-0.3c0,0,0,0,0,0h-5v-2.4H26c0.2,0,0.3-0.2,0.3-0.3c0,0,0,0,0,0v-2c0-0.2-0.2-0.3-0.3-0.3h-4.1v-2.2h5
			c0.2,0,0.3-0.2,0.3-0.3c0,0,0,0,0,0v-2c0-0.2-0.2-0.3-0.3-0.3c0,0,0,0,0,0h-7.5c-0.2,0-0.3,0.2-0.3,0.3c0,0,0,0,0,0V115.6z
			 M36.8,114.7c1.1,1,2.6,1.5,4,1.4c2.2,0.2,4.1-1.5,4.2-3.6c0,0,0-0.1,0-0.1c0-2.4-2.2-3.5-3.6-4.1c-1.4-0.6-2-1.1-2-1.7
			c0.1-0.6,0.6-1,1.1-0.9c0.9,0.1,1.8,0.5,2.6,1.1c0.2,0.1,0.5,0,0.6-0.2l0.9-1.4c0.1-0.2,0.1-0.4-0.1-0.6c-1.1-0.8-2.5-1.3-3.9-1.3
			c-2.8,0-4.2,1.8-4.2,3.6c0,2.2,1.9,3.4,3.5,4c1.2,0.5,1.9,1.1,1.9,1.8c0,0.6-0.5,1.1-1.2,1.1c0,0,0,0-0.1,0
			c-0.9-0.1-1.8-0.4-2.6-1c-0.2-0.1-0.5-0.1-0.6,0.1l-0.8,1.5C36.5,114.4,36.6,114.5,36.8,114.7L36.8,114.7z M49.2,115.6
			c0,0.2,0.2,0.3,0.3,0.3h2.1c0.2,0,0.3-0.2,0.3-0.3c0,0,0,0,0,0v-4.7h5.1v4.7c0,0.2,0.2,0.3,0.3,0.3c0,0,0,0,0,0h2.1
			c0.2,0,0.3-0.2,0.3-0.3v-11.9c0-0.2-0.2-0.3-0.3-0.3h-2.1c-0.2,0-0.3,0.2-0.3,0.3c0,0,0,0,0,0v4.5H52v-4.5c0-0.2-0.2-0.3-0.3-0.3
			c0,0,0,0,0,0h-2.1c-0.2,0-0.3,0.2-0.3,0.3V115.6z M63.6,115.9h2c0.3,0,0.5-0.2,0.6-0.4l0.6-1.4h4.9l0.6,1.4
			c0.2,0.3,0.3,0.4,0.6,0.4h2c0.2,0,0.3-0.1,0.3-0.3c0-0.1,0-0.1,0-0.2l-5.6-12.1c-0.1-0.1-0.2-0.2-0.3-0.2h-0.2
			c-0.1,0-0.2,0.1-0.3,0.2l-5.6,12.1c-0.1,0.2,0,0.3,0.1,0.4C63.5,115.9,63.6,115.9,63.6,115.9L63.6,115.9z M68,111.6l1.3-3h0l1.4,3
			H68z M78.8,115.6c0,0.2,0.2,0.3,0.3,0.3c0,0,0,0,0,0h2.1c0.2,0,0.3-0.2,0.3-0.3V111h1.2l2.4,4.8c0.1,0.1,0.2,0.2,0.3,0.2h2.4
			c0.2,0,0.3-0.1,0.4-0.3c0-0.1,0-0.1-0.1-0.2l-2.5-4.6c2-0.7,3.1-2.8,2.5-4.8c-0.5-1.6-2-2.7-3.7-2.7h-5.4c-0.2,0-0.3,0.2-0.3,0.3
			c0,0,0,0,0,0L78.8,115.6z M81.6,108.7v-2.8h2.7c0.8,0,1.4,0.6,1.4,1.4c0,0.8-0.6,1.4-1.4,1.4H81.6z M92.7,115.6
			c0,0.2,0.2,0.3,0.3,0.3c0,0,0,0,0,0h7.5c0.2,0,0.3-0.2,0.3-0.3c0,0,0,0,0,0v-2c0-0.2-0.2-0.3-0.3-0.3c0,0,0,0,0,0h-5v-2.4h4.1
			c0.2,0,0.3-0.2,0.3-0.3c0,0,0,0,0,0v-2c0-0.2-0.2-0.3-0.3-0.3h-4.1v-2.2h5c0.2,0,0.3-0.2,0.3-0.3c0,0,0,0,0,0v-2
			c0-0.2-0.2-0.3-0.3-0.3c0,0,0,0,0,0h-7.5c-0.2,0-0.3,0.2-0.3,0.3c0,0,0,0,0,0L92.7,115.6z M110.1,109.6c0,3.6,2.9,6.5,6.5,6.4
			c3.6,0,6.5-2.9,6.4-6.5c0-3.6-2.9-6.4-6.5-6.4c-3.5,0-6.4,2.8-6.5,6.4C110.1,109.5,110.1,109.6,110.1,109.6L110.1,109.6z
			 M113,109.6c0-2,1.6-3.6,3.6-3.6c2,0,3.6,1.6,3.6,3.6c0,2-1.6,3.6-3.6,3.6c0,0,0,0,0,0C114.6,113.2,113,111.6,113,109.6L113,109.6
			z M126.9,111.1c0.1,2.8,2.4,5.1,5.3,5c2.7-0.1,4.9-2.3,5-5v-7.4c0-0.2-0.2-0.3-0.3-0.3h-2.2c-0.2,0-0.3,0.2-0.3,0.3c0,0,0,0,0,0
			v7.3c0,1.2-1,2.2-2.2,2.3s-2.2-1-2.3-2.2c0,0,0,0,0-0.1v-7.3c0-0.2-0.2-0.3-0.3-0.3c0,0,0,0,0,0h-2.2c-0.2,0-0.3,0.2-0.3,0.3
			V111.1z M142,115.6c0,0.2,0.2,0.3,0.3,0.3c0,0,0,0,0,0h2.1c0.2,0,0.3-0.2,0.3-0.3V111h1.2l2.4,4.8c0.1,0.1,0.2,0.2,0.3,0.2h2.4
			c0.2,0,0.3-0.1,0.4-0.3c0-0.1,0-0.1-0.1-0.2l-2.5-4.6c2-0.7,3.1-2.8,2.5-4.8c-0.5-1.6-2-2.7-3.7-2.7h-5.4c-0.2,0-0.3,0.2-0.3,0.3
			c0,0,0,0,0,0L142,115.6z M144.8,108.7v-2.8h2.7c0.8,0,1.4,0.6,1.4,1.4c0,0.8-0.6,1.4-1.4,1.4H144.8z M51,138.6
			c0,0.2,0.2,0.3,0.3,0.3h2.2c0.2,0,0.3-0.2,0.3-0.3v-11.9c0-0.2-0.2-0.3-0.3-0.3h-2.2c-0.2,0-0.3,0.2-0.3,0.3V138.6z M58.8,138.6
			c0,0.2,0.1,0.3,0.3,0.3h4.4c3.5,0,6.3-2.8,6.3-6.3c0-3.5-2.8-6.3-6.3-6.3c0,0,0,0,0,0h-4.4c-0.2,0-0.3,0.2-0.3,0.3V138.6z
			 M61.6,136.2v-7.3h1.7c2,0.1,3.6,1.8,3.5,3.8c-0.1,1.9-1.6,3.4-3.5,3.5H61.6z M73.9,138.6c0,0.2,0.2,0.3,0.3,0.3c0,0,0,0,0,0h7.5
			c0.2,0,0.3-0.2,0.3-0.3c0,0,0,0,0,0v-2c0-0.2-0.2-0.3-0.3-0.3c0,0,0,0,0,0h-5v-2.4h4.1c0.2,0,0.3-0.2,0.3-0.3c0,0,0,0,0,0v-2
			c0-0.2-0.2-0.3-0.3-0.3h-4.1v-2.2h5c0.2,0,0.3-0.2,0.3-0.3c0,0,0,0,0,0v-2c0-0.2-0.2-0.3-0.3-0.3c0,0,0,0,0,0h-7.5
			c-0.2,0-0.3,0.2-0.3,0.3c0,0,0,0,0,0V138.6z M85.1,138.9h2c0.3,0,0.5-0.2,0.6-0.4l0.6-1.4h4.9l0.6,1.4c0.2,0.3,0.3,0.4,0.6,0.4h2
			c0.2,0,0.3-0.1,0.3-0.3c0-0.1,0-0.1,0-0.2l-5.6-12.1c-0.1-0.1-0.2-0.2-0.3-0.2h-0.2c-0.1,0-0.2,0.1-0.3,0.2l-5.6,12.1
			c-0.1,0.2,0,0.3,0.1,0.4C84.9,138.9,85,138.9,85.1,138.9L85.1,138.9z M89.4,134.6l1.3-3h0l1.4,3H89.4z M99.6,137.7
			c1.1,1,2.6,1.5,4.1,1.4c2.2,0.2,4.1-1.5,4.2-3.6c0,0,0-0.1,0-0.1c0-2.4-2.2-3.5-3.6-4.1c-1.4-0.6-2-1.1-2-1.7
			c0.1-0.6,0.6-1,1.1-0.9c0.9,0.1,1.8,0.5,2.6,1.1c0.2,0.1,0.5,0,0.6-0.2l0.9-1.4c0.1-0.2,0.1-0.4-0.1-0.6c-1.1-0.8-2.5-1.3-3.9-1.3
			c-2.8,0-4.2,1.8-4.2,3.6c0,2.2,1.9,3.4,3.5,4c1.2,0.5,1.9,1.1,1.9,1.8c0,0.6-0.5,1.1-1.2,1.1c0,0,0,0-0.1,0
			c-0.9-0.1-1.8-0.4-2.6-1c-0.2-0.1-0.5-0.1-0.6,0.1l-0.8,1.5C99.3,137.4,99.4,137.5,99.6,137.7L99.6,137.7z"/>
		<path class="st2" d="M88.5,22c-7-5-16.8-3.4-21.8,3.6c-0.1,0.2-0.2,0.3-0.3,0.5c-3.9,5.6-3.5,14,1,18.8c3,3.1,5.6,6.4,5.8,10.9
			h12.2c1-5.8,2.7-7.5,5.5-10.3C97.3,38.8,96.1,27.2,88.5,22z"/>
		<path class="st2" d="M83.9,64.1c-0.2,0.1-0.2,0.5-0.3,0.8c-0.8,2.4-3.4,3.6-5.8,2.8c-1.3-0.5-2.3-1.5-2.8-2.8
			c-0.1-0.3-0.1-0.7-0.3-0.8c-2.2-1.6-1.3-3.9-1.5-8.4h12.2C85.2,60.2,86.2,62.5,83.9,64.1z"/>
		<path class="st2" d="M57.7,33.7H47"/>
		<path class="st2" d="M48.8,30.7l-2.8,3l2.8,3"/>
		<path class="st2" d="M74.9,38.9c1.3,0,2.3-1,2.3-2.3s-1-2.3-2.3-2.3c-1.3,0-2.3,1-2.3,2.3S73.7,38.9,74.9,38.9L74.9,38.9z"/>
		<path class="st2" d="M83.8,43.5c1.3,0,2.3-1,2.3-2.3s-1-2.3-2.3-2.3c-1.3,0-2.3,1-2.3,2.3S82.5,43.5,83.8,43.5L83.8,43.5z"/>
		<path class="st2" d="M83.8,34.4c1.3,0,2.3-1,2.3-2.3s-1-2.3-2.3-2.3c-1.3,0-2.3,1-2.3,2.3S82.5,34.4,83.8,34.4L83.8,34.4z"/>
		<path class="st2" d="M77,35.7l4.7-2.5"/>
		<path class="st2" d="M76.9,37.7l4.9,2.3"/>
		<path class="st2" d="M100.6,33.7h10.8"/>
		<path class="st2" d="M109.6,30.7l2.8,3l-2.8,3"/>
		<path class="st2" d="M63,50.2l-7.7,7.7"/>
		<path class="st2" d="M58.8,58.6l-4.1-0.2l-0.2-4.1"/>
		<path class="st2" d="M95.5,50.2l7.7,7.7"/>
		<path class="st2" d="M99.7,58.6l4.1-0.2l0.2-4.1"/>
		<path class="st2" d="M63,21.1l-7.7-7.7"/>
		<path class="st2" d="M58.8,12.7l-4.1,0.2l-0.2,4.1"/>
		<path class="st2" d="M95.5,21.1c3-3,4.8-4.8,7.7-7.7"/>
		<path class="st2" d="M99.7,12.7l4.1,0.2l0.2,4.1"/>
		<path class="st2" d="M79.5,12.9v-10"/>
		<path class="st2" d="M82.4,4.1l-3-2.8l-3,2.8"/>
	</g>
</g>
</svg>
