<svg xmlns="http://www.w3.org/2000/svg" viewBox="0 0 35 35"><defs><style>.b1bbc723-b12c-4b15-8e44-cdabf8c114b5,.bb37a074-6781-49a1-b566-1f6f8c9f27ae,.bc1d82bf-8c4a-4aef-b80b-b8befb054b6d{fill:none;}.b1bbc723-b12c-4b15-8e44-cdabf8c114b5,.bb37a074-6781-49a1-b566-1f6f8c9f27ae{stroke:#fff;stroke-linecap:round;}.bb37a074-6781-49a1-b566-1f6f8c9f27ae{stroke-linejoin:round;}</style></defs><g id="b1ef8ef5-4121-4c83-920d-c60055e4b458" data-name="Ebene 2"><g id="b37291b6-68e6-4a4d-9c3c-b2881e28c873" data-name="Ebene 2"><g id="b08282b0-e89b-45b2-8122-7949f16e1665" data-name="high_quality"><rect class="bc1d82bf-8c4a-4aef-b80b-b8befb054b6d" width="35" height="35"/><path class="bb37a074-6781-49a1-b566-1f6f8c9f27ae" d="M17.4981,20.544a6.9907,6.9907,0,1,0-6.9907-6.9906A6.9906,6.9906,0,0,0,17.4981,20.544Z"/><path class="bb37a074-6781-49a1-b566-1f6f8c9f27ae" d="M17.4985,9.7157l1.2482,2.526,2.7859.4048-2.016,1.9664.4762,2.7761-2.4943-1.31-2.4922,1.31.4762-2.7761-2.018-1.9664,2.7879-.4048Z"/><path class="b1bbc723-b12c-4b15-8e44-cdabf8c114b5" d="M16.6041,24.0622l-1.5835,6.4886-1.79-2.0716-2.655.762,1.4823-6.1394h2.8812Z"/><path class="bb37a074-6781-49a1-b566-1f6f8c9f27ae" d="M28.5257,13.5534l-1.4783,2.5577v2.9546L24.49,20.542l-1.4764,2.56H20.0587l-1.6668.9624-.8929.5139-.893-.5159-1.6648-.96H11.9866L10.51,20.542l-2.56-1.4763V16.1111L6.4743,13.5534l1.4763-2.56V8.039l2.56-1.4763,1.4763-2.5578h2.9546L17.499,2.5266l2.56,1.4783h2.9546L24.49,6.5627,27.0474,8.039v2.9546Z"/><path class="b1bbc723-b12c-4b15-8e44-cdabf8c114b5" d="M24.4185,29.2412l-2.6549-.762-1.79,2.0716L18.39,24.0642l1.6668-.9624h2.8812Z"/></g></g></g></svg>