<svg xmlns="http://www.w3.org/2000/svg" viewBox="0 0 32.9997 32.9997"><defs><style>.fbe0c290-5063-4ea7-9ae4-cd867223e69f{fill:#22b2e8;}.ae54d0e4-b659-4c86-83a7-9fd897d46796{fill-rule:evenodd;}</style></defs><g id="b8b7097b-6802-4c65-81a4-40890158141a" data-name="Ebene 2"><g id="a74bfa37-69d2-49c4-ac32-0a8a41a11a67" data-name="Ebene 1"><rect class="fbe0c290-5063-4ea7-9ae4-cd867223e69f" x="6.05" y="5.6679" width="20.8723" height="22.5"/><path class="ae54d0e4-b659-4c86-83a7-9fd897d46796" d="M16.5,33A16.5,16.5,0,1,0,0,16.5,16.5,16.5,0,0,0,16.5,33ZM20.5012,8.44c-1.0439-.0476-1.3571-.0577-4-.0577s-2.9566.01-4.0005.0577a5.4752,5.4752,0,0,0-1.8382.3409A3.2785,3.2785,0,0,0,8.7832,10.66a5.4766,5.4766,0,0,0-.3409,1.8383c-.0476,1.0439-.0577,1.357-.0577,4s.01,2.9565.0577,4a5.4752,5.4752,0,0,0,.3409,1.8382,3.279,3.279,0,0,0,1.8789,1.8789,5.4752,5.4752,0,0,0,1.8382.3409c1.0438.0476,1.3569.0577,4.0005.0577s2.9566-.01,4-.0577a5.4752,5.4752,0,0,0,1.8382-.3409,3.2782,3.2782,0,0,0,1.8789-1.8789,5.4752,5.4752,0,0,0,.3409-1.8382c.0476-1.0439.0577-1.357.0577-4s-.01-2.9565-.0577-4a5.4766,5.4766,0,0,0-.3409-1.8383,3.2785,3.2785,0,0,0-1.8789-1.8788A5.4752,5.4752,0,0,0,20.5012,8.44ZM12.419,6.6585c1.056-.0482,1.3931-.06,4.0818-.06s3.0257.0114,4.0817.06a7.2654,7.2654,0,0,1,2.4031.46A5.0625,5.0625,0,0,1,25.881,10.014a7.2674,7.2674,0,0,1,.46,2.4031c.0482,1.0559.06,1.393.06,4.0817s-.0114,3.0258-.06,4.0817a7.2679,7.2679,0,0,1-.46,2.4031,5.0619,5.0619,0,0,1-2.8954,2.8953,7.2651,7.2651,0,0,1-2.4031.46c-1.056.0482-1.3931.06-4.0817.06s-3.0258-.0114-4.0818-.06a7.2651,7.2651,0,0,1-2.4031-.46,5.0614,5.0614,0,0,1-2.8953-2.8953,7.2651,7.2651,0,0,1-.46-2.4031c-.0482-1.0559-.06-1.3931-.06-4.0817s.0114-3.0258.06-4.0817a7.2645,7.2645,0,0,1,.46-2.4031,5.0619,5.0619,0,0,1,2.8953-2.8954A7.2654,7.2654,0,0,1,12.419,6.6585Zm4.0855,4.761a5.0838,5.0838,0,1,0,5.0838,5.0837A5.0837,5.0837,0,0,0,16.5045,11.42Zm0,8.3837a3.3,3.3,0,1,1,3.3-3.3A3.3,3.3,0,0,1,16.5045,19.8032Zm5.2892-7.3992a1.188,1.188,0,1,0-1.1879-1.188A1.188,1.188,0,0,0,21.7937,12.404Z"/></g></g></svg>