<?xml version="1.0" encoding="utf-8"?>
<!-- Generator: Adobe Illustrator 25.4.2, SVG Export Plug-In . SVG Version: 6.00 Build 0)  -->
<svg version="1.1" id="Ebene_1" xmlns="http://www.w3.org/2000/svg" xmlns:xlink="http://www.w3.org/1999/xlink" x="0px" y="0px"
	 viewBox="0 0 33 33" style="enable-background:new 0 0 33 33;" xml:space="preserve">
<style type="text/css">
	.st0{clip-path:url(#SVGID_00000065755163319372416690000012516534135864061844_);}
	.st1{fill-rule:evenodd;clip-rule:evenodd;fill:#22B2E8;}
</style>
<g>
	<defs>
		<rect id="SVGID_1_" x="6.6" y="6.6" width="19.8" height="19.8"/>
	</defs>
	<clipPath id="SVGID_00000120533877346000246890000008776489252187881858_">
		<use xlink:href="#SVGID_1_"  style="overflow:visible;"/>
	</clipPath>
	<g style="clip-path:url(#SVGID_00000120533877346000246890000008776489252187881858_);">
		<path class="st1" d="M26.3,12.4c0-0.8-0.2-1.6-0.5-2.4c-0.3-0.7-0.6-1.3-1.2-1.8c-0.5-0.5-1.1-0.9-1.8-1.1
			c-0.8-0.3-1.6-0.4-2.4-0.5c-1.1,0-1.4-0.1-4.1-0.1c-2.7,0-3,0-4.1,0.1c-0.8,0-1.6,0.2-2.4,0.5C9.4,7.4,8.8,7.8,8.3,8.3
			C7.8,8.8,7.4,9.4,7.1,10c-0.3,0.8-0.5,1.6-0.5,2.4c-0.1,1-0.1,1.4-0.1,4.1c0,2.7,0,3,0.1,4.1c0,0.8,0.2,1.6,0.5,2.4
			c0.3,0.7,0.6,1.3,1.1,1.8c0.5,0.5,1.1,0.9,1.8,1.1c0.8,0.3,1.6,0.4,2.4,0.5c1.1,0.1,1.4,0.1,4.1,0.1c2.7,0,3,0,4.1-0.1
			c0.8,0,1.6-0.2,2.4-0.5c0.7-0.2,1.3-0.6,1.8-1.1c0.5-0.5,0.9-1.1,1.2-1.8c0.3-0.8,0.4-1.6,0.5-2.4c0-1.1,0.1-1.4,0.1-4.1
			C26.4,13.8,26.4,13.5,26.3,12.4z M24.6,20.5c0,0.6-0.1,1.3-0.3,1.8c-0.2,0.4-0.4,0.8-0.7,1.1s-0.7,0.6-1.1,0.7
			c-0.6,0.2-1.2,0.3-1.8,0.3c-1,0-1.4,0.1-4,0.1c-2.6,0-3,0-4-0.1c-0.6,0-1.2-0.1-1.8-0.3c-0.4-0.2-0.8-0.4-1.1-0.8
			c-0.3-0.3-0.6-0.7-0.7-1.1c-0.2-0.6-0.3-1.2-0.3-1.8c0-1-0.1-1.4-0.1-4c0-2.6,0-3,0.1-4c0-0.6,0.1-1.3,0.3-1.8
			c0.2-0.4,0.4-0.8,0.7-1.1c0.3-0.3,0.7-0.6,1.1-0.7c0.6-0.2,1.2-0.3,1.8-0.3c1-0.1,1.4-0.1,4-0.1c2.6,0,3,0,4,0.1
			c0.6,0,1.2,0.1,1.8,0.3c0.4,0.2,0.8,0.4,1.1,0.7c0.3,0.3,0.6,0.7,0.7,1.1c0.2,0.6,0.3,1.2,0.3,1.8c0,1,0.1,1.4,0.1,4
			C24.6,19.1,24.6,19.4,24.6,20.5z"/>
		<path class="st1" d="M23,11.2c0,0.2-0.1,0.5-0.2,0.7c-0.1,0.2-0.3,0.3-0.5,0.4c-0.2,0.1-0.5,0.1-0.7,0.1c-0.2,0-0.4-0.2-0.6-0.3
			c-0.2-0.2-0.3-0.4-0.3-0.6c0-0.2,0-0.5,0.1-0.7c0.1-0.2,0.2-0.4,0.4-0.5c0.2-0.1,0.4-0.2,0.7-0.2c0.3,0,0.6,0.1,0.8,0.3
			C22.9,10.6,23,10.9,23,11.2z"/>
		<path class="st1" d="M16.5,11.4c-1,0-2,0.3-2.8,0.9c-0.8,0.6-1.5,1.4-1.9,2.3c-0.4,0.9-0.5,2-0.3,2.9c0.2,1,0.7,1.9,1.4,2.6
			c0.7,0.7,1.6,1.2,2.6,1.4c1,0.2,2,0.1,2.9-0.3s1.7-1,2.3-1.9c0.6-0.8,0.9-1.8,0.9-2.8c0-0.7-0.1-1.3-0.4-1.9
			c-0.3-0.6-0.6-1.2-1.1-1.6c-0.5-0.5-1-0.8-1.6-1.1C17.8,11.5,17.2,11.4,16.5,11.4z M16.5,19.8c-0.7,0-1.3-0.2-1.8-0.6
			c-0.5-0.4-1-0.9-1.2-1.5c-0.2-0.6-0.3-1.3-0.2-1.9c0.1-0.6,0.4-1.2,0.9-1.7c0.5-0.5,1-0.8,1.7-0.9c0.6-0.1,1.3-0.1,1.9,0.2
			s1.1,0.7,1.5,1.2c0.4,0.5,0.6,1.2,0.6,1.8c0,0.9-0.3,1.7-1,2.3C18.2,19.4,17.4,19.8,16.5,19.8z"/>
	</g>
</g>
</svg>
