<svg xmlns="http://www.w3.org/2000/svg" xmlns:xlink="http://www.w3.org/1999/xlink" viewBox="0 0 1920 1602"><defs><style>.ade0a937-050c-46d7-a460-a90ee8f3e68c,.bda37646-be7e-4f8f-8cb5-6707e9bc1969{fill:none;}.ad347e1a-cb42-4478-8ea4-bd580c414b1a{fill:#102d45;}.bd0b1719-5fd4-476d-a3f0-391b1f4a49d4{fill:url(#fdd80657-6313-4c78-add3-ccaf8ac8b815);}.a1e54fa0-3d58-40db-aef0-5f1b225e0e10{fill:url(#e9dd9112-e767-41a7-894f-689ac1f12fc9);}.a4ea869e-2799-4676-8ab0-bc3a2dd4a3b7{clip-path:url(#b6bf9722-21ed-41ab-9ee3-4ee1d32583aa);}.ad613e67-b7aa-489b-9d76-4276855f582a,.aef51320-629f-4d2e-8d72-5e0b39d0660e,.f26c1665-7335-4eff-96af-59a2b972275f,.fc467096-5c72-447d-a8e5-97fe815a0d8a{opacity:0.28;}.ac25f913-187a-429a-a155-173685664005,.aef51320-629f-4d2e-8d72-5e0b39d0660e,.bda37646-be7e-4f8f-8cb5-6707e9bc1969,.beafdb57-44e3-48d1-8612-3d832c1a8bf4,.e56ab16b-743a-4c87-8915-94ef3dc975fe,.eb124482-97c5-4a3c-ae22-9346e3977be1,.f26c1665-7335-4eff-96af-59a2b972275f,.f2a5c28c-3e16-4b61-80e9-148c58d9e2bf,.fc264a0a-40ae-41a5-9e94-9a1af14daacc,.fc467096-5c72-447d-a8e5-97fe815a0d8a{isolation:isolate;}.aef51320-629f-4d2e-8d72-5e0b39d0660e{fill:url(#b5bedd8e-bd34-465b-a5cc-00840db38e61);}.beafdb57-44e3-48d1-8612-3d832c1a8bf4,.e56ab16b-743a-4c87-8915-94ef3dc975fe,.fc264a0a-40ae-41a5-9e94-9a1af14daacc{opacity:0.3;}.beafdb57-44e3-48d1-8612-3d832c1a8bf4{fill:url(#f23e79e6-8af1-4b86-9a1c-7ecd2a27d861);}.fc264a0a-40ae-41a5-9e94-9a1af14daacc{fill:url(#b47a0cc0-fac6-4f90-bb41-bb87be8d6561);}.ac7257c1-3bf6-4950-8255-9f30082a6693{fill:url(#b7e37720-629b-454a-a8bb-53859890875b);}.e9dffcc4-74a7-47fe-932a-7a7238b0c445{fill:url(#f0695cae-0f70-47c2-bc24-84f3ac002699);}.ac25f913-187a-429a-a155-173685664005,.eb124482-97c5-4a3c-ae22-9346e3977be1,.f2a5c28c-3e16-4b61-80e9-148c58d9e2bf{opacity:0.6;}.f2a5c28c-3e16-4b61-80e9-148c58d9e2bf{fill:url(#a49174ac-0b4d-4fec-b272-6355ad1ba31c);}.eb124482-97c5-4a3c-ae22-9346e3977be1{fill:url(#b4d244e5-674a-437e-96c0-5cfc57162024);}.ac25f913-187a-429a-a155-173685664005{fill:url(#fea32426-2ba0-43ca-a9a7-c2ae7a328559);}.ba745335-63c3-4cfd-8672-4c19d3ac70db{fill:url(#be91b374-3897-4a7f-8a2d-d39d4afc2454);}.bc6d3739-b36b-4cfd-81b1-8996d84731a4{fill:url(#b536f87e-74e7-4916-83a2-d9c87f6dad25);}.b7155dda-2054-4f2c-8939-b3677d0af924{fill:url(#a73907ad-b22d-4616-afa3-2f0eb1164041);}.bc0e108d-f1d0-4572-8202-bea3ef8d42ae,.bf7130c6-9b1b-416d-9a32-3f828e490d06{fill-opacity:0.4;}.bc0e108d-f1d0-4572-8202-bea3ef8d42ae{fill:url(#eff04b36-8191-4f8a-917b-b5257866f882);}.bf7130c6-9b1b-416d-9a32-3f828e490d06{fill:url(#b4707368-0510-41a7-bea2-77b01cc22396);}.f69d8788-0177-40b6-949b-024110b20ed1{fill:url(#a01e26c1-89b4-41f3-8162-a31e1c02e995);}.bda37646-be7e-4f8f-8cb5-6707e9bc1969{stroke:#00b0b0;stroke-linecap:round;stroke-linejoin:round;opacity:0.4;}.f26c1665-7335-4eff-96af-59a2b972275f{fill:url(#e15f2afc-b565-4c63-879b-0a8f79593904);}.b6419a6e-3b1e-4ae6-bfd9-4988f1c61874{fill:url(#bc9fb656-0d9c-442a-bc1e-de19e112f159);}.ae70432c-2d80-488d-a2f3-44d9e534b7d9{fill:url(#f800e35b-32e7-4a72-9dd0-4dbd39d1cf21);}.ae0588ed-d89b-4bd4-8317-37f9bb381d45{fill:url(#f99bdb47-3613-453f-8b85-db6ee263c378);}.e56ab16b-743a-4c87-8915-94ef3dc975fe{fill:url(#ec123fdf-30d0-4f6e-a896-9b9bd87d1854);}.a37185bf-ef3c-4e56-9059-80ffc8a03d46{clip-path:url(#a451f42e-bc0c-462d-a6a6-aba139225789);}.fc467096-5c72-447d-a8e5-97fe815a0d8a{fill:url(#b0a18c27-db03-4fae-a678-2bc541225fb3);}.f53e2f37-6ee2-439b-a5d8-0c84beab9576{fill:url(#e3ba7a80-9495-4b31-8990-638e8eb77427);}.ae62404a-199d-4577-b042-857f262bb768{fill:url(#ad52eca9-6d73-4c38-a9ae-d4ff6f67d1e2);}.e57401ca-9d03-429c-8154-bb75bc805cd5{fill:url(#f90ba4fb-f8fb-469a-a6ae-e544cf9198b9);}.bfbd6798-8202-4902-89ea-fcb6d15119ed{fill:url(#e731445b-c097-4265-92a7-7f0e0645de81);}.ae45f307-a3b3-4e82-b0d4-770dcd231662{fill:url(#b6aa371d-a785-430d-8456-2adc0611ae62);}.bb590a01-a669-4e8d-b792-23426a083ab2{fill:url(#a9d60bb3-c098-4245-b764-a606c7008cc1);}.fb159e3d-117f-4706-9d20-acd9c9624acc{fill:url(#a81be78c-dc09-47ec-aaf9-da724e7af6b6);}.fd8265f4-9cd8-41eb-a81c-caa19ebd7f05{fill:url(#f80df60a-f2c1-41df-a13c-8ac63fdf8bfa);}.b0e47051-c251-465c-8be2-8d2bd4432c19{fill:url(#bbeaef29-1c89-4ba6-80a0-f3fffe47943e);}</style><radialGradient id="fdd80657-6313-4c78-add3-ccaf8ac8b815" cx="614.9846" cy="1175.7204" r="1.0001" gradientTransform="matrix(3.1406, 10.9381, 10.9381, -3.1406, -14704.2391, -2965.8942)" gradientUnits="userSpaceOnUse"><stop offset="0" stop-color="#69c6e1"/><stop offset="0.26" stop-color="#69c6e1"/><stop offset="0.35" stop-color="#61bbdb" stop-opacity="0.87"/><stop offset="0.54" stop-color="#4f9fcd" stop-opacity="0.53"/><stop offset="0.82" stop-color="#3074b6" stop-opacity="0"/></radialGradient><radialGradient id="e9dd9112-e767-41a7-894f-689ac1f12fc9" cx="553.4358" cy="1116.0188" r="1.0001" gradientTransform="matrix(1.3799, 4.8058, 4.8058, -1.3799, -4511.1101, -484.7482)" xlink:href="#fdd80657-6313-4c78-add3-ccaf8ac8b815"/><clipPath id="b6bf9722-21ed-41ab-9ee3-4ee1d32583aa"><rect class="ade0a937-050c-46d7-a460-a90ee8f3e68c" x="1446" y="125" width="73" height="75"/></clipPath><radialGradient id="b5bedd8e-bd34-465b-a5cc-00840db38e61" cx="648.8604" cy="1207.8543" r="1.0003" gradientTransform="matrix(10.069, 36.4786, 35.3938, -9.7696, -47801.9854, -11706.3563)" gradientUnits="userSpaceOnUse"><stop offset="0" stop-color="#66b330"/><stop offset="0.26" stop-color="#66b330"/><stop offset="0.38" stop-color="#65b232" stop-opacity="0.98"/><stop offset="0.47" stop-color="#62b036" stop-opacity="0.93"/><stop offset="0.54" stop-color="#5eaa43" stop-opacity="0.85"/><stop offset="0.61" stop-color="#55a152" stop-opacity="0.72"/><stop offset="0.67" stop-color="#4e9769" stop-opacity="0.57"/><stop offset="0.73" stop-color="#458b83" stop-opacity="0.37"/><stop offset="0.79" stop-color="#397ca2" stop-opacity="0.15"/><stop offset="0.82" stop-color="#3074b6" stop-opacity="0"/></radialGradient><radialGradient id="f23e79e6-8af1-4b86-9a1c-7ecd2a27d861" cx="668.3529" cy="1243.3531" r="1" gradientTransform="matrix(9.831, -34.2398, -34.2398, -9.831, 37833.6172, 35254.7815)" gradientUnits="userSpaceOnUse"><stop offset="0" stop-color="#69c6e1"/><stop offset="0.13" stop-color="#68c5e0" stop-opacity="0.98"/><stop offset="0.24" stop-color="#66c1de" stop-opacity="0.94"/><stop offset="0.35" stop-color="#61bbdc" stop-opacity="0.86"/><stop offset="0.45" stop-color="#59b1d6" stop-opacity="0.75"/><stop offset="0.55" stop-color="#52a5d0" stop-opacity="0.6"/><stop offset="0.65" stop-color="#4895c8" stop-opacity="0.42"/><stop offset="0.74" stop-color="#3b85c0" stop-opacity="0.22"/><stop offset="0.82" stop-color="#3074b6" stop-opacity="0"/></radialGradient><radialGradient id="b47a0cc0-fac6-4f90-bb41-bb87be8d6561" cx="668.3529" cy="1243.3531" r="1" gradientTransform="matrix(9.831, -34.2398, -34.2398, -9.831, 36139.6183, 35713.7815)" xlink:href="#f23e79e6-8af1-4b86-9a1c-7ecd2a27d861"/><radialGradient id="b7e37720-629b-454a-a8bb-53859890875b" cx="614.9845" cy="1175.7204" r="1.0001" gradientTransform="matrix(3.1406, 10.9381, 10.9381, -3.1406, -13494.2363, -2316.8939)" xlink:href="#fdd80657-6313-4c78-add3-ccaf8ac8b815"/><radialGradient id="f0695cae-0f70-47c2-bc24-84f3ac002699" cx="614.9845" cy="1175.7204" r="1.0001" gradientTransform="matrix(3.1406, 10.9381, 10.9381, -3.1406, -13542.2363, -2802.8939)" xlink:href="#fdd80657-6313-4c78-add3-ccaf8ac8b815"/><radialGradient id="a49174ac-0b4d-4fec-b272-6355ad1ba31c" cx="664.13" cy="1260.9027" r="1" gradientTransform="matrix(9.5, -17.5, -17.5, -9.5, 17573.5635, 24308.8313)" xlink:href="#fdd80657-6313-4c78-add3-ccaf8ac8b815"/><radialGradient id="b4d244e5-674a-437e-96c0-5cfc57162024" cx="664.13" cy="1260.9027" r="1" gradientTransform="matrix(9.5, -17.5, -17.5, -9.5, 17123.5735, 23705.8313)" xlink:href="#fdd80657-6313-4c78-add3-ccaf8ac8b815"/><radialGradient id="fea32426-2ba0-43ca-a9a7-c2ae7a328559" cx="664.13" cy="1260.9027" r="1" gradientTransform="matrix(9.5, -17.5, -17.5, -9.5, 17603.5735, 25130.8313)" xlink:href="#fdd80657-6313-4c78-add3-ccaf8ac8b815"/><radialGradient id="be91b374-3897-4a7f-8a2d-d39d4afc2454" cx="574.475" cy="1163.0749" r="1" gradientTransform="matrix(3.0208, 6.3934, 6.6491, -3.1416, -7779.632, 262.0562)" gradientUnits="userSpaceOnUse"><stop offset="0" stop-color="#fff"/><stop offset="0.06" stop-color="#fdfefc"/><stop offset="0.11" stop-color="#f5f9f1"/><stop offset="0.16" stop-color="#e7f1df"/><stop offset="0.2" stop-color="#d4e7c4"/><stop offset="0.24" stop-color="#bedaa5"/><stop offset="0.29" stop-color="#a0cb7c"/><stop offset="0.33" stop-color="#7ebc4f"/><stop offset="0.35" stop-color="#66b330"/><stop offset="0.46" stop-color="#65b232" stop-opacity="0.98"/><stop offset="0.54" stop-color="#62b036" stop-opacity="0.93"/><stop offset="0.6" stop-color="#5eaa43" stop-opacity="0.85"/><stop offset="0.66" stop-color="#55a152" stop-opacity="0.72"/><stop offset="0.72" stop-color="#4e9769" stop-opacity="0.57"/><stop offset="0.77" stop-color="#458b83" stop-opacity="0.37"/><stop offset="0.82" stop-color="#397ca2" stop-opacity="0.15"/><stop offset="0.85" stop-color="#3074b6" stop-opacity="0"/></radialGradient><radialGradient id="b536f87e-74e7-4916-83a2-d9c87f6dad25" cx="614.9845" cy="1175.7204" r="1.0001" gradientTransform="matrix(3.1406, 10.9381, 10.9381, -3.1406, -13143.2363, -2760.8939)" xlink:href="#fdd80657-6313-4c78-add3-ccaf8ac8b815"/><radialGradient id="a73907ad-b22d-4616-afa3-2f0eb1164041" cx="614.9845" cy="1175.7204" r="1.0001" gradientTransform="matrix(3.1406, 10.9381, 10.9381, -3.1406, -13034.2363, -2741.8939)" xlink:href="#fdd80657-6313-4c78-add3-ccaf8ac8b815"/><radialGradient id="eff04b36-8191-4f8a-917b-b5257866f882" cx="614.9845" cy="1175.7204" r="1.0001" gradientTransform="matrix(3.1406, 10.9381, 10.9381, -3.1406, -13080.2363, -2712.8939)" xlink:href="#fdd80657-6313-4c78-add3-ccaf8ac8b815"/><radialGradient id="b4707368-0510-41a7-bea2-77b01cc22396" cx="614.9845" cy="1175.7204" r="1.0001" gradientTransform="matrix(3.1406, 10.9381, 10.9381, -3.1406, -12936.2363, -2721.8939)" xlink:href="#fdd80657-6313-4c78-add3-ccaf8ac8b815"/><radialGradient id="a01e26c1-89b4-41f3-8162-a31e1c02e995" cx="614.9845" cy="1175.7204" r="1.0001" gradientTransform="matrix(3.1406, 10.9381, 10.9381, -3.1406, -13163.2363, -2862.8939)" xlink:href="#fdd80657-6313-4c78-add3-ccaf8ac8b815"/><radialGradient id="e15f2afc-b565-4c63-879b-0a8f79593904" cx="642.2123" cy="1201.4867" r="1.0003" gradientTransform="matrix(7, 25, 24.5556, -6.8756, -32171.3488, -7571.0519)" xlink:href="#b5bedd8e-bd34-465b-a5cc-00840db38e61"/><radialGradient id="bc9fb656-0d9c-442a-bc1e-de19e112f159" cx="614.9845" cy="1175.7204" r="1.0001" gradientTransform="matrix(3.1406, 10.9381, 10.9381, -3.1406, -14469.2393, -2167.8939)" xlink:href="#fdd80657-6313-4c78-add3-ccaf8ac8b815"/><radialGradient id="f800e35b-32e7-4a72-9dd0-4dbd39d1cf21" cx="553.4358" cy="1116.0188" r="1.0001" gradientTransform="matrix(1.3799, 4.8058, 4.8058, -1.3799, -5232.11, -301.7482)" xlink:href="#fdd80657-6313-4c78-add3-ccaf8ac8b815"/><radialGradient id="f99bdb47-3613-453f-8b85-db6ee263c378" cx="553.4358" cy="1116.0188" r="1.0001" gradientTransform="matrix(1.3799, 4.8058, 4.8058, -1.3799, -5478.11, -826.7482)" xlink:href="#fdd80657-6313-4c78-add3-ccaf8ac8b815"/><radialGradient id="ec123fdf-30d0-4f6e-a896-9b9bd87d1854" cx="669.5727" cy="1233.6738" r="1" gradientTransform="matrix(0.2239, -59.5309, -59.5309, -0.2239, 73352.4063, 41647.1303)" xlink:href="#f23e79e6-8af1-4b86-9a1c-7ecd2a27d861"/><clipPath id="a451f42e-bc0c-462d-a6a6-aba139225789"><rect class="ade0a937-050c-46d7-a460-a90ee8f3e68c" x="340" y="1448" width="73" height="75"/></clipPath><radialGradient id="b0a18c27-db03-4fae-a678-2bc541225fb3" cx="648.8604" cy="1207.8543" r="1.0003" gradientTransform="matrix(10.069, 36.4786, 35.3938, -9.7696, -48907.9834, -10383.3544)" xlink:href="#b5bedd8e-bd34-465b-a5cc-00840db38e61"/><radialGradient id="e3ba7a80-9495-4b31-8990-638e8eb77427" cx="614.9849" cy="1175.7204" r="0.9999" gradientTransform="matrix(3.1406, 10.9381, 10.9381, -3.1406, -14633.2393, -1770.8979)" xlink:href="#fdd80657-6313-4c78-add3-ccaf8ac8b815"/><radialGradient id="ad52eca9-6d73-4c38-a9ae-d4ff6f67d1e2" cx="553.4358" cy="1116.0188" r="1.0001" gradientTransform="matrix(1.3799, 4.8058, 4.8058, -1.3799, -5529.11, -224.7482)" xlink:href="#fdd80657-6313-4c78-add3-ccaf8ac8b815"/><radialGradient id="f90ba4fb-f8fb-469a-a6ae-e544cf9198b9" cx="553.4368" cy="1116.0188" r="0.9996" gradientTransform="matrix(1.3799, 4.8058, 4.8058, -1.3799, -5409.11, 64.2468)" xlink:href="#fdd80657-6313-4c78-add3-ccaf8ac8b815"/><radialGradient id="e731445b-c097-4265-92a7-7f0e0645de81" cx="553.4368" cy="1116.0188" r="0.9996" gradientTransform="matrix(1.3799, 4.8058, 4.8058, -1.3799, -4695.1101, -24.7532)" xlink:href="#fdd80657-6313-4c78-add3-ccaf8ac8b815"/><radialGradient id="b6aa371d-a785-430d-8456-2adc0611ae62" cx="553.4358" cy="1116.0188" r="1.0001" gradientTransform="matrix(1.3799, 4.8058, 4.8058, -1.3799, -4333.1101, -180.7482)" xlink:href="#fdd80657-6313-4c78-add3-ccaf8ac8b815"/><radialGradient id="a9d60bb3-c098-4245-b764-a606c7008cc1" cx="553.4358" cy="1116.0188" r="1.0001" gradientTransform="matrix(1.3799, 4.8058, 4.8058, -1.3799, -4305.1101, -230.7482)" xlink:href="#fdd80657-6313-4c78-add3-ccaf8ac8b815"/><radialGradient id="a81be78c-dc09-47ec-aaf9-da724e7af6b6" cx="553.4368" cy="1116.0188" r="0.9996" gradientTransform="matrix(1.3799, 4.8058, 4.8058, -1.3799, -4889.1101, 258.2468)" xlink:href="#fdd80657-6313-4c78-add3-ccaf8ac8b815"/><radialGradient id="f80df60a-f2c1-41df-a13c-8ac63fdf8bfa" cx="553.4368" cy="1116.0188" r="0.9996" gradientTransform="matrix(1.3799, 4.8058, 4.8058, -1.3799, -5563.11, 248.2468)" xlink:href="#fdd80657-6313-4c78-add3-ccaf8ac8b815"/><radialGradient id="bbeaef29-1c89-4ba6-80a0-f3fffe47943e" cx="553.4358" cy="1116.0188" r="1.0001" gradientTransform="matrix(1.3799, 4.8058, 4.8058, -1.3799, -5798.11, -125.7482)" xlink:href="#fdd80657-6313-4c78-add3-ccaf8ac8b815"/></defs><g id="aab09938-cd93-478a-97d7-7ddb55b6e787" data-name="Ebene 2"><g id="ac10d979-7cf8-4f9a-83f8-80a9117438ac" data-name="Ebene 1"><rect class="ad347e1a-cb42-4478-8ea4-bd580c414b1a" width="1920" height="1602"/><path class="bd0b1719-5fd4-476d-a3f0-391b1f4a49d4" d="M87.38,79.76A11.38,11.38,0,1,0,76,68.38,11.38,11.38,0,0,0,87.38,79.76Z"/><path class="a1e54fa0-3d58-40db-aef0-5f1b225e0e10" d="M1616,640a5,5,0,1,0-5-5A5.0012,5.0012,0,0,0,1616,640Z"/><g class="a4ea869e-2799-4676-8ab0-bc3a2dd4a3b7"><g class="ad613e67-b7aa-489b-9d76-4276855f582a"><path class="aef51320-629f-4d2e-8d72-5e0b39d0660e" d="M1517.44,173.47c6.04-19.812-4.67-40.757-23.9-46.781-19.24-6.025-39.72,5.151-45.75,24.963s4.67,40.757,23.91,46.781C1490.93,204.458,1511.41,193.282,1517.44,173.47Z"/></g></g><path class="beafdb57-44e3-48d1-8612-3d832c1a8bf4" d="M1866.31,156.902a35.6234,35.6234,0,1,0-44.07,24.409A35.6241,35.6241,0,0,0,1866.31,156.902Z"/><path class="fc264a0a-40ae-41a5-9e94-9a1af14daacc" d="M172.311,615.902a35.6234,35.6234,0,1,0-44.071,24.409A35.6243,35.6243,0,0,0,172.311,615.902Z"/><path class="ac7257c1-3bf6-4950-8255-9f30082a6693" d="M1297.38,728.76A11.38,11.38,0,1,0,1286,717.38,11.3768,11.3768,0,0,0,1297.38,728.76Z"/><path class="e9dffcc4-74a7-47fe-932a-7a7238b0c445" d="M1249.38,242.76A11.38,11.38,0,1,0,1238,231.38,11.3768,11.3768,0,0,0,1249.38,242.76Z"/><path class="f2a5c28c-3e16-4b61-80e9-148c58d9e2bf" d="M1837.48,709.149a20.2965,20.2965,0,1,0-21.21,19.343A20.295,20.295,0,0,0,1837.48,709.149Z"/><path class="eb124482-97c5-4a3c-ae22-9346e3977be1" d="M1387.49,106.148a20.2966,20.2966,0,1,0-21.21,19.344A20.2944,20.2944,0,0,0,1387.49,106.148Z"/><path class="ac25f913-187a-429a-a155-173685664005" d="M1867.49,1531.15a20.2966,20.2966,0,1,0-21.21,19.34A20.2873,20.2873,0,0,0,1867.49,1531.15Z"/><g class="ad613e67-b7aa-489b-9d76-4276855f582a"><path class="ba745335-63c3-4cfd-8672-4c19d3ac70db" d="M1696.76,280.619a7.8477,7.8477,0,1,0-7.84,7.5A7.6757,7.6757,0,0,0,1696.76,280.619Z"/><path class="bc6d3739-b36b-4cfd-81b1-8996d84731a4" d="M1648.38,284.76A11.38,11.38,0,1,0,1637,273.38,11.3768,11.3768,0,0,0,1648.38,284.76Z"/><path class="b7155dda-2054-4f2c-8939-b3677d0af924" d="M1757.38,303.76A11.38,11.38,0,1,0,1746,292.38,11.3768,11.3768,0,0,0,1757.38,303.76Z"/><path class="bc0e108d-f1d0-4572-8202-bea3ef8d42ae" d="M1711.38,332.76A11.38,11.38,0,1,0,1700,321.38,11.3768,11.3768,0,0,0,1711.38,332.76Z"/><path class="bf7130c6-9b1b-416d-9a32-3f828e490d06" d="M1855.38,323.76A11.38,11.38,0,1,0,1844,312.38,11.3768,11.3768,0,0,0,1855.38,323.76Z"/><path class="f69d8788-0177-40b6-949b-024110b20ed1" d="M1628.38,182.76A11.38,11.38,0,1,0,1617,171.38,11.3768,11.3768,0,0,0,1628.38,182.76Z"/><path class="bda37646-be7e-4f8f-8cb5-6707e9bc1969" d="M1649.21,273.4l61.07,47.41,145.06-8.27Zm0,0L1627.5,170.5l82.78,150.31,47.52-26.79L1627.5,170.5l157.25,128.52"/><path class="f26c1665-7335-4eff-96af-59a2b972275f" d="M1852.02,230.538a25.3459,25.3459,0,1,0-31.81,17.108A25.5379,25.5379,0,0,0,1852.02,230.538Z"/></g><path class="b6419a6e-3b1e-4ae6-bfd9-4988f1c61874" d="M322.38,877.76A11.38,11.38,0,1,0,311,866.38,11.38,11.38,0,0,0,322.38,877.76Z"/><path class="ae70432c-2d80-488d-a2f3-44d9e534b7d9" d="M895,823a5,5,0,1,0-5-5A5.0005,5.0005,0,0,0,895,823Z"/><path class="ae0588ed-d89b-4bd4-8317-37f9bb381d45" d="M649,298a5,5,0,1,0-5-5A5.0005,5.0005,0,0,0,649,298Z"/><path class="e56ab16b-743a-4c87-8915-94ef3dc975fe" d="M120.178,1510.87a59.5312,59.5312,0,1,0-59.7546,59.31A59.5231,59.5231,0,0,0,120.178,1510.87Z"/><g class="a37185bf-ef3c-4e56-9059-80ffc8a03d46"><g class="ad613e67-b7aa-489b-9d76-4276855f582a"><path class="fc467096-5c72-447d-a8e5-97fe815a0d8a" d="M411.445,1496.47c6.031-19.81-4.673-40.76-23.908-46.78-19.234-6.03-39.715,5.15-45.746,24.96s4.673,40.76,23.907,46.78C384.933,1527.46,405.414,1516.28,411.445,1496.47Z"/></g></g><path class="f53e2f37-6ee2-439b-a5d8-0c84beab9576" d="M158.38,1274.76A11.38,11.38,0,1,0,147,1263.38,11.3768,11.3768,0,0,0,158.38,1274.76Z"/><path class="ae62404a-199d-4577-b042-857f262bb768" d="M598,900a5,5,0,1,0-5-5A5.0005,5.0005,0,0,0,598,900Z"/><path class="e57401ca-9d03-429c-8154-bb75bc805cd5" d="M718,1189a5,5,0,1,0-5-5A5.0012,5.0012,0,0,0,718,1189Z"/><path class="bfbd6798-8202-4902-89ea-fcb6d15119ed" d="M1432,1100a5,5,0,1,0-5-5A5.0018,5.0018,0,0,0,1432,1100Z"/><path class="ae45f307-a3b3-4e82-b0d4-770dcd231662" d="M1794,944a5,5,0,1,0-5-5A5.0012,5.0012,0,0,0,1794,944Z"/><path class="bb590a01-a669-4e8d-b792-23426a083ab2" d="M1822,894a5,5,0,1,0-5-5A5.0012,5.0012,0,0,0,1822,894Z"/><path class="fb159e3d-117f-4706-9d20-acd9c9624acc" d="M1238,1383a5,5,0,1,0-5-5A5.0018,5.0018,0,0,0,1238,1383Z"/><path class="fd8265f4-9cd8-41eb-a81c-caa19ebd7f05" d="M564,1373a5,5,0,1,0-5-5A5.0012,5.0012,0,0,0,564,1373Z"/><path class="b0e47051-c251-465c-8be2-8d2bd4432c19" d="M329,999a5,5,0,1,0-5-5A5.0005,5.0005,0,0,0,329,999Z"/></g></g></svg>