<svg xmlns="http://www.w3.org/2000/svg" viewBox="-352 182.3 253.3 196.7" enable-background="new -352 182.3 253.3 196.7"><g fill="#fff"><path d="M-250.8 380.5c-35.4-10.3-64.7-27.9-83.6-59.9-16.7-28.4-22.2-58.7-13.4-90.7 7.7-28 31.6-46.1 58.5-45.6 21.2.4 39.4 13.5 46.5 33.3 6.4 18 .7 38.9-14.2 51.7-12.4 10.7-31.4 12.7-46.4 4.9-8.5-4.4-12.7-2-12.3 7.7 1.2 30.4 15 54.1 39.4 71.6 6.3 4.5 13.3 8.2 20.4 11.5 3.9 1.8 5.9 3.7 5.2 8.1-.4 2.1-.1 4.3-.1 7.4z"/><path d="M-109.2 381c-8.6-3.2-16.3-5.7-23.7-9-43.4-19.2-69.9-51.8-76.4-99.2-3.3-24-.5-47.3 15.9-67.1 16.4-19.8 44-27 65.8-16.6 30.1 14.3 40.4 53.5 12.8 79.3-12.2 11.4-31.6 13.7-47.1 5.8-8.7-4.4-12.5-2.3-12.2 7.6.9 31.1 15.5 54.9 40.5 72.6 5.9 4.2 12.5 7.7 19.2 10.6 4.3 1.9 5.9 4.1 5.3 8.6-.3 2-.1 4-.1 7.4z"/></g></svg>