<?xml version="1.0" encoding="utf-8"?>
<!-- Generator: Adobe Illustrator 19.0.0, SVG Export Plug-In . SVG Version: 6.00 Build 0)  -->
<svg version="1.1" id="Ebene_1" xmlns="http://www.w3.org/2000/svg" xmlns:xlink="http://www.w3.org/1999/xlink" x="0px" y="0px"
	 viewBox="-352 182.3 253.3 196.7" style="enable-background:new -352 182.3 253.3 196.7;" xml:space="preserve">
<g fill="white">
	<path id="XMLID_59_" d="M-250.8,380.5c-35.4-10.3-64.7-27.9-83.6-59.9c-16.7-28.4-22.2-58.7-13.4-90.7c7.7-28,31.6-46.1,58.5-45.6
		c21.2,0.4,39.4,13.5,46.5,33.3c6.4,18,0.7,38.9-14.2,51.7c-12.4,10.7-31.4,12.7-46.4,4.9c-8.5-4.4-12.7-2-12.3,7.7
		c1.2,30.4,15,54.1,39.4,71.6c6.3,4.5,13.3,8.2,20.4,11.5c3.9,1.8,5.9,3.7,5.2,8.1C-251.1,375.2-250.8,377.4-250.8,380.5z"/>
	<path id="XMLID_56_" d="M-109.2,381c-8.6-3.2-16.3-5.7-23.7-9c-43.4-19.2-69.9-51.8-76.4-99.2c-3.3-24-0.5-47.3,15.9-67.1
		c16.4-19.8,44-27,65.8-16.6c30.1,14.3,40.4,53.5,12.8,79.3c-12.2,11.4-31.6,13.7-47.1,5.8c-8.7-4.4-12.5-2.3-12.2,7.6
		c0.9,31.1,15.5,54.9,40.5,72.6c5.9,4.2,12.5,7.7,19.2,10.6c4.3,1.9,5.9,4.1,5.3,8.6C-109.4,375.6-109.2,377.6-109.2,381z"/>
</g>
</svg>
