<?xml version="1.0" encoding="utf-8"?>
<!-- Generator: Adobe Illustrator 19.0.0, SVG Export Plug-In . SVG Version: 6.00 Build 0)  -->
<svg version="1.1" id="Ebene_1" xmlns="http://www.w3.org/2000/svg" xmlns:xlink="http://www.w3.org/1999/xlink" x="0px" y="0px"
	 width="800px" height="88px" viewBox="0 0 800 88" style="enable-background:new 0 0 800 88;" xml:space="preserve">
<style type="text/css">
	.st0{fill:#FFFFFF;}
</style>
<g id="sb_x5F_logo">
	<path class="st0" d="M0.6,74.8L5,67.2c1-1.7,3.1-1.7,4.2-0.9c0.6,0.4,10.5,7.6,18.5,7.6c6.4,0,11.1-4.2,11.1-9.4
		c0-6.2-5.3-10.5-15.5-14.7c-11.5-4.6-23-12-23-26.4C0.2,12.6,8.3,0,27.7,0c12.5,0,22,6.4,24.4,8.2c1.2,0.7,1.6,2.8,0.7,4l-4.6,7
		c-1,1.5-2.8,2.4-4.3,1.5c-1-0.6-10.3-6.7-17-6.7c-7,0-10.8,4.6-10.8,8.6c0,5.7,4.5,9.7,14.4,13.7C42.5,40.9,56.2,48,56.2,63.8
		C56.2,76.4,45.3,88,28.1,88c-15.4,0-24.4-7.2-26.9-9.5C0.1,77.4-0.5,76.7,0.6,74.8z"/>
	<path class="st0" d="M92,3.5c0-1.2,1-2.3,2.3-2.3h49.7c1.3,0,2.3,1.1,2.3,2.3v10c0,1.2-1,2.3-2.3,2.3h-36.2v20h30.2
		c1.2,0,2.3,1.1,2.3,2.3v10.1c0,1.3-1.1,2.3-2.3,2.3h-30.2v21.4h36.2c1.3,0,2.3,1.1,2.3,2.3v10c0,1.2-1,2.3-2.3,2.3H94.3
		c-1.3,0-2.3-1.1-2.3-2.3V3.5z"/>
	<path class="st0" d="M186.5,3.5c0-1.2,1.1-2.3,2.3-2.3h11.4c1.2,0,2.3,1.1,2.3,2.3v80.9c0,1.2-1.1,2.3-2.3,2.3h-11.4
		c-1.2,0-2.3-1.1-2.3-2.3V3.5z"/>
	<path class="st0" d="M259.8,15.9h-18.7c-1.3,0-2.3-1.1-2.3-2.3v-10c0-1.2,1-2.3,2.3-2.3h53.4c1.3,0,2.3,1.1,2.3,2.3v10
		c0,1.2-1,2.3-2.3,2.3h-18.7v68.6c0,1.2-1.1,2.3-2.3,2.3h-11.4c-1.2,0-2.3-1.1-2.3-2.3V15.9z"/>
	<path class="st0" d="M332.8,3.5c0-1.2,1-2.3,2.3-2.3h49.7c1.3,0,2.3,1.1,2.3,2.3v10c0,1.2-1,2.3-2.3,2.3h-36.2v20h30.2
		c1.2,0,2.3,1.1,2.3,2.3v10.1c0,1.3-1.1,2.3-2.3,2.3h-30.2v21.4h36.2c1.3,0,2.3,1.1,2.3,2.3v10c0,1.2-1,2.3-2.3,2.3h-49.7
		c-1.3,0-2.3-1.1-2.3-2.3V3.5z"/>
	<path class="st0" d="M426.6,2.2c0-1.2,1.1-2.2,2.3-2.2h3.1l50.8,54h0.1V3.5c0-1.2,1-2.3,2.3-2.3h11.2c1.2,0,2.3,1.1,2.3,2.3v82.2
		c0,1.2-1.1,2.2-2.3,2.2h-2.9l-51.1-56.1h-0.1v52.6c0,1.2-1,2.3-2.3,2.3H429c-1.2,0-2.3-1.1-2.3-2.3V2.2z"/>
	<path class="st0" d="M541.9,3.5c0-1.2,1-2.3,2.3-2.3h28c14.5,0,25.8,9.8,25.8,22.6c0,9.4-7.7,16.7-13.4,19.4
		c6.5,2.1,15.9,8.7,15.9,19.9c0,13.7-11.7,23.6-26.6,23.6h-29.6c-1.3,0-2.3-1.1-2.3-2.3V3.5z M570.7,37.2c6.2,0,10.5-4.9,10.5-11
		s-4.3-10.4-10.5-10.4h-13.1v21.4H570.7z M572.4,72.3c6.1,0,11-4.8,11-11.1c0-6.1-6.1-10.6-12.5-10.6h-13.3v21.8H572.4z"/>
	<path class="st0" d="M625.1,83.6l38-82.2c0.4-0.7,1-1.3,2.1-1.3h1.2c1.2,0,1.7,0.6,2.1,1.3l37.6,82.2c0.7,1.6-0.2,3.2-2.1,3.2
		h-10.6c-1.8,0-2.7-0.7-3.5-2.4l-6-13.2h-36.5l-6,13.2c-0.5,1.2-1.6,2.4-3.5,2.4h-10.6C625.4,86.8,624.4,85.2,625.1,83.6z
		 M677.9,57.6l-12.2-26.9h-0.4l-12,26.9H677.9z"/>
	<path class="st0" d="M731.9,3.5c0-1.2,1.1-2.3,2.3-2.3h11.6c1.3,0,2.3,1.1,2.3,2.3v50c0,10.4,7.1,18.6,17.7,18.6
		c10.6,0,17.8-8.2,17.8-18.5V3.5c0-1.2,1-2.3,2.3-2.3h11.6c1.2,0,2.3,1.1,2.3,2.3v50.8C800,73,785.2,88,765.9,88
		c-19.2,0-34-15-34-33.6V3.5z"/>
</g>
</svg>
