<?xml version="1.0" encoding="UTF-8" standalone="no"?>
<!-- Generator: Adobe Illustrator 17.0.0, SVG Export Plug-In . SVG Version: 6.00 Build 0)  -->

<svg
   xmlns:svg="http://www.w3.org/2000/svg"
   xmlns="http://www.w3.org/2000/svg"
   version="1.0"
   x="0px"
   y="0px"
   viewBox="0 0 73.849998 76.907997"
   enable-background="new 0 0 705 88"
   xml:space="preserve">
<g   fill="#004883">
<path
   d="m 0.1,70.552 5.65,6.343 c 8.964,-7.988 21.47,-12.09 34.311,-11.249 10.546,0.691 20.546,4.689 28.155,11.262 l 5.551,-6.426 C 64.769,62.711 52.996,57.983 40.617,57.17 25.519,56.184 10.752,61.065 0.1,70.552 l 0,0 z" />
   <path
   d="m 28.556,18.466 c -8.676,0 -17.123,-2.15 -24.427,-6.215 L 0,19.673 c 8.564,4.765 18.438,7.284 28.556,7.284 18.301,0 35.233,-8.202 45.294,-21.94 L 66.998,0 C 58.532,11.563 44.16,18.466 28.556,18.466 l 0,0 z"
   />
   <path
   d="m 29.274,39.941 c -9.083,0 -17.776,-1.807 -25.838,-5.365 l -3.43,7.768 c 9.15,4.04 18.997,6.089 29.268,6.089 16.523,0 32.349,-5.48 44.564,-15.431 L 68.475,26.418 C 57.77,35.138 43.849,39.941 29.274,39.941 l 0,0 z" />
   </g>
</svg>