<svg id="Ebene_1" data-name="Ebene 1" xmlns="http://www.w3.org/2000/svg" xmlns:xlink="http://www.w3.org/1999/xlink" viewBox="0 0 1920 574"><defs><style>.cls-1,.cls-17,.cls-42{fill:none;}.cls-2{fill:#102d45;}.cls-3{clip-path:url(#clip-path);}.cls-4{fill:url(#Unbenannter_Verlauf_36);}.cls-5{clip-path:url(#clip-path-2);}.cls-6{fill:url(#Unbenannter_Verlauf_36-2);}.cls-7{clip-path:url(#clip-path-3);}.cls-11,.cls-30,.cls-34,.cls-8,.cls-9{opacity:0.28;}.cls-10,.cls-11,.cls-17,.cls-28,.cls-30,.cls-34,.cls-42,.cls-9{isolation:isolate;}.cls-9{fill:url(#Unbenannter_Verlauf_26);}.cls-10,.cls-28{opacity:0.3;}.cls-10{fill:url(#Unbenannter_Verlauf_21);}.cls-11{fill:url(#Unbenannter_Verlauf_26-2);}.cls-12{fill:url(#Unbenannter_Verlauf_36-3);}.cls-13{fill:url(#Unbenannter_Verlauf_36-4);}.cls-14{fill:url(#Unbenannter_Verlauf_36-5);}.cls-15{fill:url(#Unbenannter_Verlauf_36-6);}.cls-16{fill:url(#Unbenannter_Verlauf_36-7);}.cls-17,.cls-42{stroke:#00b0b0;stroke-linecap:round;stroke-linejoin:round;}.cls-17{opacity:0.2;}.cls-18{fill:url(#Unbenannter_Verlauf_36-8);}.cls-19{fill:url(#Unbenannter_Verlauf_36-9);}.cls-20{fill:url(#Unbenannter_Verlauf_36-10);}.cls-21{fill:url(#Unbenannter_Verlauf_36-11);}.cls-22{fill:url(#Unbenannter_Verlauf_36-12);}.cls-23{fill:url(#Unbenannter_Verlauf_36-13);}.cls-24{fill:url(#Unbenannter_Verlauf_36-14);}.cls-25{fill:url(#Unbenannter_Verlauf_36-15);}.cls-26{fill:url(#Unbenannter_Verlauf_36-16);}.cls-27{fill:url(#Unbenannter_Verlauf_36-17);}.cls-28{fill:url(#Unbenannter_Verlauf_21-2);}.cls-29{clip-path:url(#clip-path-4);}.cls-30{fill:url(#Unbenannter_Verlauf_26-3);}.cls-31{fill:url(#Unbenannter_Verlauf_36-18);}.cls-32{fill:url(#Unbenannter_Verlauf_36-19);}.cls-33{fill:url(#Unbenannter_Verlauf_36-20);}.cls-34{fill:url(#Unbenannter_Verlauf_26-4);}.cls-35,.cls-40{fill-opacity:0.4;}.cls-35{fill:url(#Unbenannter_Verlauf_36-21);}.cls-36{opacity:0.5;}.cls-37{fill:url(#Unbenannter_Verlauf_36-22);}.cls-38{fill:url(#Unbenannter_Verlauf_36-23);}.cls-39{fill:url(#Unbenannter_Verlauf_36-24);}.cls-40{fill:url(#Unbenannter_Verlauf_36-25);}.cls-41{fill:url(#Unbenannter_Verlauf_36-26);}.cls-42{opacity:0.4;}.cls-43{fill:url(#Unbenannter_Verlauf_36-27);}.cls-44{fill:url(#Unbenannter_Verlauf_36-28);}.cls-45{fill:url(#Unbenannter_Verlauf_36-29);}.cls-46{fill:url(#Unbenannter_Verlauf_36-30);}</style><clipPath id="clip-path" transform="translate(0.806 1.317)"><rect class="cls-1" x="704.424" y="140.27" width="22.77" height="22.77"/></clipPath><radialGradient id="Unbenannter_Verlauf_36" cx="667.6189" cy="766.4759" r="1.0001" gradientTransform="matrix(-3.1406, -10.9381, -10.9381, 3.1406, 11196.3932, 5046.913)" gradientUnits="userSpaceOnUse"><stop offset="0" stop-color="#69c6e1"/><stop offset="0.26" stop-color="#69c6e1"/><stop offset="0.35" stop-color="#61bbdb" stop-opacity="0.87"/><stop offset="0.54" stop-color="#4f9fcd" stop-opacity="0.53"/><stop offset="0.82" stop-color="#3074b6" stop-opacity="0"/></radialGradient><clipPath id="clip-path-2" transform="translate(0.806 1.317)"><rect class="cls-1" x="193.69" y="472.27" width="22.77" height="22.77"/></clipPath><radialGradient id="Unbenannter_Verlauf_36-2" cx="667.6189" cy="766.4759" r="1.0001" gradientTransform="matrix(-3.1406, -10.9381, -10.9381, 3.1406, 10685.6582, 5378.913)" xlink:href="#Unbenannter_Verlauf_36"/><clipPath id="clip-path-3" transform="translate(0.806 1.317)"><rect class="cls-1" x="36.194" y="168.04" width="73" height="75"/></clipPath><radialGradient id="Unbenannter_Verlauf_26" cx="664.0569" cy="725.5802" r="1.0003" gradientTransform="matrix(-10.0691, -36.4785, -35.3938, 9.7697, 32440.7235, 17340.2349)" gradientUnits="userSpaceOnUse"><stop offset="0" stop-color="#66b330"/><stop offset="0.26" stop-color="#66b330"/><stop offset="0.38" stop-color="#65b232" stop-opacity="0.98"/><stop offset="0.47" stop-color="#62b036" stop-opacity="0.93"/><stop offset="0.54" stop-color="#5eaa43" stop-opacity="0.85"/><stop offset="0.61" stop-color="#55a152" stop-opacity="0.72"/><stop offset="0.67" stop-color="#4e9769" stop-opacity="0.57"/><stop offset="0.73" stop-color="#458b83" stop-opacity="0.37"/><stop offset="0.79" stop-color="#397ca2" stop-opacity="0.15"/><stop offset="0.82" stop-color="#3074b6" stop-opacity="0"/></radialGradient><radialGradient id="Unbenannter_Verlauf_21" cx="667.3272" cy="698.4258" r="1" gradientTransform="matrix(-18.9235, 65.9071, 65.9071, 18.9235, -33305.0688, -56807.7222)" gradientUnits="userSpaceOnUse"><stop offset="0" stop-color="#69c6e1"/><stop offset="0.13" stop-color="#68c5e0" stop-opacity="0.98"/><stop offset="0.24" stop-color="#66c1de" stop-opacity="0.94"/><stop offset="0.35" stop-color="#61bbdc" stop-opacity="0.86"/><stop offset="0.45" stop-color="#59b1d6" stop-opacity="0.75"/><stop offset="0.55" stop-color="#52a5d0" stop-opacity="0.6"/><stop offset="0.65" stop-color="#4895c8" stop-opacity="0.42"/><stop offset="0.74" stop-color="#3b85c0" stop-opacity="0.22"/><stop offset="0.82" stop-color="#3074b6" stop-opacity="0"/></radialGradient><radialGradient id="Unbenannter_Verlauf_26-2" cx="664.0569" cy="725.5802" r="1.0003" gradientTransform="matrix(-10.0691, -36.4785, -35.3938, 9.7697, 32555.0888, 17547.2209)" xlink:href="#Unbenannter_Verlauf_26"/><radialGradient id="Unbenannter_Verlauf_36-3" cx="673.7843" cy="842.1228" r="1.0001" gradientTransform="matrix(-1.3799, -4.8058, -4.8058, 1.3799, 5405.1766, 2500.1013)" xlink:href="#Unbenannter_Verlauf_36"/><radialGradient id="Unbenannter_Verlauf_36-4" cx="673.7842" cy="842.1228" r="1.0001" gradientTransform="matrix(-1.3799, -4.8058, -4.8058, 1.3799, 5065.0711, 2449.1013)" xlink:href="#Unbenannter_Verlauf_36"/><radialGradient id="Unbenannter_Verlauf_36-5" cx="676.5335" cy="875.8557" r="1.0001" gradientTransform="matrix(-1.1039, -3.8447, -3.8447, 1.1039, 4293.4223, 1955.2217)" xlink:href="#Unbenannter_Verlauf_36"/><radialGradient id="Unbenannter_Verlauf_36-6" cx="676.5335" cy="875.8557" r="1.0001" gradientTransform="matrix(-1.1039, -3.8447, -3.8447, 1.1039, 4357.4223, 1818.8647)" xlink:href="#Unbenannter_Verlauf_36"/><radialGradient id="Unbenannter_Verlauf_36-7" cx="676.5335" cy="875.8557" r="1.0001" gradientTransform="matrix(-1.1039, -3.8447, -3.8447, 1.1039, 4396.4223, 1876.8647)" xlink:href="#Unbenannter_Verlauf_36"/><radialGradient id="Unbenannter_Verlauf_36-8" cx="673.8847" cy="648.7549" r="1.0001" gradientTransform="matrix(0.1207, 11.3794, 11.3794, -0.1207, -7321.6362, -7381.8359)" xlink:href="#Unbenannter_Verlauf_36"/><radialGradient id="Unbenannter_Verlauf_36-9" cx="653.5511" cy="786.2886" r="1" gradientTransform="matrix(-0.6965, -8.4714, -8.4714, 0.6965, 7489.4828, 5187.5009)" xlink:href="#Unbenannter_Verlauf_36"/><radialGradient id="Unbenannter_Verlauf_36-10" cx="643.1605" cy="875.2729" r="1.0001" gradientTransform="matrix(-0.3278, -3.9865, -3.9865, 0.3278, 3801.5752, 2323.3209)" xlink:href="#Unbenannter_Verlauf_36"/><radialGradient id="Unbenannter_Verlauf_36-11" cx="643.1612" cy="875.2725" r="1" gradientTransform="matrix(-0.3278, -3.9866, -3.9866, 0.3278, 3828.2431, 2434.715)" xlink:href="#Unbenannter_Verlauf_36"/><radialGradient id="Unbenannter_Verlauf_36-12" cx="643.1606" cy="875.2729" r="1" gradientTransform="matrix(-0.3278, -3.9865, -3.9865, 0.3278, 3757.6278, 2420.5875)" xlink:href="#Unbenannter_Verlauf_36"/><radialGradient id="Unbenannter_Verlauf_36-13" cx="643.1605" cy="875.2729" r="1.0001" gradientTransform="matrix(-0.3278, -3.9865, -3.9865, 0.3278, 3932.0772, 2341.478)" xlink:href="#Unbenannter_Verlauf_36"/><radialGradient id="Unbenannter_Verlauf_36-14" cx="676.5336" cy="875.8557" r="1" gradientTransform="matrix(-1.1039, -3.8447, -3.8447, 1.1039, 4517.4223, 1696.2218)" xlink:href="#Unbenannter_Verlauf_36"/><radialGradient id="Unbenannter_Verlauf_36-15" cx="676.5335" cy="875.8557" r="1.0001" gradientTransform="matrix(-1.1039, -3.8447, -3.8447, 1.1039, 4747.4223, 1850.2217)" xlink:href="#Unbenannter_Verlauf_36"/><radialGradient id="Unbenannter_Verlauf_36-16" cx="676.5335" cy="875.8557" r="1.0001" gradientTransform="matrix(-1.1039, -3.8447, -3.8447, 1.1039, 4739.4223, 1759.2217)" xlink:href="#Unbenannter_Verlauf_36"/><radialGradient id="Unbenannter_Verlauf_36-17" cx="676.5335" cy="875.8557" r="1.0001" gradientTransform="matrix(-1.1039, -3.8447, -3.8447, 1.1039, 4869.4223, 2024.2217)" xlink:href="#Unbenannter_Verlauf_36"/><radialGradient id="Unbenannter_Verlauf_21-2" cx="665.0689" cy="696.0524" r="1" gradientTransform="matrix(-0.224, 59.5309, 59.5309, 0.224, -39516.0624, -39627.6686)" xlink:href="#Unbenannter_Verlauf_21"/><clipPath id="clip-path-4" transform="translate(0.806 1.317)"><rect class="cls-1" x="1419.214" y="108.04" width="73" height="75"/></clipPath><radialGradient id="Unbenannter_Verlauf_26-3" cx="664.0569" cy="725.5802" r="1.0004" gradientTransform="matrix(-10.0691, -36.4785, -35.3938, 9.7697, 33823.7458, 17280.2349)" xlink:href="#Unbenannter_Verlauf_26"/><radialGradient id="Unbenannter_Verlauf_36-18" cx="667.6189" cy="766.4759" r="1.0001" gradientTransform="matrix(-3.1406, -10.9381, -10.9381, 3.1406, 12154.4102, 5262.913)" xlink:href="#Unbenannter_Verlauf_36"/><radialGradient id="Unbenannter_Verlauf_36-19" cx="673.7843" cy="842.1228" r="1.0001" gradientTransform="matrix(-1.3799, -4.8058, -4.8058, 1.3799, 6338.3616, 2563.1013)" xlink:href="#Unbenannter_Verlauf_36"/><radialGradient id="Unbenannter_Verlauf_36-20" cx="673.7843" cy="842.1228" r="1.0001" gradientTransform="matrix(-1.3799, -4.8058, -4.8058, 1.3799, 6495.2016, 2459.1013)" xlink:href="#Unbenannter_Verlauf_36"/><radialGradient id="Unbenannter_Verlauf_26-4" cx="649.966" cy="730.8424" r="1.0003" gradientTransform="matrix(7.8464, -24.4769, -23.806, -7.6313, 13968.8898, 21752.2357)" xlink:href="#Unbenannter_Verlauf_26"/><radialGradient id="Unbenannter_Verlauf_36-21" cx="633.4545" cy="758.9369" r="1.0001" gradientTransform="matrix(3.5519, -10.8115, -10.8115, -3.5519, 7637.5419, 9700.2823)" xlink:href="#Unbenannter_Verlauf_36"/><radialGradient id="Unbenannter_Verlauf_36-22" cx="633.3161" cy="759.2689" r="1.0002" gradientTransform="matrix(3.7011, -10.9086, -10.6487, -3.6129, 7543.9541, 9960.053)" xlink:href="#Unbenannter_Verlauf_36"/><radialGradient id="Unbenannter_Verlauf_36-23" cx="602.5374" cy="813.6587" r="1" gradientTransform="matrix(1.8104, -5.3359, -5.2087, -1.7672, 5005.5049, 4913.0108)" xlink:href="#Unbenannter_Verlauf_36"/><radialGradient id="Unbenannter_Verlauf_36-24" cx="633.3151" cy="759.2727" r="1.0001" gradientTransform="matrix(3.7025, -10.9096, -10.647, -3.6134, 7462.3599, 9884.085)" xlink:href="#Unbenannter_Verlauf_36"/><radialGradient id="Unbenannter_Verlauf_36-25" cx="633.3149" cy="759.2726" r="1.0001" gradientTransform="matrix(3.7026, -10.9096, -10.647, -3.6135, 7516.676, 9885.9781)" xlink:href="#Unbenannter_Verlauf_36"/><radialGradient id="Unbenannter_Verlauf_36-26" cx="633.3151" cy="759.2727" r="1.0001" gradientTransform="matrix(3.7025, -10.9096, -10.647, -3.6134, 7475.4864, 10004.9257)" xlink:href="#Unbenannter_Verlauf_36"/><radialGradient id="Unbenannter_Verlauf_36-27" cx="697.0137" cy="635.2873" r="1.0001" gradientTransform="matrix(-2.0699, 8.2441, 8.2441, 2.0699, -1963.9276, -6590.9428)" xlink:href="#Unbenannter_Verlauf_36"/><radialGradient id="Unbenannter_Verlauf_36-28" cx="669.6603" cy="791.5236" r="1.0001" gradientTransform="matrix(-2.2078, -7.6893, -7.6893, 2.2078, 8839.1293, 3545.7399)" xlink:href="#Unbenannter_Verlauf_36"/><radialGradient id="Unbenannter_Verlauf_36-29" cx="669.6603" cy="791.5236" r="1.0001" gradientTransform="matrix(-2.2078, -7.6893, -7.6893, 2.2078, 9295.3094, 3901.7399)" xlink:href="#Unbenannter_Verlauf_36"/><radialGradient id="Unbenannter_Verlauf_36-30" cx="735.5186" cy="554.3952" r="1.0001" gradientTransform="matrix(-0.9741, 3.8796, 3.8796, 0.9741, 275.8527, -3050.0829)" xlink:href="#Unbenannter_Verlauf_36"/></defs><rect class="cls-2" width="1920" height="574"/><g class="cls-3"><path class="cls-4" d="M715.814,140.28a11.38,11.38,0,1,0,11.38,11.38A11.38,11.38,0,0,0,715.814,140.28Z" transform="translate(0.806 1.317)"/></g><g class="cls-5"><path class="cls-6" d="M205.08,472.28a11.38,11.38,0,1,0,11.38,11.38A11.38,11.38,0,0,0,205.08,472.28Z" transform="translate(0.806 1.317)"/></g><g class="cls-7"><g class="cls-8"><path class="cls-9" d="M37.7491,194.57c-6.0308,19.812,4.673,40.756,23.9074,46.781s39.7155-5.151,45.7465-24.963-4.673-40.757-23.9072-46.782S43.78,174.758,37.7491,194.57Z" transform="translate(0.806 1.317)"/></g></g><path class="cls-10" d="M32.1165,371.59a68.57,68.57,0,1,0,84.8305-46.984A68.57,68.57,0,0,0,32.1165,371.59Z" transform="translate(0.806 1.317)"/><path class="cls-11" d="M152.114,401.555c-6.03,19.812,4.673,40.757,23.908,46.782s39.716-5.152,45.746-24.963-4.672-40.757-23.907-46.782S158.145,381.744,152.114,401.555Z" transform="translate(0.806 1.317)"/><path class="cls-12" d="M428.299,419.04a5,5,0,1,0,5,5A5,5,0,0,0,428.299,419.04Z" transform="translate(0.806 1.317)"/><path class="cls-13" d="M88.194,368.04a5,5,0,1,0,5,5A5,5,0,0,0,88.194,368.04Z" transform="translate(0.806 1.317)"/><path class="cls-14" d="M179.194,317.04a4,4,0,1,0,4,4A4,4,0,0,0,179.194,317.04Z" transform="translate(0.806 1.317)"/><path class="cls-15" d="M243.194,180.683a4,4,0,1,0,4,4A4,4,0,0,0,243.194,180.683Z" transform="translate(0.806 1.317)"/><path class="cls-16" d="M282.194,238.683a4,4,0,1,0,4,4A4,4,0,0,0,282.194,238.683Z" transform="translate(0.806 1.317)"/><path class="cls-17" d="M56.6707,142.322l84.5633,69.6m-84.5633-69.6L101.378,45.0172M56.6707,142.322,243.462,184.813M141.234,211.922l142.041,30.579-39.813-57.688M141.234,211.922,101.378,45.0172M141.234,211.922l102.228-27.109M101.378,45.0172,243.462,184.813M101.378,45.0172l273.579,155.41L243.718,185.184" transform="translate(0.806 1.317)"/><path class="cls-18" d="M139.21,219.207a11.38,11.38,0,1,0-7.947-13.995A11.38,11.38,0,0,0,139.21,219.207Z" transform="translate(0.806 1.317)"/><path class="cls-19" d="M374.866,190.351a8.5,8.5,0,1,0,6.666,10.003A8.5007,8.5007,0,0,0,374.866,190.351Z" transform="translate(0.806 1.317)"/><path class="cls-20" d="M102.186,42.311a4,4,0,1,0,3.137,4.7074A4,4,0,0,0,102.186,42.311Z" transform="translate(0.806 1.317)"/><path class="cls-21" d="M128.838,153.709a4,4,0,1,0,3.137,4.708A4,4,0,0,0,128.838,153.709Z" transform="translate(0.806 1.317)"/><path class="cls-22" d="M58.2385,139.577a4,4,0,1,0,3.1371,4.707A4.0006,4.0006,0,0,0,58.2385,139.577Z" transform="translate(0.806 1.317)"/><path class="cls-23" d="M232.688,60.4681a4,4,0,1,0,3.137,4.7073A4.001,4.001,0,0,0,232.688,60.4681Z" transform="translate(0.806 1.317)"/><path class="cls-24" d="M403.194,58.04a4,4,0,1,0,4,4A4,4,0,0,0,403.194,58.04Z" transform="translate(0.806 1.317)"/><path class="cls-25" d="M633.194,212.04a4,4,0,1,0,4,4A4,4,0,0,0,633.194,212.04Z" transform="translate(0.806 1.317)"/><path class="cls-26" d="M625.194,121.04a4,4,0,1,0,4,4A4,4,0,0,0,625.194,121.04Z" transform="translate(0.806 1.317)"/><path class="cls-27" d="M755.194,386.04a4,4,0,1,0,4,4A4,4,0,0,0,755.194,386.04Z" transform="translate(0.806 1.317)"/><path class="cls-28" d="M1712.034,120.167a59.53,59.53,0,1,0,59.76-59.3064A59.5347,59.5347,0,0,0,1712.034,120.167Z" transform="translate(0.806 1.317)"/><g class="cls-29"><g class="cls-8"><path class="cls-30" d="M1420.764,134.57c-6.03,19.812,4.68,40.757,23.91,46.782,19.24,6.024,39.72-5.152,45.75-24.964s-4.67-40.757-23.91-46.781C1447.284,103.582,1426.804,114.758,1420.764,134.57Z" transform="translate(0.806 1.317)"/></g></g><path class="cls-31" d="M1673.834,356.28a11.38,11.38,0,1,0,11.38,11.38A11.3768,11.3768,0,0,0,1673.834,356.28Z" transform="translate(0.806 1.317)"/><path class="cls-32" d="M1361.4841,482.04a5,5,0,1,0,5,5A5.0011,5.0011,0,0,0,1361.4841,482.04Z" transform="translate(0.806 1.317)"/><path class="cls-33" d="M1518.324,378.04a5,5,0,1,0,5,5A5.0012,5.0012,0,0,0,1518.324,378.04Z" transform="translate(0.806 1.317)"/><path class="cls-34" d="M1654.034,246.737c-10.83,9.061-12.52,24.927-3.78,35.437s24.61,11.685,35.44,2.624,12.52-24.927,3.78-35.437S1664.8641,237.676,1654.034,246.737Z" transform="translate(0.806 1.317)"/><path class="cls-35" d="M1688.514,146.597a11.3786,11.3786,0,1,0,3.02,15.809A11.3837,11.3837,0,0,0,1688.514,146.597Z" transform="translate(0.806 1.317)"/><g class="cls-36"><path class="cls-37" d="M1809.104,298.682a11.4716,11.4716,0,0,0-15.81,3.297,11.3035,11.3035,0,0,0,2.77,15.809,11.4735,11.4735,0,0,0,15.81-3.297A11.3035,11.3035,0,0,0,1809.104,298.682Z" transform="translate(0.806 1.317)"/><path class="cls-38" d="M1861.334,255.346a5.6077,5.6077,0,0,0-7.73,1.613,5.5284,5.5284,0,0,0,1.35,7.733,5.6077,5.6077,0,0,0,7.73-1.613A5.52,5.52,0,0,0,1861.334,255.346Z" transform="translate(0.806 1.317)"/><path class="cls-39" d="M1729.634,221.69a11.4745,11.4745,0,0,0-15.81,3.301,11.3021,11.3021,0,0,0,2.77,15.808,11.4733,11.4733,0,0,0,15.81-3.3A11.3031,11.3031,0,0,0,1729.634,221.69Z" transform="translate(0.806 1.317)"/><path class="cls-40" d="M1783.9841,223.566a11.4745,11.4745,0,0,0-15.81,3.301,11.3021,11.3021,0,0,0,2.77,15.808,11.4734,11.4734,0,0,0,15.81-3.3A11.3032,11.3032,0,0,0,1783.9841,223.566Z" transform="translate(0.806 1.317)"/><path class="cls-41" d="M1742.7441,342.541a11.4734,11.4734,0,0,0-15.81,3.3,11.3032,11.3032,0,0,0,2.77,15.809,11.4742,11.4742,0,0,0,15.81-3.3A11.3031,11.3031,0,0,0,1742.7441,342.541Z" transform="translate(0.806 1.317)"/><path class="cls-42" d="M1801.914,307.753l-23.85-73.541m23.85,73.541,56-47.967-79.85-25.574m23.85,73.541-66,44.033m42.15-117.574-42.15,117.574m42.15-117.574-54.37-4.559,12.22,122.133" transform="translate(0.806 1.317)"/></g><path class="cls-43" d="M1826.554,477.653a8.5,8.5,0,1,0-3.08-11.617A8.5,8.5,0,0,0,1826.554,477.653Z" transform="translate(0.806 1.317)"/><path class="cls-44" d="M1274.304,136.04a8,8,0,1,0,8,8A7.9991,7.9991,0,0,0,1274.304,136.04Z" transform="translate(0.806 1.317)"/><path class="cls-45" d="M1730.4841,492.04a8,8,0,1,0,8,8A7.999,7.999,0,0,0,1730.4841,492.04Z" transform="translate(0.806 1.317)"/><path class="cls-46" d="M1708.274,346.909a4.0019,4.0019,0,1,0-1.45-5.467A4.0048,4.0048,0,0,0,1708.274,346.909Z" transform="translate(0.806 1.317)"/></svg>