<svg xmlns="http://www.w3.org/2000/svg"><symbol viewBox="0 0 70 70" id="contact"><path class="st0" d="M35 3.4L66.6 35 35 66.6 3.4 35 35 3.4zM35 0L0 35l35 35 35-35L35 0z"/><path class="st0" d="M35 19c-5.5 0-10 4.5-10 10 0 10 10 22 10 22s10-12 10-22c0-5.5-4.5-10-10-10zm0 16.1c-3.4 0-6.1-2.7-6.1-6.1s2.7-6.1 6.1-6.1 6.1 2.7 6.1 6.1c0 3.4-2.7 6.1-6.1 6.1zM31.1 29c0-2.1 1.7-3.9 3.9-3.9s3.9 1.7 3.9 3.9-1.7 3.9-3.9 3.9-3.9-1.8-3.9-3.9z"/></symbol><symbol viewBox="0 0 70 70" id="jobs"><path class="st0" d="M35 3.4L66.6 35 35 66.6 3.4 35 35 3.4zM35 0L0 35l35 35 35-35L35 0z"/><path class="st0" d="M44.2 43.8c-4.3-1.6-5.6-2.9-5.6-5.7 0-1.7 1.3-1.1 1.9-4.2.2-1.3 1.4 0 1.6-3 0-1.2-.6-1.5-.6-1.5s.3-1.7.4-3.1c.2-1.7-1-5.9-6.9-5.9s-7 4.3-6.9 5.9c.1 1.3.4 3.1.4 3.1s-.6.3-.6 1.5c.2 2.9 1.4 1.7 1.6 3 .6 3.1 1.9 2.5 1.9 4.2 0 2.8-1.4 4.1-5.6 5.7-1.1.4-2.1.8-2.9 1.2L35 57.1 47.1 45c-.8-.4-1.8-.8-2.9-1.2z"/></symbol><symbol viewBox="0 0 20 21" id="mobilemenu"><path class="st0" d="M0 0h20v3H0zM0 9h20v3H0zM0 18h20v3H0z"/></symbol><symbol viewBox="0 0 18 30" id="mobilemenuback"><path class="st0" d="M16.2 30L0 15 16.2 0 18 1.9 3.9 15 18 28.1z"/></symbol><symbol viewBox="0 0 70 70" id="news"><path class="st0" d="M35 3.4L66.6 35 35 66.6 3.4 35 35 3.4zM35 0L0 35l35 35 35-35L35 0z"/><path class="st0" d="M24 25h22v3H24zM20 33.5h30v3H20zM27 42h16v3H27z"/></symbol><symbol viewBox="0 0 70 70" id="quick_access"><path class="st0" d="M35 3.4L66.6 35 35 66.6 3.4 35 35 3.4zM35 0L0 35l35 35 35-35L35 0z"/><path class="st0" d="M44 24l-9-9-9 9zM26 46l9 9 9-9z"/></symbol><symbol viewBox="0 0 70 70" id="services"><path class="st0" d="M35 3.4L66.6 35 35 66.6 3.4 35 35 3.4zM35 0L0 35l35 35 35-35L35 0z"/><path class="st0" d="M35 55.7L14.3 35 35 14.3 55.7 35 35 55.7zM17.7 35L35 52.3 52.3 35 35 17.7 17.7 35z"/><path class="st0" d="M35 26.5L26.5 35l8.5 8.5 8.5-8.5-8.5-8.5z"/></symbol><symbol viewBox="0 0 49.6 59.6" id="archiv"><path class="st0" d="M24.8 49.6L0 24.8 24.8 0l24.8 24.8-24.8 24.8zM5.6 24.8L24.8 44 44 24.8 24.8 5.6 5.6 24.8z"/><path class="st0" d="M24.8 59.6L1.4 36.2l2.8-2.8L24.8 54l20.6-20.6 2.8 2.8z"/></symbol><symbol viewBox="0 0 32.5 56.6" id="arrow_next"><path class="st0" d="M24 28.3l-24 24 4.2 4.3 28.3-28.3L4.2 0 0 4.2z"/></symbol><symbol viewBox="0 0 32.5 56.6" id="arrow_prev"><path class="st0" d="M8.5 28.3l24-24.1L28.3 0 0 28.3l28.3 28.3 4.2-4.3z"/></symbol><symbol viewBox="0 0 44 53" id="casestudy"><path d="M22 5.7L38.3 22 22 38.3 5.7 22 22 5.7M22 0L0 22l22 22 22-22L22 0z"/><path d="M22 30V14l8 8zM9.5 49h25v4h-25z"/></symbol><symbol viewBox="0 0 52 52" id="close"><path transform="rotate(45.001 26 25.999)" class="st0" d="M-8.8 24h69.5v4H-8.8z"/><path transform="rotate(134.999 25.999 25.999)" class="st0" d="M-8.8 24h69.5v4H-8.8z"/></symbol><symbol viewBox="0 0 44 53" id="download"><path d="M27.7 32.7L24 36.3V13h-4v23.3l-3.7-3.6-2.8 2.8L22 44l8.5-8.5zM9.5 49h25v4h-25z"/></symbol><symbol viewBox="0 0 44 53" id="link_kachel"><path d="M22 41.9L2.1 22 22 2.1l7 7.1 1.1-1.1L22 0 0 22l22 22 8-8-1-1.1z"/><path d="M35.5 13.5l-1.1 1.1 6.8 6.8H16.1v1.3h25.1l-6.8 6.8 1 1.1L44 22z"/></symbol><symbol viewBox="0 0 44 53" id="link"><path d="M35.5 13.5l-2.8 2.8 3.6 3.7H16v4h20.3l-3.6 3.7 2.8 2.8L44 22z"/><path d="M27.2 33.2L22 38.3 5.7 22 22 5.7l5.2 5.1L30 8l-8-8L0 22l22 22 8-8z"/></symbol><symbol viewBox="0 0 44 53" id="livelink"><path d="M38.3 22L22 38.3 5.7 22 22 5.7l-2.8-2.9L0 22l22 22 19.2-19.2z"/><path d="M31 1v4h5.2L19.6 21.6l2.8 2.8L39 7.8V13h4V1z"/></symbol><symbol viewBox="0 .1 49.7 48.2" id="load"><path class="st0" d="M26.2.1l-2.8 2.8L44 23.5 24.8 42.7 5.6 23.5l9.3-9.2 4.2 4.2V7.2H7.8l4.3 4.2L0 23.5l24.8 24.9 24.9-24.9z"/></symbol><symbol viewBox="0 0 30 24" id="menu_burger"><path shape-rendering="crispEdges" class="st0" d="M0 0h30v4H0zM0 10h30v4H0zM0 20h30v4H0z"/></symbol><symbol viewBox="0 0 24 24" id="menu_close"><path class="st0" d="M24 2.8L21.2 0 12 9.2 2.8 0 0 2.8 9.2 12 0 21.2 2.8 24l9.2-9.2 9.2 9.2 2.8-2.8-9.2-9.2z"/></symbol><symbol viewBox="0 0 30 24" id="news_burger"><path shape-rendering="crispEdges" d="M0 0h30v4H0zM0 10h30v4H0zM0 20h17v4H0z"/></symbol><symbol viewBox="0 0 24 24" id="news_close"><path d="M24 2.8L21.2 0 12 9.2 2.8 0 0 2.8 9.2 12 0 21.2 2.8 24l9.2-9.2 9.2 9.2 2.8-2.8-9.2-9.2z"/></symbol><symbol viewBox="0 0 24 24" id="pagina_hl"><path transform="rotate(45.001 12 12)" class="st0" d="M3.5 3.5h17v17h-17z"/></symbol><symbol viewBox="0 0 24 24" id="pagina_p"><path class="st0" d="M12 2.8l9.2 9.2-9.2 9.2L2.8 12 12 2.8M12 0L0 12l12 12 12-12L12 0z"/></symbol><symbol viewBox="-1 -1.7 26.7 27.7" id="search"><path class="st0" d="M25.7 23.2L19.5 17c1.6-2 2.5-4.5 2.5-7.2 0-6.4-5.1-11.5-11.5-11.5S-1 3.5-1 9.8s5.1 11.5 11.5 11.5c2.2 0 4.2-.6 6-1.7l6.3 6.3 2.9-2.7zM3 9.8c0-4.1 3.4-7.5 7.5-7.5S18 5.7 18 9.8s-3.4 7.5-7.5 7.5S3 14 3 9.8z"/></symbol><symbol viewBox="0 0 40 37" id="share"><path class="st0" d="M40 2.8L37.2 0 20.7 16.5H0v4h20.7L37.2 37l2.8-2.8-15.7-15.7z"/></symbol><symbol viewBox="0 0 206 171" id="methoden_entwicklungsmethoden"><path d="M103 171L28.4 96.5h42.2v8.1H47.9l55.1 55 59-59.1-32.4-32.3 35.3-35.3 5.7 5.7-29.5 29.6 32.4 32.3z"/></symbol><symbol viewBox="0 0 206 171" id="methoden_plattformen"><path d="M103 171l-70.5-70.5 74.6-74.6v74.6H99V45.4l-55 55.1 59 59 60.7-60.7V35.7h8.1v66.4z"/></symbol><symbol viewBox="0 0 206 171" id="methoden_technologystack"><path d="M103 171l-70.5-70.5 38.1-38.2 35.3 35.3-5.8 5.7-29.5-29.5L44 100.5l59 59 60.7-60.7V35.7h8.1v66.4z"/></symbol><symbol viewBox="0 0 206 171" id="services_consulting"><path d="M103 171l-70.5-70.2 35.3-35.2 5.7 5.7L44 100.8l59 58.7 59.1-59-61.8-61.6 5.7-5.7 67.5 67.2z"/></symbol><symbol viewBox="0 0 206 171" id="services_system_support"><path d="M103 171l-70.5-70.6 35.3-34.8 5.7 5.7L44 100.5l59 59 59.1-59L99 37.4V3.3h8.1V34l66.4 66.5z"/></symbol><symbol viewBox="0 0 206 171" id="services_user_interface_design"><path d="M103 171l-70.5-70.5 68.7-68.4h66.6v8.1h-63.3L44 100.5l59 59.1 59-58.7-29.5-29.5 5.8-5.7 35.2 35.2z"/></symbol><symbol viewBox="0 0 206 171" id="softwareentwicklung_aktuelle_technologien"><path d="M103 171l-70.5-70.5 19.1-19 5.7 5.7L44 100.5l59 59.1 55-55h-56.7l-65.9-66 5.7-5.7 63.6 63.6h72.9z"/></symbol><symbol viewBox="0 0 206 171" id="softwareentwicklung_ganzheitlicher_entwicklungsprozess"><path d="M103 171l-70.5-70.5 70.4-70.1 35.4 35.2-5.7 5.7-29.7-29.5L44 100.5l59 59 60.7-60.3V3.7h8.1v98.8z"/></symbol><symbol viewBox="0 0 206 171" id="softwareentwicklung_interdisziplinaere_projektteams"><path d="M103 171L28.5 96.5H69l63.6-63.6 5.7 5.7-66 66H48l55 55 59.1-59.1-13.3-13.3 5.7-5.7 19.1 19z"/></symbol><symbol viewBox="0 0 206 171" id="softwareentwicklung_kundenspezifische_loesungen"><path d="M103 171l-70.5-70.5 64.8-64.8L67.7 6.2 73.5.5l35.2 35.2L44 100.5l59 59.1 59.1-59.1L132.5 71l5.8-5.7 35.2 35.2z"/></symbol><symbol viewBox="0 0 206 171" id="softwareentwicklung_methodisches_vorgehen"><path d="M103 171L28.4 96.5H103v8.1H47.9l55.1 55 59-59.1-61.9-61.9 5.7-5.7 67.7 67.6z"/></symbol><symbol viewBox="0 0 206 171" id="unternehmen_ansprechpartner"><path d="M103 171l-70.5-70.5L102.6 30l35.3 35.3-5.8 5.7-29.5-29.5-58.7 59 59.1 59.1 91.4-91.5-29.5-29.5 5.7-5.7 35.3 35.2z"/></symbol><symbol viewBox="0 0 206 171" id="unternehmen_kunden"><path d="M103 171L28.5 96.5H103v8.1H48l55 55 59-59.1-65.2-65.3L132 0l5.7 5.7-29.5 29.5 65.3 65.3z"/></symbol><symbol viewBox="0 0 206 171" id="unternehmen_manifest"><path d="M103 171l-70.5-70.5L132.5.8l5.7 5.7-94.2 94 59 59 59-58.7-29.5-29.5 5.8-5.7 35.2 35.3z"/></symbol><symbol viewBox="0 0 206 171" id="unternehmen_newsarchiv"><path d="M108.9 8.7L103.2 3 32.5 73.4l70.5 70.2L173.5 73 108.9 8.7zM44 73.4l59.2-59 58.9 58.7-59.1 59-59-58.7z"/><path d="M103 155L38.3 90.6l-5.8 5.7 70.5 70.2 70.5-70.6-5.7-5.6L103 155z"/></symbol><symbol viewBox="0 0 206 171" id="unternehmen_profil"><path d="M103 171l-68.8-68.9V35.7h8.1v63.1l60.7 60.7 59.1-59.1-55-55v22.7H99V25.9l74.5 74.5z"/></symbol><symbol viewBox="0 0 206 171" id="unternehmen_tochterfirmen"><path d="M103 171l-70.5-70.6 60.7-60.7h-55v-8.1h74.6L44 100.4l59 59.1 59.1-59.1-29.6-29.5 5.8-5.7 35.2 35.2z"/></symbol><symbol viewBox="0 0 206 171" id="unternehmen_zertifizierungen"><path d="M103 171l-70.5-70.5L99 34V3.3h8.1v34.1L44 100.5l59 59 55-55h-55v-8.1h74.6z"/></symbol><symbol viewBox="0 0 32 32" id="facebook"><path d="M16 0c8.8 0 16 7.2 16 16 0 8.2-6.1 14.9-14 15.9V20h5.5l.5-4h-6v-2c0-1.1.9-2 2-2h4V8h-4c-3.3 0-6 2.7-6 6v2h-3v4h3v11.9C6.1 30.9 0 24.2 0 16 0 7.2 7.2 0 16 0z"/></symbol><symbol viewBox="0 0 32 32" id="github"><g id="github-github"><path d="M12.3 28.5s-.7.1-1.6.1c-2.4 0-3.2-1.5-3.5-2.4-.5-1.1-1.1-1.6-1.7-2.1-.4-.3-.5-.6 0-.6 2.1-.4 2.7 2.4 4.1 2.9 1 .3 2.3.2 3-.2.1-.9.7-1.6 1.2-2-3.4-.3-6.9-2.2-7.7-6.6-.1-.5-.1-1-.1-1.6 0-2.3.7-3.2 1.7-4.4-.9-2.8.1-4.6.1-4.6s1.6-.3 4.5 1.8c1.6-.7 5.9-.7 7.9-.2 1.2-.8 3.5-2 4.4-1.7.2.4.8 1.6.3 4.1.3.6 1.9 1.8 1.9 5.1 0 .8-.1 1.5-.2 2.1-.6 3.9-4.1 5.4-7.4 5.7 1.1.7 1.5 1.6 1.5 4.1v3.1C27.2 29.2 32 23.2 32 16c0-8.8-7.2-16-16-16S0 7.2 0 16c0 7.5 5.3 13.9 12.3 15.6v-3.1zM17.1 13.6z"/></g></symbol><symbol viewBox="0 0 32 32" id="googleplus"><path d="M13.7 25.6c0 2.3-1.5 4.2-5.6 4.3-2.4-1.4-4.4-3.3-5.8-5.7C3 22.4 5.3 21 8 21c.8 0 1.5.1 2.1.3 1.7 1.2 3.2 2 3.5 3.4 0 .3.1.6.1.9zM16 0C11.4 0 7.2 2 4.3 5.1c1.2-.6 2.5-1 4-1h8L14.5 6h-2.1c1.5.9 2.3 2.6 2.3 4.5 0 1.8-1 3.2-2.4 4.3-1.4 1.1-1.6 1.5-1.6 2.4 0 .8 1.6 1.9 2.4 2.5 2.6 1.9 3.1 3.2 3.1 5.6 0 2.5-2.2 4.9-5.8 5.7 1.8.7 3.7 1 5.7 1 8.8 0 16-7.2 16-16C32 7.2 24.8 0 16 0zm8 12v4h-2v-4h-4v-2h4V6h2v4h4v2h-4zm-12.6-1.4c.4 2.8-.9 4.7-3 4.6-2.2-.1-4.2-2-4.6-4.9-.4-2.8 1.1-5 3.2-4.9 2.2 0 4.1 2.4 4.4 5.2zm-4.5 9.5c-2.3 0-4.3.8-5.7 2C.4 20.2 0 18.1 0 16c0-1.8.3-3.5.8-5.1.2 3.1 2.4 5.5 6 5.5h.8c-.2.5-.4 1-.4 1.6 0 .9.5 1.5 1.2 2.1H6.9z"/></symbol><symbol viewBox="0 0 146 194" id="kununu"><path fill="#F2F5F6" d="M0 0h145.071v194H0z"/><path d="M25.232 57.926L7.754 88.373V56.464H26.14c-.324.471-.616.959-.908 1.462zM44.201 144.194H7.754v-31.437a27.845 27.845 0 0 0 15.243-12.428L41.901 67.43a8.686 8.686 0 0 1 5.251-4.004 8.66 8.66 0 0 1 6.542.853 8.575 8.575 0 0 1 3.974 5.19 8.6 8.6 0 0 1-.832 6.49L37.95 108.924a27.883 27.883 0 0 0-3.29 18.779 27.834 27.834 0 0 0 9.542 16.492zM120.109 112.432l-18.24 31.762H79.952a27.793 27.793 0 0 0 6.318-7.474l18.904-32.882a8.686 8.686 0 0 1 5.247-4.013 8.66 8.66 0 0 1 6.545.845 8.597 8.597 0 0 1 4.007 5.227 8.622 8.622 0 0 1-.864 6.535z" fill="#002D47"/><path d="M137.345 56.464V95.26a27.878 27.878 0 0 0-13.531-12.573 27.769 27.769 0 0 0-18.397-1.334 27.762 27.762 0 0 0-9.783 4.799 27.854 27.854 0 0 0-7.194 8.198l-18.888 32.834a8.702 8.702 0 0 1-5.23 4.054 8.677 8.677 0 0 1-6.562-.805 8.621 8.621 0 0 1-4.263-8.641 8.623 8.623 0 0 1 1.104-3.202l18.888-32.883a28.17 28.17 0 0 0-.81-29.243h64.666zM136.746 122.001c.21-.373.421-.747.599-1.121v23.314h-13.348l12.749-22.193zM25.232 57.926L7.754 88.373V56.464H26.14c-.324.471-.616.959-.908 1.462zM44.201 144.194H7.754v-31.437a27.845 27.845 0 0 0 15.243-12.428L41.901 67.43a8.686 8.686 0 0 1 5.251-4.004 8.66 8.66 0 0 1 6.542.853 8.575 8.575 0 0 1 3.974 5.19 8.6 8.6 0 0 1-.832 6.49L37.95 108.924a27.883 27.883 0 0 0-3.29 18.779 27.834 27.834 0 0 0 9.542 16.492z" fill="#002D47"/><path d="M120.109 112.432l-18.24 31.762H79.952a27.793 27.793 0 0 0 6.318-7.474l18.904-32.882a8.686 8.686 0 0 1 5.247-4.013 8.66 8.66 0 0 1 6.545.845 8.597 8.597 0 0 1 4.007 5.227 8.622 8.622 0 0 1-.864 6.535z" fill="#002D47"/><path d="M137.345 56.464V95.26a27.878 27.878 0 0 0-13.531-12.573 27.769 27.769 0 0 0-18.397-1.334 27.762 27.762 0 0 0-9.783 4.799 27.854 27.854 0 0 0-7.194 8.198l-18.888 32.834a8.702 8.702 0 0 1-5.23 4.054 8.677 8.677 0 0 1-6.562-.805 8.621 8.621 0 0 1-4.263-8.641 8.623 8.623 0 0 1 1.104-3.202l18.888-32.883a28.17 28.17 0 0 0-.81-29.243h64.666zM136.746 122.001c.21-.373.421-.747.599-1.121v23.314h-13.348l12.749-22.193z" fill="#002D47"/><path d="M25.232 57.926L7.754 88.373V56.464H26.14c-.324.471-.616.959-.908 1.462zM44.201 144.194H7.754v-31.437a27.845 27.845 0 0 0 15.243-12.428L41.901 67.43a8.686 8.686 0 0 1 5.251-4.004 8.66 8.66 0 0 1 6.542.853 8.575 8.575 0 0 1 3.974 5.19 8.6 8.6 0 0 1-.832 6.49L37.95 108.924a27.883 27.883 0 0 0-3.29 18.779 27.834 27.834 0 0 0 9.542 16.492zM120.109 112.432l-18.24 31.762H79.952a27.793 27.793 0 0 0 6.318-7.474l18.904-32.882a8.686 8.686 0 0 1 5.247-4.013 8.66 8.66 0 0 1 6.545.845 8.597 8.597 0 0 1 4.007 5.227 8.622 8.622 0 0 1-.864 6.535z" fill="#0F0"/><path d="M137.345 56.464V95.26a27.878 27.878 0 0 0-13.531-12.573 27.769 27.769 0 0 0-18.397-1.334 27.762 27.762 0 0 0-9.783 4.799 27.854 27.854 0 0 0-7.194 8.198l-18.888 32.834a8.702 8.702 0 0 1-5.23 4.054 8.677 8.677 0 0 1-6.562-.805 8.621 8.621 0 0 1-4.263-8.641 8.623 8.623 0 0 1 1.104-3.202l18.888-32.883a28.17 28.17 0 0 0-.81-29.243h64.666zM136.746 122.001c.21-.373.421-.747.599-1.121v23.314h-13.348l12.749-22.193z" fill="#0F0"/><path fill="#fff" d="M20 155h107v30H20z"/><path d="M102.259 13.574a3.904 3.904 0 0 0-2.851-.974 3.795 3.795 0 0 0-2.851 1.023 4.249 4.249 0 0 0-.972 3.07v.358a4.04 4.04 0 0 0 .972 2.957 3.853 3.853 0 0 0 2.85.99 4.077 4.077 0 0 0 2.836-.909 3.916 3.916 0 0 0 1.02-3.022v-.357a4.269 4.269 0 0 0-1.004-3.136zm0 0a3.904 3.904 0 0 0-2.851-.974 3.795 3.795 0 0 0-2.851 1.023 4.249 4.249 0 0 0-.972 3.07v.358a4.04 4.04 0 0 0 .972 2.957 3.853 3.853 0 0 0 2.85.99 4.077 4.077 0 0 0 2.836-.909 3.916 3.916 0 0 0 1.02-3.022v-.357a4.269 4.269 0 0 0-1.004-3.136zM61.211 7.726v17.87h76.134V7.726H61.211zm29.984 12.997v2.437H79.078v-1.918a3.73 3.73 0 0 1 .421-1.884 3.862 3.862 0 0 1 1.215-1.3 7.944 7.944 0 0 1 1.75-.828c.664-.228 1.36-.439 2.106-.618l1.134-.292c.34-.098.664-.195.955-.309a4.34 4.34 0 0 0 1.377-.698 1.3 1.3 0 0 0 .486-1.04 1.498 1.498 0 0 0-.696-1.332 4.169 4.169 0 0 0-2.236-.471 4.38 4.38 0 0 0-2.673.682 2.308 2.308 0 0 0-.89 1.998v.163h-2.803v-.195a4.432 4.432 0 0 1 1.62-3.656 7.339 7.339 0 0 1 4.86-1.332c.613-.006 1.225.043 1.83.146.495.07.98.201 1.442.39.748.274 1.39.78 1.83 1.446.392.634.594 1.367.583 2.112.008.386-.047.77-.162 1.137-.097.336-.256.65-.47.926a4.858 4.858 0 0 1-1.846 1.3 18.19 18.19 0 0 1-2.802.942c-.97.24-1.922.544-2.852.91a1.473 1.473 0 0 0-1.117 1.284h9.055zm14.919-3.542a8.25 8.25 0 0 1-.211 1.95 5.407 5.407 0 0 1-.647 1.624 5.244 5.244 0 0 1-2.349 2.128c-1.1.491-2.296.73-3.5.699-.635 0-1.27-.06-1.894-.179a7.27 7.27 0 0 1-1.62-.503 5.222 5.222 0 0 1-2.414-2.177 7.182 7.182 0 0 1-.794-3.59v-.488a7.85 7.85 0 0 1 .21-1.9 5.94 5.94 0 0 1 .633-1.626 5.383 5.383 0 0 1 2.397-2.144 7.692 7.692 0 0 1 3.483-.764 8.355 8.355 0 0 1 1.846.195c.56.12 1.104.306 1.62.553a5.474 5.474 0 0 1 2.365 2.177 6.75 6.75 0 0 1 .875 3.541v.504zm13.396 3.542v2.437h-12.116v-1.918a3.723 3.723 0 0 1 .437-1.884 3.87 3.87 0 0 1 1.215-1.3 8.164 8.164 0 0 1 1.733-.828 23.464 23.464 0 0 1 2.122-.618l1.134-.292c.34-.098.664-.195.956-.309a4.342 4.342 0 0 0 1.377-.698 1.33 1.33 0 0 0 .47-1.04 1.464 1.464 0 0 0-.697-1.332 4.055 4.055 0 0 0-2.219-.471 4.381 4.381 0 0 0-2.673.682 2.31 2.31 0 0 0-.891 1.998v.163h-2.802v-.195a4.419 4.419 0 0 1 1.62-3.656 7.338 7.338 0 0 1 4.859-1.332c.608-.006 1.215.043 1.815.146.495.066.98.197 1.441.39a3.695 3.695 0 0 1 1.847 1.446c.392.634.594 1.367.583 2.112.008.386-.047.77-.162 1.137-.096.34-.261.655-.486.926a4.698 4.698 0 0 1-1.83 1.3c-.912.392-1.855.708-2.819.942-.968.245-1.92.549-2.851.91a1.477 1.477 0 0 0-1.02 1.219l8.957.065zm13.786 0v2.437h-12.117v-1.918a3.723 3.723 0 0 1 .437-1.884 3.983 3.983 0 0 1 1.199-1.3 8.73 8.73 0 0 1 1.75-.828 23.37 23.37 0 0 1 2.122-.618l1.117-.292.972-.309a4.246 4.246 0 0 0 1.361-.698 1.308 1.308 0 0 0 .486-1.04 1.462 1.462 0 0 0-.697-1.332 4.055 4.055 0 0 0-2.219-.471 4.316 4.316 0 0 0-2.673.682 2.31 2.31 0 0 0-.891 1.998v.163h-2.802v-.195a4.419 4.419 0 0 1 1.62-3.656 7.338 7.338 0 0 1 4.859-1.332c.608-.006 1.216.043 1.815.146.495.066.98.197 1.441.39.753.274 1.4.78 1.847 1.446.392.634.594 1.367.583 2.112.008.386-.047.77-.162 1.137a3.128 3.128 0 0 1-.486.926 4.69 4.69 0 0 1-1.83 1.3c-.912.392-1.855.708-2.819.942a23.37 23.37 0 0 0-2.851.91 1.487 1.487 0 0 0-1.101 1.284h9.039zM99.408 12.6a3.795 3.795 0 0 0-2.851 1.023 4.249 4.249 0 0 0-.972 3.07v.358a4.04 4.04 0 0 0 .972 2.957 3.853 3.853 0 0 0 2.85.99 4.077 4.077 0 0 0 2.836-.909 3.916 3.916 0 0 0 1.02-3.022v-.357a4.269 4.269 0 0 0-1.004-3.136 3.904 3.904 0 0 0-2.851-.974zM23.467 11.917V7.726H8.727v4.191h4.859V23.29h4.989V11.917h4.892zM37.721 13.46a5.966 5.966 0 0 0-2.737-2.274 7.793 7.793 0 0 0-1.944-.617c-.748-.135-1.508-.2-2.268-.195-1.44-.031-2.87.246-4.195.812a6.257 6.257 0 0 0-2.754 2.275 5.76 5.76 0 0 0-.73 1.624c-.172.63-.26 1.28-.258 1.933v.18a6.109 6.109 0 0 0 1.911 4.776 8.825 8.825 0 0 0 6.01 1.624 8.956 8.956 0 0 0 5.896-1.706 5.866 5.866 0 0 0 2.057-4.76v-.179a6.366 6.366 0 0 0-.988-3.492zm-3.984 3.721a2.59 2.59 0 0 1-.746 2.03 4.09 4.09 0 0 1-4.47 0 2.631 2.631 0 0 1-.746-2.03v-.146a2.818 2.818 0 0 1 .778-2.161 3.12 3.12 0 0 1 2.22-.65c.803-.06 1.6.196 2.218.715a2.86 2.86 0 0 1 .745 2.177v.065zM54.407 12.112a6.037 6.037 0 0 0-4.455-1.625 6.465 6.465 0 0 0-3.045.666 4.673 4.673 0 0 0-1.88 1.885l-.388-2.274h-4.13V27.66h4.859v-6.288c.383.68.943 1.241 1.62 1.625.905.427 1.9.628 2.9.585a6.658 6.658 0 0 0 3.11-.731 5.498 5.498 0 0 0 2.267-2.128c.276-.51.478-1.058.6-1.625.16-.632.236-1.282.227-1.933v-.163a6.647 6.647 0 0 0-1.685-4.89zm-3.24 5.069a2.59 2.59 0 0 1-.761 2.03 3.233 3.233 0 0 1-2.236.667 3.233 3.233 0 0 1-2.219-.666 2.714 2.714 0 0 1-.729-2.047v-.114a2.754 2.754 0 0 1 .794-2.145 2.962 2.962 0 0 1 2.203-.682 3.088 3.088 0 0 1 2.203.731 2.86 2.86 0 0 1 .778 2.193l-.033.033zM16.453 46.717c2.301.15 4.585-.486 6.48-1.804a7.26 7.26 0 0 0 2.51-5.507v-.146h-5.41v.113a3.254 3.254 0 0 1-.956 2.129 4.461 4.461 0 0 1-5.216-.196 3.788 3.788 0 0 1-.94-2.826v-.585a3.925 3.925 0 0 1 .957-2.925 3.742 3.742 0 0 1 2.77-.974 3.492 3.492 0 0 1 2.397.73c.567.504.916 1.21.972 1.967v.113h5.427v-.195a7.569 7.569 0 0 0-1.361-3.899 6.837 6.837 0 0 0-3.046-2.242 9.893 9.893 0 0 0-2.04-.536 11.88 11.88 0 0 0-2.333-.211 10.6 10.6 0 0 0-4.666.959 6.843 6.843 0 0 0-3.11 2.745 7.193 7.193 0 0 0-.858 2.015c-.187.798-.28 1.616-.276 2.437v.714a7.477 7.477 0 0 0 2.3 6.076 9.7 9.7 0 0 0 6.4 2.048zM41.837 35.994a5.966 5.966 0 0 0-2.77-2.372 7.501 7.501 0 0 0-1.96-.633 11.42 11.42 0 0 0-2.3-.212 9.824 9.824 0 0 0-4.229.845 6.484 6.484 0 0 0-2.818 2.372 6.17 6.17 0 0 0-.73 1.706 7.87 7.87 0 0 0-.258 2.014v.18a6.401 6.401 0 0 0 1.911 4.97 8.73 8.73 0 0 0 6.09 1.853 8.842 8.842 0 0 0 5.946-1.788 6.173 6.173 0 0 0 2.09-4.955v-.178a6.807 6.807 0 0 0-.972-3.802zm-4.034 3.867a2.753 2.753 0 0 1-.745 2.112 3.976 3.976 0 0 1-4.503 0 2.748 2.748 0 0 1-.762-2.112v-.146a2.948 2.948 0 0 1 .778-2.243 2.98 2.98 0 0 1 3.438-.807 2.997 2.997 0 0 1 1.794 3.05v.146zM49.612 40.218a5.082 5.082 0 0 1 .502-2.42 1.865 1.865 0 0 1 1.799-.91c.477-.03.95.102 1.344.373.317.274.533.645.616 1.056.064.234.102.473.113.715.017.27.017.542 0 .812v6.385h4.86v-6.14a5 5 0 0 1 .615-2.308 2.204 2.204 0 0 1 1.742-.856 2.198 2.198 0 0 1 1.74.856c.32.697.47 1.46.438 2.226v6.287h4.94V38.48a6.316 6.316 0 0 0-1.263-4.16 4.65 4.65 0 0 0-3.823-1.51 5.269 5.269 0 0 0-2.931.78 4.594 4.594 0 0 0-1.75 2.095 4.19 4.19 0 0 0-1.62-2.128 5.058 5.058 0 0 0-2.948-.78 5.172 5.172 0 0 0-2.916.796c-.749.5-1.34 1.205-1.7 2.031l-.438-2.486H44.72v13.127h4.957l-.065-6.027zM84.472 34.597a5.927 5.927 0 0 0-4.503-1.771 6.092 6.092 0 0 0-3.061.699 4.867 4.867 0 0 0-1.912 1.95l-.389-2.357h-4.163v17.66h4.86V44.28c.379.682.94 1.245 1.62 1.624a6.14 6.14 0 0 0 2.932.617 6.593 6.593 0 0 0 3.142-.747 5.578 5.578 0 0 0 2.382-2.226 5.826 5.826 0 0 0 .615-1.624c.153-.66.23-1.337.227-2.015v-.162a7.005 7.005 0 0 0-1.75-5.15zm-3.24 5.264a2.755 2.755 0 0 1-.76 2.112 3.233 3.233 0 0 1-2.268.698 3.234 3.234 0 0 1-2.236-.698 2.813 2.813 0 0 1-.745-2.129v-.113a2.999 2.999 0 0 1 .81-2.242 3.01 3.01 0 0 1 2.187-.796 3.038 3.038 0 0 1 2.235.78 2.992 2.992 0 0 1 .778 2.274v.114zM101.108 34.11a9.277 9.277 0 0 0-5.524-1.3 10.133 10.133 0 0 0-5.572 1.3 4.868 4.868 0 0 0-2.236 3.785h5.087a1.482 1.482 0 0 1 .696-1.235c.67-.36 1.43-.518 2.187-.455a3.232 3.232 0 0 1 1.782.341.973.973 0 0 1 .486.845.651.651 0 0 1-.292.569 2.635 2.635 0 0 1-1.036.34l-.908.147-1.198.13c-.956.081-1.75.179-2.382.276a9.19 9.19 0 0 0-1.62.341 4.64 4.64 0 0 0-.663.244c-.201.079-.396.171-.584.276a3.47 3.47 0 0 0-1.474 1.333 3.762 3.762 0 0 0-.486 1.965 3.258 3.258 0 0 0 1.215 2.68 6.061 6.061 0 0 0 3.694.927c1.3.05 2.593-.229 3.758-.812a5.353 5.353 0 0 0 2.122-2.08l.502 2.502h4.163v-7.993a4.882 4.882 0 0 0-1.717-4.127zm-3.078 6.498a2.198 2.198 0 0 1-.502 1.38 3.742 3.742 0 0 1-1.36 1.04c-.29.14-.594.243-.908.31-.33.067-.667.1-1.004.097a2.456 2.456 0 0 1-1.231-.244.86.86 0 0 1-.405-.78.96.96 0 0 1 .13-.52c.117-.163.265-.301.437-.406.277-.136.571-.235.874-.292.357-.081.907-.179 1.62-.276.486-.053.968-.14 1.442-.26a2.67 2.67 0 0 0 .89-.439l.017.39zM110.131 40.12a4.038 4.038 0 0 1 .583-2.404 2.356 2.356 0 0 1 1.993-.812 2.066 2.066 0 0 1 1.863.747c.369.652.543 1.396.502 2.145v6.498h4.989v-7.896a5.861 5.861 0 0 0-1.377-4.126 5.152 5.152 0 0 0-3.985-1.495 5.267 5.267 0 0 0-3.094.845 5.019 5.019 0 0 0-1.782 2.145l-.453-2.649h-4.261v13.127h5.022v-6.124zM123.981 51.59c.819.01 1.637-.05 2.446-.178.58-.118 1.13-.35 1.62-.683.534-.4.99-.895 1.344-1.462.525-.821.99-1.68 1.393-2.567l6.48-13.582h-5.103l-3.24 7.36v.227l-.081-.243-3.239-7.344h-5.297l6.042 12.477-.146.358a3.856 3.856 0 0 1-.648.99 1.719 1.719 0 0 1-.794.505 2.178 2.178 0 0 1-.599.113 4.847 4.847 0 0 1-.729 0h-1.992v4.03h2.543zM8.16 149.474v36.554h128.78v-36.554H8.16zm31.02 14.215a5.497 5.497 0 0 1-1.426 3.655A5.389 5.389 0 0 1 39.083 171V174.671a.438.438 0 0 1-.454.455h-2.786a.485.485 0 0 1-.454-.455v-3.817a1.807 1.807 0 0 0-1.136-1.661 1.774 1.774 0 0 0-.694-.126h-.956a1.86 1.86 0 0 0-1.83 1.835v3.769a.489.489 0 0 1-.454.455h-2.786a.485.485 0 0 1-.454-.455v-16.896a.489.489 0 0 1 .454-.454h2.77a.485.485 0 0 1 .453.454v7.994a7.432 7.432 0 0 1 1.88-.293h.907a1.768 1.768 0 0 0 1.798-1.771v-.91a.49.49 0 0 1 .453-.406h2.787a.62.62 0 0 1 .518.358l.08.942zm8.488 14.622h-.972a5.553 5.553 0 0 1-3.921-1.592 5.582 5.582 0 0 1-1.667-3.9v-6.855a.489.489 0 0 1 .453-.455h2.803a.485.485 0 0 1 .453.455v6.904a1.813 1.813 0 0 0 1.814 1.787h.972a1.893 1.893 0 0 0 1.88-1.836v-6.855a.49.49 0 0 1 .453-.455h2.786a.485.485 0 0 1 .454.455v6.855a5.565 5.565 0 0 1-1.634 3.876 5.535 5.535 0 0 1-3.874 1.616zm19.439-3.38a.49.49 0 0 1-.454.455h-2.786a.485.485 0 0 1-.454-.455v-6.855a1.804 1.804 0 0 0-1.814-1.771h-.972a1.843 1.843 0 0 0-1.299.502c-.35.331-.559.786-.58 1.269v6.855a.49.49 0 0 1-.453.455h-2.787a.481.481 0 0 1-.47-.455v-6.855a5.547 5.547 0 0 1 1.658-3.893 5.516 5.516 0 0 1 3.915-1.582h.972a5.516 5.516 0 0 1 3.914 1.582 5.547 5.547 0 0 1 1.658 3.893l-.048 6.855zm8.553 3.38h-.972a5.535 5.535 0 0 1-3.885-1.628 5.564 5.564 0 0 1-1.623-3.896v-6.856a.489.489 0 0 1 .454-.455h2.786a.486.486 0 0 1 .453.455v6.905a1.836 1.836 0 0 0 1.83 1.787h.973a1.893 1.893 0 0 0 1.307-.539c.35-.343.555-.807.572-1.297v-6.856a.489.489 0 0 1 .453-.455h2.787a.486.486 0 0 1 .453.455v6.856a5.594 5.594 0 0 1-1.66 3.915 5.564 5.564 0 0 1-3.928 1.609zm19.438-3.493a.488.488 0 0 1-.453.455h-2.786a.486.486 0 0 1-.454-.455v-6.889a1.804 1.804 0 0 0-1.83-1.787h-.972a1.886 1.886 0 0 0-1.863 1.82v6.856a.522.522 0 0 1-.47.455h-2.786a.486.486 0 0 1-.454-.455v-6.856a5.547 5.547 0 0 1 1.658-3.893 5.516 5.516 0 0 1 3.915-1.582h.971a5.516 5.516 0 0 1 3.915 1.582 5.547 5.547 0 0 1 1.658 3.893l-.049 6.856zm8.748 3.493h-.956a5.532 5.532 0 0 1-3.926-1.587 5.567 5.567 0 0 1-1.663-3.905v-6.855a.489.489 0 0 1 .454-.455h2.786a.489.489 0 0 1 .47.455v6.904a1.812 1.812 0 0 0 .538 1.271 1.796 1.796 0 0 0 1.276.516h.972a1.902 1.902 0 0 0 1.879-1.836v-6.855a.487.487 0 0 1 .454-.455h2.786a.483.483 0 0 1 .453.455v6.855a5.568 5.568 0 0 1-1.639 3.882 5.538 5.538 0 0 1-3.884 1.61zm9.865-14.524l-1.134 1.088a1.62 1.62 0 0 1-2.122 0l-.162-.162a1.465 1.465 0 0 1 0-2.064l1.02-1.023a.406.406 0 0 1 .535 0l.113.114a.32.32 0 0 1 0 .454l-1.02 1.203a.5.5 0 0 0 0 .682l.162.162a.499.499 0 0 0 .68 0l1.15-1.072a.421.421 0 0 1 .567 0l.113.114a.31.31 0 0 1 .098.406v.098zm0-4.566l-.114.228a.37.37 0 0 1-.534 0l-1.15-1.089a.535.535 0 0 0-.681 0l-.162.179a.507.507 0 0 0 0 .682l1.134 1.089a.342.342 0 0 1 0 .503l-.113.114a.406.406 0 0 1-.535 0l-1.15-1.088a1.467 1.467 0 0 1 0-2.047l.178-.163a1.523 1.523 0 0 1 2.106 0l1.021 1.024a.306.306 0 0 1 .155.268.313.313 0 0 1-.155.268v.032zm3.871 5.605l-.162.179a1.519 1.519 0 0 1-2.106 0l-1.036-1.04a.323.323 0 0 1 0-.455l.113-.113a.4.4 0 0 1 .267-.101.4.4 0 0 1 .268.101l1.133.974a.52.52 0 0 0 .697 0l.162-.178a.507.507 0 0 0 0-.683l-1.134-1.088a.342.342 0 0 1 0-.504l.113-.114a.382.382 0 0 1 .268-.113.377.377 0 0 1 .267.113l1.134 1.089a1.466 1.466 0 0 1 .016 1.901v.032zm.114-4.874l-1.021 1.024a.42.42 0 0 1-.551 0l-.113-.114a.355.355 0 0 1 0-.455l1.037-1.202a.537.537 0 0 0 0-.682l-.179-.179a.534.534 0 0 0-.68 0l-1.134 1.089a.422.422 0 0 1-.567 0l-.129-.114a.324.324 0 0 1 0-.439l1.15-1.088a1.519 1.519 0 0 1 2.106 0l.162.162a1.449 1.449 0 0 1 0 2.031l-.081-.033z" fill="#002D47"/></symbol><symbol viewBox="0 0 32 32" id="linkedin"><g id="linkedin-linkedin"><path d="M16 0C7.2 0 0 7.2 0 16s7.2 16 16 16 16-7.2 16-16S24.8 0 16 0zm-5.2 24.1H6.7V11.8h4.1v12.3zm-2-13.9c-1.4 0-2.3-.9-2.3-2.1 0-1.2.9-2.1 2.3-2.1s2.3.9 2.3 2.1c0 1.1-.9 2.1-2.3 2.1zm16.7 13.9h-4.1v-6.6c0-1.6-.6-2.8-2.1-2.8-1.1 0-1.8.8-2.1 1.5-.1.3-.1.6-.1 1V24H13s.1-11.1 0-12.3h4.1v1.7c.5-.8 1.5-2 3.7-2 2.7 0 4.7 1.8 4.7 5.5v7.2zM17.1 13.6z"/></g></symbol><symbol viewBox="0 0 24 24" id="share_facebook_share_facebook"><path d="M9.8 17c-.2 0-.3-.2-.3-.3v-2.8c0-.2.2-.3.3-.3H12v-1.9c0-2.6 1.6-4.2 4.1-4.2h2.2c.2 0 .3.2.3.3v2.6c0 .2-.2.3-.3.3h-1.5c-1 0-1.2.4-1.2 1.2v1.6h2.6c.1 0 .2 0 .2.1.1.1.1.2.1.2v2.8c0 .2-.2.3-.3.3h-2.6v3.4L24 12 12 0 0 12l12 12v-7H9.8zM12.7 11.2z"/></symbol><symbol viewBox="0 0 24 24" id="share_linkedin_share_linkedin"><path d="M12.7 11.2zM12 0L0 12l12 12 12-12L12 0zM9 17.3H6.6v-7.2H9v7.2zM7.8 9.2c-.8 0-1.4-.6-1.4-1.3 0-.7.5-1.2 1.3-1.2S9 7.2 9 7.9c.1.7-.4 1.3-1.2 1.3zm7.4 8.1v-3.8c0-1-.3-1.6-1.2-1.6-.7 0-1.1.4-1.2.9-.1.2-.1.4-.1.6v4h-2.4v-7.2h2.4v1c.3-.5.9-1.2 2.2-1.2 1.6 0 2.7 1 2.7 3.2v4.1h-2.4z"/></symbol><symbol viewBox="0 0 24 24" id="share_twitter_share_twitter"><path d="M12 0L0 12l12 12 12-12L12 0zm5 9.8c0 3.4-2.6 7.3-7.3 7.3-1.4 0-2.8-.4-3.9-1.2h.6c1.2 0 2.3-.4 3.2-1.1-1.1 0-2.1-.8-2.4-1.8h.5c.2 0 .5 0 .7-.1-1.2-.2-2.1-1.3-2.1-2.5.3.2.7.3 1.2.3-.7-.5-1.1-1.2-1.1-2.1 0-.5.1-.9.3-1.3C8 8.9 9.9 9.9 12 10c0-.2-.1-.4-.1-.6 0-1.4 1.1-2.6 2.6-2.6.7 0 1.4.3 1.9.8.6-.1 1.1-.3 1.6-.6-.2.6-.6 1.1-1.1 1.4.5-.1 1-.2 1.5-.4-.3.5-.8 1-1.3 1.3-.1.3-.1.4-.1.5z"/></symbol><symbol viewBox="0 0 24 24" id="share_xing_share_xing"><path d="M12 0L0 12l12 12 12-12L12 0zM6.9 14.1L8.8 11 7.3 8.6h2.4l1.4 2.5-1.9 3.1H6.9zm6.3 3.3l-2.4-4.3 3.8-6.6h2.5l-3.8 6.6 2.4 4.3h-2.5zM12.7 11.2z"/></symbol><symbol viewBox="0 0 32 32" id="twitter"><g id="twitter-twitter"><path d="M16 0C7.2 0 0 7.2 0 16s7.2 16 16 16 16-7.2 16-16S24.8 0 16 0zm8 11.9v.5c0 5.5-4.2 11.8-11.8 11.8-2.3 0-4.5-.7-6.4-1.9.3 0 .7.1 1 .1 1.9 0 3.7-.7 5.2-1.8-1.8 0-3.3-1.2-3.9-2.9.3 0 .5.1.8.1.4 0 .7-.1 1.1-.1-1.9-.4-3.3-2.1-3.3-4.1v-.1c.6.3 1.2.5 1.9.5-1.1-.7-1.8-2-1.8-3.5 0-.8.2-1.5.6-2.1 2 2.5 5.1 4.2 8.6 4.3-.1-.3-.1-.6-.1-.9 0-2.3 1.9-4.1 4.1-4.1 1.2 0 2.3.5 3 1.3.9-.2 1.8-.5 2.6-1-.3 1-1 1.8-1.8 2.3.8-.1 1.6-.3 2.4-.7-.6 1-1.3 1.7-2.2 2.3zM17.1 13.6z"/></g></symbol><symbol viewBox="0 0 32 32" id="xing"><path d="M16 0C7.2 0 0 7.2 0 16s7.2 16 16 16 16-7.2 16-16S24.8 0 16 0zm-5.2 20H7.9c-.2 0-.3-.1-.4-.2-.1-.1-.1-.3 0-.4l3.1-5.4-2-3.4c-.1-.2-.1-.3 0-.4.1-.2.2-.2.4-.2h2.9c.4 0 .7.3.8.5 0 0 2 3.4 2 3.5-.1.2-3.1 5.5-3.1 5.5-.2.2-.4.5-.8.5zM24.5 6.6l-6.4 11.3 4.1 7.4c.1.2.1.3 0 .4-.1.1-.2.2-.4.2h-2.9c-.4 0-.7-.3-.8-.5L14 17.9c.2-.4 6.4-11.4 6.4-11.4.1-.2.3-.5.8-.5h2.9c.2 0 .3.1.4.2v.4z"/></symbol></svg>